G04 #@! TF.GenerationSoftware,KiCad,Pcbnew,9.0.2*
G04 #@! TF.CreationDate,2025-06-24T14:33:43+02:00*
G04 #@! TF.ProjectId,coral-ir,636f7261-6c2d-4697-922e-6b696361645f,rev?*
G04 #@! TF.SameCoordinates,Original*
G04 #@! TF.FileFunction,Legend,Bot*
G04 #@! TF.FilePolarity,Positive*
%FSLAX46Y46*%
G04 Gerber Fmt 4.6, Leading zero omitted, Abs format (unit mm)*
G04 Created by KiCad (PCBNEW 9.0.2) date 2025-06-24 14:33:43*
%MOMM*%
%LPD*%
G01*
G04 APERTURE LIST*
%ADD10C,0.153000*%
%ADD11C,0.200000*%
%ADD12C,0.127000*%
%ADD13C,0.250000*%
%ADD14C,2.600000*%
%ADD15C,3.800000*%
%ADD16C,0.650000*%
%ADD17O,2.100000X1.050000*%
%ADD18O,2.000000X1.000000*%
%ADD19C,1.270000*%
%ADD20C,2.409000*%
%ADD21R,2.250000X2.250000*%
%ADD22C,2.250000*%
G04 APERTURE END LIST*
D10*
X110339819Y-42919663D02*
X110673152Y-42443472D01*
X110911247Y-42919663D02*
X110911247Y-41919663D01*
X110911247Y-41919663D02*
X110530295Y-41919663D01*
X110530295Y-41919663D02*
X110435057Y-41967282D01*
X110435057Y-41967282D02*
X110387438Y-42014901D01*
X110387438Y-42014901D02*
X110339819Y-42110139D01*
X110339819Y-42110139D02*
X110339819Y-42252996D01*
X110339819Y-42252996D02*
X110387438Y-42348234D01*
X110387438Y-42348234D02*
X110435057Y-42395853D01*
X110435057Y-42395853D02*
X110530295Y-42443472D01*
X110530295Y-42443472D02*
X110911247Y-42443472D01*
X109530295Y-42872044D02*
X109625533Y-42919663D01*
X109625533Y-42919663D02*
X109816009Y-42919663D01*
X109816009Y-42919663D02*
X109911247Y-42872044D01*
X109911247Y-42872044D02*
X109958866Y-42776805D01*
X109958866Y-42776805D02*
X109958866Y-42395853D01*
X109958866Y-42395853D02*
X109911247Y-42300615D01*
X109911247Y-42300615D02*
X109816009Y-42252996D01*
X109816009Y-42252996D02*
X109625533Y-42252996D01*
X109625533Y-42252996D02*
X109530295Y-42300615D01*
X109530295Y-42300615D02*
X109482676Y-42395853D01*
X109482676Y-42395853D02*
X109482676Y-42491091D01*
X109482676Y-42491091D02*
X109958866Y-42586329D01*
X109149342Y-42252996D02*
X108911247Y-42919663D01*
X108911247Y-42919663D02*
X108673152Y-42252996D01*
X108292199Y-42824424D02*
X108244580Y-42872044D01*
X108244580Y-42872044D02*
X108292199Y-42919663D01*
X108292199Y-42919663D02*
X108339818Y-42872044D01*
X108339818Y-42872044D02*
X108292199Y-42824424D01*
X108292199Y-42824424D02*
X108292199Y-42919663D01*
X106530295Y-42919663D02*
X107101723Y-42919663D01*
X106816009Y-42919663D02*
X106816009Y-41919663D01*
X106816009Y-41919663D02*
X106911247Y-42062520D01*
X106911247Y-42062520D02*
X107006485Y-42157758D01*
X107006485Y-42157758D02*
X107101723Y-42205377D01*
X106101723Y-42824424D02*
X106054104Y-42872044D01*
X106054104Y-42872044D02*
X106101723Y-42919663D01*
X106101723Y-42919663D02*
X106149342Y-42872044D01*
X106149342Y-42872044D02*
X106101723Y-42824424D01*
X106101723Y-42824424D02*
X106101723Y-42919663D01*
X105435057Y-41919663D02*
X105339819Y-41919663D01*
X105339819Y-41919663D02*
X105244581Y-41967282D01*
X105244581Y-41967282D02*
X105196962Y-42014901D01*
X105196962Y-42014901D02*
X105149343Y-42110139D01*
X105149343Y-42110139D02*
X105101724Y-42300615D01*
X105101724Y-42300615D02*
X105101724Y-42538710D01*
X105101724Y-42538710D02*
X105149343Y-42729186D01*
X105149343Y-42729186D02*
X105196962Y-42824424D01*
X105196962Y-42824424D02*
X105244581Y-42872044D01*
X105244581Y-42872044D02*
X105339819Y-42919663D01*
X105339819Y-42919663D02*
X105435057Y-42919663D01*
X105435057Y-42919663D02*
X105530295Y-42872044D01*
X105530295Y-42872044D02*
X105577914Y-42824424D01*
X105577914Y-42824424D02*
X105625533Y-42729186D01*
X105625533Y-42729186D02*
X105673152Y-42538710D01*
X105673152Y-42538710D02*
X105673152Y-42300615D01*
X105673152Y-42300615D02*
X105625533Y-42110139D01*
X105625533Y-42110139D02*
X105577914Y-42014901D01*
X105577914Y-42014901D02*
X105530295Y-41967282D01*
X105530295Y-41967282D02*
X105435057Y-41919663D01*
D11*
X112778409Y-82014285D02*
X112826028Y-82157142D01*
X112826028Y-82157142D02*
X112873647Y-82204761D01*
X112873647Y-82204761D02*
X112968885Y-82252380D01*
X112968885Y-82252380D02*
X113111742Y-82252380D01*
X113111742Y-82252380D02*
X113206980Y-82204761D01*
X113206980Y-82204761D02*
X113254600Y-82157142D01*
X113254600Y-82157142D02*
X113302219Y-82061904D01*
X113302219Y-82061904D02*
X113302219Y-81680952D01*
X113302219Y-81680952D02*
X112302219Y-81680952D01*
X112302219Y-81680952D02*
X112302219Y-82014285D01*
X112302219Y-82014285D02*
X112349838Y-82109523D01*
X112349838Y-82109523D02*
X112397457Y-82157142D01*
X112397457Y-82157142D02*
X112492695Y-82204761D01*
X112492695Y-82204761D02*
X112587933Y-82204761D01*
X112587933Y-82204761D02*
X112683171Y-82157142D01*
X112683171Y-82157142D02*
X112730790Y-82109523D01*
X112730790Y-82109523D02*
X112778409Y-82014285D01*
X112778409Y-82014285D02*
X112778409Y-81680952D01*
X112302219Y-82538095D02*
X112302219Y-83109523D01*
X113302219Y-82823809D02*
X112302219Y-82823809D01*
X113302219Y-83966666D02*
X113302219Y-83395238D01*
X113302219Y-83680952D02*
X112302219Y-83680952D01*
X112302219Y-83680952D02*
X112445076Y-83585714D01*
X112445076Y-83585714D02*
X112540314Y-83490476D01*
X112540314Y-83490476D02*
X112587933Y-83395238D01*
X102063266Y-89741048D02*
X102063266Y-90502953D01*
X101301266Y-43259048D02*
X101301266Y-44020953D01*
X101682219Y-43640000D02*
X100920314Y-43640000D01*
X115161904Y-63454600D02*
X115019047Y-63502219D01*
X115019047Y-63502219D02*
X114780952Y-63502219D01*
X114780952Y-63502219D02*
X114685714Y-63454600D01*
X114685714Y-63454600D02*
X114638095Y-63406980D01*
X114638095Y-63406980D02*
X114590476Y-63311742D01*
X114590476Y-63311742D02*
X114590476Y-63216504D01*
X114590476Y-63216504D02*
X114638095Y-63121266D01*
X114638095Y-63121266D02*
X114685714Y-63073647D01*
X114685714Y-63073647D02*
X114780952Y-63026028D01*
X114780952Y-63026028D02*
X114971428Y-62978409D01*
X114971428Y-62978409D02*
X115066666Y-62930790D01*
X115066666Y-62930790D02*
X115114285Y-62883171D01*
X115114285Y-62883171D02*
X115161904Y-62787933D01*
X115161904Y-62787933D02*
X115161904Y-62692695D01*
X115161904Y-62692695D02*
X115114285Y-62597457D01*
X115114285Y-62597457D02*
X115066666Y-62549838D01*
X115066666Y-62549838D02*
X114971428Y-62502219D01*
X114971428Y-62502219D02*
X114733333Y-62502219D01*
X114733333Y-62502219D02*
X114590476Y-62549838D01*
X113638095Y-63502219D02*
X114209523Y-63502219D01*
X113923809Y-63502219D02*
X113923809Y-62502219D01*
X113923809Y-62502219D02*
X114019047Y-62645076D01*
X114019047Y-62645076D02*
X114114285Y-62740314D01*
X114114285Y-62740314D02*
X114209523Y-62787933D01*
D12*
X93610000Y-45000000D02*
X93610000Y-88000000D01*
X93610000Y-88000000D02*
X111390000Y-88000000D01*
X111390000Y-45000000D02*
X93610000Y-45000000D01*
X111390000Y-88000000D02*
X111390000Y-45000000D01*
D13*
X112975000Y-58100000D02*
G75*
G02*
X112725000Y-58100000I-125000J0D01*
G01*
X112725000Y-58100000D02*
G75*
G02*
X112975000Y-58100000I125000J0D01*
G01*
%LPC*%
D14*
X92500000Y-42500000D03*
D15*
X92500000Y-42500000D03*
D14*
X122500000Y-92500000D03*
D15*
X122500000Y-92500000D03*
D14*
X92500000Y-92500000D03*
D15*
X92500000Y-92500000D03*
D16*
X118720000Y-70390000D03*
X118720000Y-64610000D03*
D17*
X118220000Y-71820000D03*
D18*
X122400000Y-71820000D03*
X122400000Y-63180000D03*
D17*
X118220000Y-63180000D03*
D14*
X122500000Y-42500000D03*
D15*
X122500000Y-42500000D03*
D19*
X96130000Y-46920000D03*
D20*
X102500000Y-85485000D03*
X102500000Y-47515000D03*
D21*
X115350000Y-58100000D03*
D22*
X115350000Y-53600000D03*
X115350000Y-49100000D03*
X121850000Y-49100000D03*
X121850000Y-53600000D03*
X121850000Y-58100000D03*
%LPD*%
M02*
