G04 #@! TF.GenerationSoftware,KiCad,Pcbnew,9.0.2*
G04 #@! TF.CreationDate,2025-06-23T20:15:19+02:00*
G04 #@! TF.ProjectId,coral-ir,636f7261-6c2d-4697-922e-6b696361645f,rev?*
G04 #@! TF.SameCoordinates,Original*
G04 #@! TF.FileFunction,Legend,Bot*
G04 #@! TF.FilePolarity,Positive*
%FSLAX46Y46*%
G04 Gerber Fmt 4.6, Leading zero omitted, Abs format (unit mm)*
G04 Created by KiCad (PCBNEW 9.0.2) date 2025-06-23 20:15:19*
%MOMM*%
%LPD*%
G01*
G04 APERTURE LIST*
%ADD10C,0.153000*%
%ADD11C,0.200000*%
%ADD12C,0.127000*%
%ADD13C,2.600000*%
%ADD14C,3.800000*%
%ADD15C,0.650000*%
%ADD16O,2.100000X1.050000*%
%ADD17O,2.000000X1.000000*%
%ADD18C,1.270000*%
%ADD19C,2.409000*%
G04 APERTURE END LIST*
D10*
X96239663Y-47840180D02*
X95763472Y-47506847D01*
X96239663Y-47268752D02*
X95239663Y-47268752D01*
X95239663Y-47268752D02*
X95239663Y-47649704D01*
X95239663Y-47649704D02*
X95287282Y-47744942D01*
X95287282Y-47744942D02*
X95334901Y-47792561D01*
X95334901Y-47792561D02*
X95430139Y-47840180D01*
X95430139Y-47840180D02*
X95572996Y-47840180D01*
X95572996Y-47840180D02*
X95668234Y-47792561D01*
X95668234Y-47792561D02*
X95715853Y-47744942D01*
X95715853Y-47744942D02*
X95763472Y-47649704D01*
X95763472Y-47649704D02*
X95763472Y-47268752D01*
X96192044Y-48649704D02*
X96239663Y-48554466D01*
X96239663Y-48554466D02*
X96239663Y-48363990D01*
X96239663Y-48363990D02*
X96192044Y-48268752D01*
X96192044Y-48268752D02*
X96096805Y-48221133D01*
X96096805Y-48221133D02*
X95715853Y-48221133D01*
X95715853Y-48221133D02*
X95620615Y-48268752D01*
X95620615Y-48268752D02*
X95572996Y-48363990D01*
X95572996Y-48363990D02*
X95572996Y-48554466D01*
X95572996Y-48554466D02*
X95620615Y-48649704D01*
X95620615Y-48649704D02*
X95715853Y-48697323D01*
X95715853Y-48697323D02*
X95811091Y-48697323D01*
X95811091Y-48697323D02*
X95906329Y-48221133D01*
X95572996Y-49030657D02*
X96239663Y-49268752D01*
X96239663Y-49268752D02*
X95572996Y-49506847D01*
X96144424Y-49887800D02*
X96192044Y-49935419D01*
X96192044Y-49935419D02*
X96239663Y-49887800D01*
X96239663Y-49887800D02*
X96192044Y-49840181D01*
X96192044Y-49840181D02*
X96144424Y-49887800D01*
X96144424Y-49887800D02*
X96239663Y-49887800D01*
X96239663Y-51649704D02*
X96239663Y-51078276D01*
X96239663Y-51363990D02*
X95239663Y-51363990D01*
X95239663Y-51363990D02*
X95382520Y-51268752D01*
X95382520Y-51268752D02*
X95477758Y-51173514D01*
X95477758Y-51173514D02*
X95525377Y-51078276D01*
X96144424Y-52078276D02*
X96192044Y-52125895D01*
X96192044Y-52125895D02*
X96239663Y-52078276D01*
X96239663Y-52078276D02*
X96192044Y-52030657D01*
X96192044Y-52030657D02*
X96144424Y-52078276D01*
X96144424Y-52078276D02*
X96239663Y-52078276D01*
X95239663Y-52744942D02*
X95239663Y-52840180D01*
X95239663Y-52840180D02*
X95287282Y-52935418D01*
X95287282Y-52935418D02*
X95334901Y-52983037D01*
X95334901Y-52983037D02*
X95430139Y-53030656D01*
X95430139Y-53030656D02*
X95620615Y-53078275D01*
X95620615Y-53078275D02*
X95858710Y-53078275D01*
X95858710Y-53078275D02*
X96049186Y-53030656D01*
X96049186Y-53030656D02*
X96144424Y-52983037D01*
X96144424Y-52983037D02*
X96192044Y-52935418D01*
X96192044Y-52935418D02*
X96239663Y-52840180D01*
X96239663Y-52840180D02*
X96239663Y-52744942D01*
X96239663Y-52744942D02*
X96192044Y-52649704D01*
X96192044Y-52649704D02*
X96144424Y-52602085D01*
X96144424Y-52602085D02*
X96049186Y-52554466D01*
X96049186Y-52554466D02*
X95858710Y-52506847D01*
X95858710Y-52506847D02*
X95620615Y-52506847D01*
X95620615Y-52506847D02*
X95430139Y-52554466D01*
X95430139Y-52554466D02*
X95334901Y-52602085D01*
X95334901Y-52602085D02*
X95287282Y-52649704D01*
X95287282Y-52649704D02*
X95239663Y-52744942D01*
D11*
X117778409Y-80514285D02*
X117826028Y-80657142D01*
X117826028Y-80657142D02*
X117873647Y-80704761D01*
X117873647Y-80704761D02*
X117968885Y-80752380D01*
X117968885Y-80752380D02*
X118111742Y-80752380D01*
X118111742Y-80752380D02*
X118206980Y-80704761D01*
X118206980Y-80704761D02*
X118254600Y-80657142D01*
X118254600Y-80657142D02*
X118302219Y-80561904D01*
X118302219Y-80561904D02*
X118302219Y-80180952D01*
X118302219Y-80180952D02*
X117302219Y-80180952D01*
X117302219Y-80180952D02*
X117302219Y-80514285D01*
X117302219Y-80514285D02*
X117349838Y-80609523D01*
X117349838Y-80609523D02*
X117397457Y-80657142D01*
X117397457Y-80657142D02*
X117492695Y-80704761D01*
X117492695Y-80704761D02*
X117587933Y-80704761D01*
X117587933Y-80704761D02*
X117683171Y-80657142D01*
X117683171Y-80657142D02*
X117730790Y-80609523D01*
X117730790Y-80609523D02*
X117778409Y-80514285D01*
X117778409Y-80514285D02*
X117778409Y-80180952D01*
X117302219Y-81038095D02*
X117302219Y-81609523D01*
X118302219Y-81323809D02*
X117302219Y-81323809D01*
X118302219Y-82466666D02*
X118302219Y-81895238D01*
X118302219Y-82180952D02*
X117302219Y-82180952D01*
X117302219Y-82180952D02*
X117445076Y-82085714D01*
X117445076Y-82085714D02*
X117540314Y-81990476D01*
X117540314Y-81990476D02*
X117587933Y-81895238D01*
X107063266Y-88241048D02*
X107063266Y-89002953D01*
X106301266Y-41759048D02*
X106301266Y-42520953D01*
X106682219Y-42140000D02*
X105920314Y-42140000D01*
D12*
X98610000Y-43500000D02*
X98610000Y-86500000D01*
X98610000Y-86500000D02*
X116390000Y-86500000D01*
X116390000Y-43500000D02*
X98610000Y-43500000D01*
X116390000Y-86500000D02*
X116390000Y-43500000D01*
%LPC*%
D13*
X92500000Y-42500000D03*
D14*
X92500000Y-42500000D03*
D13*
X122500000Y-92500000D03*
D14*
X122500000Y-92500000D03*
D13*
X92500000Y-92500000D03*
D14*
X92500000Y-92500000D03*
D15*
X118720000Y-70390000D03*
X118720000Y-64610000D03*
D16*
X118220000Y-71820000D03*
D17*
X122400000Y-71820000D03*
X122400000Y-63180000D03*
D16*
X118220000Y-63180000D03*
D13*
X122500000Y-42500000D03*
D14*
X122500000Y-42500000D03*
D18*
X101130000Y-45420000D03*
D19*
X107500000Y-83985000D03*
X107500000Y-46015000D03*
%LPD*%
M02*
