G04 #@! TF.GenerationSoftware,KiCad,Pcbnew,9.0.2*
G04 #@! TF.CreationDate,2025-06-24T14:33:43+02:00*
G04 #@! TF.ProjectId,coral-ir,636f7261-6c2d-4697-922e-6b696361645f,rev?*
G04 #@! TF.SameCoordinates,Original*
G04 #@! TF.FileFunction,Legend,Top*
G04 #@! TF.FilePolarity,Positive*
%FSLAX46Y46*%
G04 Gerber Fmt 4.6, Leading zero omitted, Abs format (unit mm)*
G04 Created by KiCad (PCBNEW 9.0.2) date 2025-06-24 14:33:43*
%MOMM*%
%LPD*%
G01*
G04 APERTURE LIST*
G04 Aperture macros list*
%AMRoundRect*
0 Rectangle with rounded corners*
0 $1 Rounding radius*
0 $2 $3 $4 $5 $6 $7 $8 $9 X,Y pos of 4 corners*
0 Add a 4 corners polygon primitive as box body*
4,1,4,$2,$3,$4,$5,$6,$7,$8,$9,$2,$3,0*
0 Add four circle primitives for the rounded corners*
1,1,$1+$1,$2,$3*
1,1,$1+$1,$4,$5*
1,1,$1+$1,$6,$7*
1,1,$1+$1,$8,$9*
0 Add four rect primitives between the rounded corners*
20,1,$1+$1,$2,$3,$4,$5,0*
20,1,$1+$1,$4,$5,$6,$7,0*
20,1,$1+$1,$6,$7,$8,$9,0*
20,1,$1+$1,$8,$9,$2,$3,0*%
G04 Aperture macros list end*
%ADD10C,0.153000*%
%ADD11C,0.200000*%
%ADD12C,0.127000*%
%ADD13C,0.010000*%
%ADD14R,1.400000X1.600000*%
%ADD15R,0.750000X0.600000*%
%ADD16R,0.600000X0.750000*%
%ADD17C,2.600000*%
%ADD18C,3.800000*%
%ADD19R,0.350000X0.800000*%
%ADD20R,2.500000X1.750000*%
%ADD21R,0.600000X0.620000*%
%ADD22RoundRect,0.102000X0.279375X0.696024X-0.589958X0.463087X-0.279375X-0.696024X0.589958X-0.463087X0*%
%ADD23R,0.914400X1.219200*%
%ADD24R,0.900000X1.500000*%
%ADD25R,0.800000X0.800000*%
%ADD26RoundRect,0.102000X0.589958X0.463087X-0.279375X0.696024X-0.589958X-0.463087X0.279375X-0.696024X0*%
%ADD27R,0.600000X1.250000*%
%ADD28R,0.320000X0.430000*%
%ADD29C,0.650000*%
%ADD30R,1.030000X0.600000*%
%ADD31R,1.080000X0.600000*%
%ADD32R,1.150000X0.300000*%
%ADD33O,2.100000X1.050000*%
%ADD34O,2.000000X1.000000*%
%ADD35C,1.270000*%
%ADD36C,2.409000*%
%ADD37R,2.250000X2.250000*%
%ADD38C,2.250000*%
G04 APERTURE END LIST*
D10*
X113445237Y-42757044D02*
X113349999Y-42804663D01*
X113349999Y-42804663D02*
X113159523Y-42804663D01*
X113159523Y-42804663D02*
X113064285Y-42757044D01*
X113064285Y-42757044D02*
X113016666Y-42709424D01*
X113016666Y-42709424D02*
X112969047Y-42614186D01*
X112969047Y-42614186D02*
X112969047Y-42328472D01*
X112969047Y-42328472D02*
X113016666Y-42233234D01*
X113016666Y-42233234D02*
X113064285Y-42185615D01*
X113064285Y-42185615D02*
X113159523Y-42137996D01*
X113159523Y-42137996D02*
X113349999Y-42137996D01*
X113349999Y-42137996D02*
X113445237Y-42185615D01*
X114016666Y-42804663D02*
X113921428Y-42757044D01*
X113921428Y-42757044D02*
X113873809Y-42709424D01*
X113873809Y-42709424D02*
X113826190Y-42614186D01*
X113826190Y-42614186D02*
X113826190Y-42328472D01*
X113826190Y-42328472D02*
X113873809Y-42233234D01*
X113873809Y-42233234D02*
X113921428Y-42185615D01*
X113921428Y-42185615D02*
X114016666Y-42137996D01*
X114016666Y-42137996D02*
X114159523Y-42137996D01*
X114159523Y-42137996D02*
X114254761Y-42185615D01*
X114254761Y-42185615D02*
X114302380Y-42233234D01*
X114302380Y-42233234D02*
X114349999Y-42328472D01*
X114349999Y-42328472D02*
X114349999Y-42614186D01*
X114349999Y-42614186D02*
X114302380Y-42709424D01*
X114302380Y-42709424D02*
X114254761Y-42757044D01*
X114254761Y-42757044D02*
X114159523Y-42804663D01*
X114159523Y-42804663D02*
X114016666Y-42804663D01*
X114778571Y-42804663D02*
X114778571Y-42137996D01*
X114778571Y-42328472D02*
X114826190Y-42233234D01*
X114826190Y-42233234D02*
X114873809Y-42185615D01*
X114873809Y-42185615D02*
X114969047Y-42137996D01*
X114969047Y-42137996D02*
X115064285Y-42137996D01*
X115826190Y-42804663D02*
X115826190Y-42280853D01*
X115826190Y-42280853D02*
X115778571Y-42185615D01*
X115778571Y-42185615D02*
X115683333Y-42137996D01*
X115683333Y-42137996D02*
X115492857Y-42137996D01*
X115492857Y-42137996D02*
X115397619Y-42185615D01*
X115826190Y-42757044D02*
X115730952Y-42804663D01*
X115730952Y-42804663D02*
X115492857Y-42804663D01*
X115492857Y-42804663D02*
X115397619Y-42757044D01*
X115397619Y-42757044D02*
X115350000Y-42661805D01*
X115350000Y-42661805D02*
X115350000Y-42566567D01*
X115350000Y-42566567D02*
X115397619Y-42471329D01*
X115397619Y-42471329D02*
X115492857Y-42423710D01*
X115492857Y-42423710D02*
X115730952Y-42423710D01*
X115730952Y-42423710D02*
X115826190Y-42376091D01*
X116445238Y-42804663D02*
X116350000Y-42757044D01*
X116350000Y-42757044D02*
X116302381Y-42661805D01*
X116302381Y-42661805D02*
X116302381Y-41804663D01*
X116826191Y-42423710D02*
X117588096Y-42423710D01*
X118064286Y-42804663D02*
X118064286Y-42137996D01*
X118064286Y-41804663D02*
X118016667Y-41852282D01*
X118016667Y-41852282D02*
X118064286Y-41899901D01*
X118064286Y-41899901D02*
X118111905Y-41852282D01*
X118111905Y-41852282D02*
X118064286Y-41804663D01*
X118064286Y-41804663D02*
X118064286Y-41899901D01*
X118540476Y-42804663D02*
X118540476Y-42137996D01*
X118540476Y-42328472D02*
X118588095Y-42233234D01*
X118588095Y-42233234D02*
X118635714Y-42185615D01*
X118635714Y-42185615D02*
X118730952Y-42137996D01*
X118730952Y-42137996D02*
X118826190Y-42137996D01*
D11*
X111288095Y-56454600D02*
X111430952Y-56502219D01*
X111430952Y-56502219D02*
X111669047Y-56502219D01*
X111669047Y-56502219D02*
X111764285Y-56454600D01*
X111764285Y-56454600D02*
X111811904Y-56406980D01*
X111811904Y-56406980D02*
X111859523Y-56311742D01*
X111859523Y-56311742D02*
X111859523Y-56216504D01*
X111859523Y-56216504D02*
X111811904Y-56121266D01*
X111811904Y-56121266D02*
X111764285Y-56073647D01*
X111764285Y-56073647D02*
X111669047Y-56026028D01*
X111669047Y-56026028D02*
X111478571Y-55978409D01*
X111478571Y-55978409D02*
X111383333Y-55930790D01*
X111383333Y-55930790D02*
X111335714Y-55883171D01*
X111335714Y-55883171D02*
X111288095Y-55787933D01*
X111288095Y-55787933D02*
X111288095Y-55692695D01*
X111288095Y-55692695D02*
X111335714Y-55597457D01*
X111335714Y-55597457D02*
X111383333Y-55549838D01*
X111383333Y-55549838D02*
X111478571Y-55502219D01*
X111478571Y-55502219D02*
X111716666Y-55502219D01*
X111716666Y-55502219D02*
X111859523Y-55549838D01*
X112240476Y-55597457D02*
X112288095Y-55549838D01*
X112288095Y-55549838D02*
X112383333Y-55502219D01*
X112383333Y-55502219D02*
X112621428Y-55502219D01*
X112621428Y-55502219D02*
X112716666Y-55549838D01*
X112716666Y-55549838D02*
X112764285Y-55597457D01*
X112764285Y-55597457D02*
X112811904Y-55692695D01*
X112811904Y-55692695D02*
X112811904Y-55787933D01*
X112811904Y-55787933D02*
X112764285Y-55930790D01*
X112764285Y-55930790D02*
X112192857Y-56502219D01*
X112192857Y-56502219D02*
X112811904Y-56502219D01*
X106033333Y-56502219D02*
X105700000Y-56026028D01*
X105461905Y-56502219D02*
X105461905Y-55502219D01*
X105461905Y-55502219D02*
X105842857Y-55502219D01*
X105842857Y-55502219D02*
X105938095Y-55549838D01*
X105938095Y-55549838D02*
X105985714Y-55597457D01*
X105985714Y-55597457D02*
X106033333Y-55692695D01*
X106033333Y-55692695D02*
X106033333Y-55835552D01*
X106033333Y-55835552D02*
X105985714Y-55930790D01*
X105985714Y-55930790D02*
X105938095Y-55978409D01*
X105938095Y-55978409D02*
X105842857Y-56026028D01*
X105842857Y-56026028D02*
X105461905Y-56026028D01*
X106509524Y-56502219D02*
X106700000Y-56502219D01*
X106700000Y-56502219D02*
X106795238Y-56454600D01*
X106795238Y-56454600D02*
X106842857Y-56406980D01*
X106842857Y-56406980D02*
X106938095Y-56264123D01*
X106938095Y-56264123D02*
X106985714Y-56073647D01*
X106985714Y-56073647D02*
X106985714Y-55692695D01*
X106985714Y-55692695D02*
X106938095Y-55597457D01*
X106938095Y-55597457D02*
X106890476Y-55549838D01*
X106890476Y-55549838D02*
X106795238Y-55502219D01*
X106795238Y-55502219D02*
X106604762Y-55502219D01*
X106604762Y-55502219D02*
X106509524Y-55549838D01*
X106509524Y-55549838D02*
X106461905Y-55597457D01*
X106461905Y-55597457D02*
X106414286Y-55692695D01*
X106414286Y-55692695D02*
X106414286Y-55930790D01*
X106414286Y-55930790D02*
X106461905Y-56026028D01*
X106461905Y-56026028D02*
X106509524Y-56073647D01*
X106509524Y-56073647D02*
X106604762Y-56121266D01*
X106604762Y-56121266D02*
X106795238Y-56121266D01*
X106795238Y-56121266D02*
X106890476Y-56073647D01*
X106890476Y-56073647D02*
X106938095Y-56026028D01*
X106938095Y-56026028D02*
X106985714Y-55930790D01*
X101802219Y-88666666D02*
X101326028Y-88999999D01*
X101802219Y-89238094D02*
X100802219Y-89238094D01*
X100802219Y-89238094D02*
X100802219Y-88857142D01*
X100802219Y-88857142D02*
X100849838Y-88761904D01*
X100849838Y-88761904D02*
X100897457Y-88714285D01*
X100897457Y-88714285D02*
X100992695Y-88666666D01*
X100992695Y-88666666D02*
X101135552Y-88666666D01*
X101135552Y-88666666D02*
X101230790Y-88714285D01*
X101230790Y-88714285D02*
X101278409Y-88761904D01*
X101278409Y-88761904D02*
X101326028Y-88857142D01*
X101326028Y-88857142D02*
X101326028Y-89238094D01*
X101230790Y-88095237D02*
X101183171Y-88190475D01*
X101183171Y-88190475D02*
X101135552Y-88238094D01*
X101135552Y-88238094D02*
X101040314Y-88285713D01*
X101040314Y-88285713D02*
X100992695Y-88285713D01*
X100992695Y-88285713D02*
X100897457Y-88238094D01*
X100897457Y-88238094D02*
X100849838Y-88190475D01*
X100849838Y-88190475D02*
X100802219Y-88095237D01*
X100802219Y-88095237D02*
X100802219Y-87904761D01*
X100802219Y-87904761D02*
X100849838Y-87809523D01*
X100849838Y-87809523D02*
X100897457Y-87761904D01*
X100897457Y-87761904D02*
X100992695Y-87714285D01*
X100992695Y-87714285D02*
X101040314Y-87714285D01*
X101040314Y-87714285D02*
X101135552Y-87761904D01*
X101135552Y-87761904D02*
X101183171Y-87809523D01*
X101183171Y-87809523D02*
X101230790Y-87904761D01*
X101230790Y-87904761D02*
X101230790Y-88095237D01*
X101230790Y-88095237D02*
X101278409Y-88190475D01*
X101278409Y-88190475D02*
X101326028Y-88238094D01*
X101326028Y-88238094D02*
X101421266Y-88285713D01*
X101421266Y-88285713D02*
X101611742Y-88285713D01*
X101611742Y-88285713D02*
X101706980Y-88238094D01*
X101706980Y-88238094D02*
X101754600Y-88190475D01*
X101754600Y-88190475D02*
X101802219Y-88095237D01*
X101802219Y-88095237D02*
X101802219Y-87904761D01*
X101802219Y-87904761D02*
X101754600Y-87809523D01*
X101754600Y-87809523D02*
X101706980Y-87761904D01*
X101706980Y-87761904D02*
X101611742Y-87714285D01*
X101611742Y-87714285D02*
X101421266Y-87714285D01*
X101421266Y-87714285D02*
X101326028Y-87761904D01*
X101326028Y-87761904D02*
X101278409Y-87809523D01*
X101278409Y-87809523D02*
X101230790Y-87904761D01*
D10*
X118954663Y-79326189D02*
X117954663Y-79326189D01*
X118859424Y-78278571D02*
X118907044Y-78326190D01*
X118907044Y-78326190D02*
X118954663Y-78469047D01*
X118954663Y-78469047D02*
X118954663Y-78564285D01*
X118954663Y-78564285D02*
X118907044Y-78707142D01*
X118907044Y-78707142D02*
X118811805Y-78802380D01*
X118811805Y-78802380D02*
X118716567Y-78849999D01*
X118716567Y-78849999D02*
X118526091Y-78897618D01*
X118526091Y-78897618D02*
X118383234Y-78897618D01*
X118383234Y-78897618D02*
X118192758Y-78849999D01*
X118192758Y-78849999D02*
X118097520Y-78802380D01*
X118097520Y-78802380D02*
X118002282Y-78707142D01*
X118002282Y-78707142D02*
X117954663Y-78564285D01*
X117954663Y-78564285D02*
X117954663Y-78469047D01*
X117954663Y-78469047D02*
X118002282Y-78326190D01*
X118002282Y-78326190D02*
X118049901Y-78278571D01*
X118049901Y-77897618D02*
X118002282Y-77849999D01*
X118002282Y-77849999D02*
X117954663Y-77754761D01*
X117954663Y-77754761D02*
X117954663Y-77516666D01*
X117954663Y-77516666D02*
X118002282Y-77421428D01*
X118002282Y-77421428D02*
X118049901Y-77373809D01*
X118049901Y-77373809D02*
X118145139Y-77326190D01*
X118145139Y-77326190D02*
X118240377Y-77326190D01*
X118240377Y-77326190D02*
X118383234Y-77373809D01*
X118383234Y-77373809D02*
X118954663Y-77945237D01*
X118954663Y-77945237D02*
X118954663Y-77326190D01*
D11*
X112983333Y-75106980D02*
X112935714Y-75154600D01*
X112935714Y-75154600D02*
X112792857Y-75202219D01*
X112792857Y-75202219D02*
X112697619Y-75202219D01*
X112697619Y-75202219D02*
X112554762Y-75154600D01*
X112554762Y-75154600D02*
X112459524Y-75059361D01*
X112459524Y-75059361D02*
X112411905Y-74964123D01*
X112411905Y-74964123D02*
X112364286Y-74773647D01*
X112364286Y-74773647D02*
X112364286Y-74630790D01*
X112364286Y-74630790D02*
X112411905Y-74440314D01*
X112411905Y-74440314D02*
X112459524Y-74345076D01*
X112459524Y-74345076D02*
X112554762Y-74249838D01*
X112554762Y-74249838D02*
X112697619Y-74202219D01*
X112697619Y-74202219D02*
X112792857Y-74202219D01*
X112792857Y-74202219D02*
X112935714Y-74249838D01*
X112935714Y-74249838D02*
X112983333Y-74297457D01*
X113316667Y-74202219D02*
X113935714Y-74202219D01*
X113935714Y-74202219D02*
X113602381Y-74583171D01*
X113602381Y-74583171D02*
X113745238Y-74583171D01*
X113745238Y-74583171D02*
X113840476Y-74630790D01*
X113840476Y-74630790D02*
X113888095Y-74678409D01*
X113888095Y-74678409D02*
X113935714Y-74773647D01*
X113935714Y-74773647D02*
X113935714Y-75011742D01*
X113935714Y-75011742D02*
X113888095Y-75106980D01*
X113888095Y-75106980D02*
X113840476Y-75154600D01*
X113840476Y-75154600D02*
X113745238Y-75202219D01*
X113745238Y-75202219D02*
X113459524Y-75202219D01*
X113459524Y-75202219D02*
X113364286Y-75154600D01*
X113364286Y-75154600D02*
X113316667Y-75106980D01*
X109983333Y-85252219D02*
X109650000Y-84776028D01*
X109411905Y-85252219D02*
X109411905Y-84252219D01*
X109411905Y-84252219D02*
X109792857Y-84252219D01*
X109792857Y-84252219D02*
X109888095Y-84299838D01*
X109888095Y-84299838D02*
X109935714Y-84347457D01*
X109935714Y-84347457D02*
X109983333Y-84442695D01*
X109983333Y-84442695D02*
X109983333Y-84585552D01*
X109983333Y-84585552D02*
X109935714Y-84680790D01*
X109935714Y-84680790D02*
X109888095Y-84728409D01*
X109888095Y-84728409D02*
X109792857Y-84776028D01*
X109792857Y-84776028D02*
X109411905Y-84776028D01*
X110888095Y-84252219D02*
X110411905Y-84252219D01*
X110411905Y-84252219D02*
X110364286Y-84728409D01*
X110364286Y-84728409D02*
X110411905Y-84680790D01*
X110411905Y-84680790D02*
X110507143Y-84633171D01*
X110507143Y-84633171D02*
X110745238Y-84633171D01*
X110745238Y-84633171D02*
X110840476Y-84680790D01*
X110840476Y-84680790D02*
X110888095Y-84728409D01*
X110888095Y-84728409D02*
X110935714Y-84823647D01*
X110935714Y-84823647D02*
X110935714Y-85061742D01*
X110935714Y-85061742D02*
X110888095Y-85156980D01*
X110888095Y-85156980D02*
X110840476Y-85204600D01*
X110840476Y-85204600D02*
X110745238Y-85252219D01*
X110745238Y-85252219D02*
X110507143Y-85252219D01*
X110507143Y-85252219D02*
X110411905Y-85204600D01*
X110411905Y-85204600D02*
X110364286Y-85156980D01*
D10*
X96304663Y-81116666D02*
X95828472Y-81449999D01*
X96304663Y-81688094D02*
X95304663Y-81688094D01*
X95304663Y-81688094D02*
X95304663Y-81307142D01*
X95304663Y-81307142D02*
X95352282Y-81211904D01*
X95352282Y-81211904D02*
X95399901Y-81164285D01*
X95399901Y-81164285D02*
X95495139Y-81116666D01*
X95495139Y-81116666D02*
X95637996Y-81116666D01*
X95637996Y-81116666D02*
X95733234Y-81164285D01*
X95733234Y-81164285D02*
X95780853Y-81211904D01*
X95780853Y-81211904D02*
X95828472Y-81307142D01*
X95828472Y-81307142D02*
X95828472Y-81688094D01*
X96304663Y-80164285D02*
X96304663Y-80735713D01*
X96304663Y-80449999D02*
X95304663Y-80449999D01*
X95304663Y-80449999D02*
X95447520Y-80545237D01*
X95447520Y-80545237D02*
X95542758Y-80640475D01*
X95542758Y-80640475D02*
X95590377Y-80735713D01*
D11*
X117333333Y-85252219D02*
X117000000Y-84776028D01*
X116761905Y-85252219D02*
X116761905Y-84252219D01*
X116761905Y-84252219D02*
X117142857Y-84252219D01*
X117142857Y-84252219D02*
X117238095Y-84299838D01*
X117238095Y-84299838D02*
X117285714Y-84347457D01*
X117285714Y-84347457D02*
X117333333Y-84442695D01*
X117333333Y-84442695D02*
X117333333Y-84585552D01*
X117333333Y-84585552D02*
X117285714Y-84680790D01*
X117285714Y-84680790D02*
X117238095Y-84728409D01*
X117238095Y-84728409D02*
X117142857Y-84776028D01*
X117142857Y-84776028D02*
X116761905Y-84776028D01*
X118190476Y-84252219D02*
X118000000Y-84252219D01*
X118000000Y-84252219D02*
X117904762Y-84299838D01*
X117904762Y-84299838D02*
X117857143Y-84347457D01*
X117857143Y-84347457D02*
X117761905Y-84490314D01*
X117761905Y-84490314D02*
X117714286Y-84680790D01*
X117714286Y-84680790D02*
X117714286Y-85061742D01*
X117714286Y-85061742D02*
X117761905Y-85156980D01*
X117761905Y-85156980D02*
X117809524Y-85204600D01*
X117809524Y-85204600D02*
X117904762Y-85252219D01*
X117904762Y-85252219D02*
X118095238Y-85252219D01*
X118095238Y-85252219D02*
X118190476Y-85204600D01*
X118190476Y-85204600D02*
X118238095Y-85156980D01*
X118238095Y-85156980D02*
X118285714Y-85061742D01*
X118285714Y-85061742D02*
X118285714Y-84823647D01*
X118285714Y-84823647D02*
X118238095Y-84728409D01*
X118238095Y-84728409D02*
X118190476Y-84680790D01*
X118190476Y-84680790D02*
X118095238Y-84633171D01*
X118095238Y-84633171D02*
X117904762Y-84633171D01*
X117904762Y-84633171D02*
X117809524Y-84680790D01*
X117809524Y-84680790D02*
X117761905Y-84728409D01*
X117761905Y-84728409D02*
X117714286Y-84823647D01*
X113911905Y-92452219D02*
X113911905Y-91452219D01*
X113911905Y-91452219D02*
X114150000Y-91452219D01*
X114150000Y-91452219D02*
X114292857Y-91499838D01*
X114292857Y-91499838D02*
X114388095Y-91595076D01*
X114388095Y-91595076D02*
X114435714Y-91690314D01*
X114435714Y-91690314D02*
X114483333Y-91880790D01*
X114483333Y-91880790D02*
X114483333Y-92023647D01*
X114483333Y-92023647D02*
X114435714Y-92214123D01*
X114435714Y-92214123D02*
X114388095Y-92309361D01*
X114388095Y-92309361D02*
X114292857Y-92404600D01*
X114292857Y-92404600D02*
X114150000Y-92452219D01*
X114150000Y-92452219D02*
X113911905Y-92452219D01*
X115388095Y-91452219D02*
X114911905Y-91452219D01*
X114911905Y-91452219D02*
X114864286Y-91928409D01*
X114864286Y-91928409D02*
X114911905Y-91880790D01*
X114911905Y-91880790D02*
X115007143Y-91833171D01*
X115007143Y-91833171D02*
X115245238Y-91833171D01*
X115245238Y-91833171D02*
X115340476Y-91880790D01*
X115340476Y-91880790D02*
X115388095Y-91928409D01*
X115388095Y-91928409D02*
X115435714Y-92023647D01*
X115435714Y-92023647D02*
X115435714Y-92261742D01*
X115435714Y-92261742D02*
X115388095Y-92356980D01*
X115388095Y-92356980D02*
X115340476Y-92404600D01*
X115340476Y-92404600D02*
X115245238Y-92452219D01*
X115245238Y-92452219D02*
X115007143Y-92452219D01*
X115007143Y-92452219D02*
X114911905Y-92404600D01*
X114911905Y-92404600D02*
X114864286Y-92356980D01*
D10*
X111104663Y-71438094D02*
X110104663Y-71438094D01*
X110104663Y-71438094D02*
X110104663Y-71199999D01*
X110104663Y-71199999D02*
X110152282Y-71057142D01*
X110152282Y-71057142D02*
X110247520Y-70961904D01*
X110247520Y-70961904D02*
X110342758Y-70914285D01*
X110342758Y-70914285D02*
X110533234Y-70866666D01*
X110533234Y-70866666D02*
X110676091Y-70866666D01*
X110676091Y-70866666D02*
X110866567Y-70914285D01*
X110866567Y-70914285D02*
X110961805Y-70961904D01*
X110961805Y-70961904D02*
X111057044Y-71057142D01*
X111057044Y-71057142D02*
X111104663Y-71199999D01*
X111104663Y-71199999D02*
X111104663Y-71438094D01*
X110199901Y-70485713D02*
X110152282Y-70438094D01*
X110152282Y-70438094D02*
X110104663Y-70342856D01*
X110104663Y-70342856D02*
X110104663Y-70104761D01*
X110104663Y-70104761D02*
X110152282Y-70009523D01*
X110152282Y-70009523D02*
X110199901Y-69961904D01*
X110199901Y-69961904D02*
X110295139Y-69914285D01*
X110295139Y-69914285D02*
X110390377Y-69914285D01*
X110390377Y-69914285D02*
X110533234Y-69961904D01*
X110533234Y-69961904D02*
X111104663Y-70533332D01*
X111104663Y-70533332D02*
X111104663Y-69914285D01*
D11*
X92383333Y-83806980D02*
X92335714Y-83854600D01*
X92335714Y-83854600D02*
X92192857Y-83902219D01*
X92192857Y-83902219D02*
X92097619Y-83902219D01*
X92097619Y-83902219D02*
X91954762Y-83854600D01*
X91954762Y-83854600D02*
X91859524Y-83759361D01*
X91859524Y-83759361D02*
X91811905Y-83664123D01*
X91811905Y-83664123D02*
X91764286Y-83473647D01*
X91764286Y-83473647D02*
X91764286Y-83330790D01*
X91764286Y-83330790D02*
X91811905Y-83140314D01*
X91811905Y-83140314D02*
X91859524Y-83045076D01*
X91859524Y-83045076D02*
X91954762Y-82949838D01*
X91954762Y-82949838D02*
X92097619Y-82902219D01*
X92097619Y-82902219D02*
X92192857Y-82902219D01*
X92192857Y-82902219D02*
X92335714Y-82949838D01*
X92335714Y-82949838D02*
X92383333Y-82997457D01*
X93335714Y-83902219D02*
X92764286Y-83902219D01*
X93050000Y-83902219D02*
X93050000Y-82902219D01*
X93050000Y-82902219D02*
X92954762Y-83045076D01*
X92954762Y-83045076D02*
X92859524Y-83140314D01*
X92859524Y-83140314D02*
X92764286Y-83187933D01*
D10*
X91473810Y-56554663D02*
X91473810Y-55554663D01*
X92521428Y-56459424D02*
X92473809Y-56507044D01*
X92473809Y-56507044D02*
X92330952Y-56554663D01*
X92330952Y-56554663D02*
X92235714Y-56554663D01*
X92235714Y-56554663D02*
X92092857Y-56507044D01*
X92092857Y-56507044D02*
X91997619Y-56411805D01*
X91997619Y-56411805D02*
X91950000Y-56316567D01*
X91950000Y-56316567D02*
X91902381Y-56126091D01*
X91902381Y-56126091D02*
X91902381Y-55983234D01*
X91902381Y-55983234D02*
X91950000Y-55792758D01*
X91950000Y-55792758D02*
X91997619Y-55697520D01*
X91997619Y-55697520D02*
X92092857Y-55602282D01*
X92092857Y-55602282D02*
X92235714Y-55554663D01*
X92235714Y-55554663D02*
X92330952Y-55554663D01*
X92330952Y-55554663D02*
X92473809Y-55602282D01*
X92473809Y-55602282D02*
X92521428Y-55649901D01*
X93473809Y-56554663D02*
X92902381Y-56554663D01*
X93188095Y-56554663D02*
X93188095Y-55554663D01*
X93188095Y-55554663D02*
X93092857Y-55697520D01*
X93092857Y-55697520D02*
X92997619Y-55792758D01*
X92997619Y-55792758D02*
X92902381Y-55840377D01*
X100933333Y-79354663D02*
X100600000Y-78878472D01*
X100361905Y-79354663D02*
X100361905Y-78354663D01*
X100361905Y-78354663D02*
X100742857Y-78354663D01*
X100742857Y-78354663D02*
X100838095Y-78402282D01*
X100838095Y-78402282D02*
X100885714Y-78449901D01*
X100885714Y-78449901D02*
X100933333Y-78545139D01*
X100933333Y-78545139D02*
X100933333Y-78687996D01*
X100933333Y-78687996D02*
X100885714Y-78783234D01*
X100885714Y-78783234D02*
X100838095Y-78830853D01*
X100838095Y-78830853D02*
X100742857Y-78878472D01*
X100742857Y-78878472D02*
X100361905Y-78878472D01*
X101314286Y-78449901D02*
X101361905Y-78402282D01*
X101361905Y-78402282D02*
X101457143Y-78354663D01*
X101457143Y-78354663D02*
X101695238Y-78354663D01*
X101695238Y-78354663D02*
X101790476Y-78402282D01*
X101790476Y-78402282D02*
X101838095Y-78449901D01*
X101838095Y-78449901D02*
X101885714Y-78545139D01*
X101885714Y-78545139D02*
X101885714Y-78640377D01*
X101885714Y-78640377D02*
X101838095Y-78783234D01*
X101838095Y-78783234D02*
X101266667Y-79354663D01*
X101266667Y-79354663D02*
X101885714Y-79354663D01*
D11*
X100061905Y-92452218D02*
X100061905Y-91452218D01*
X100061905Y-91452218D02*
X100300000Y-91452218D01*
X100300000Y-91452218D02*
X100442857Y-91499837D01*
X100442857Y-91499837D02*
X100538095Y-91595075D01*
X100538095Y-91595075D02*
X100585714Y-91690313D01*
X100585714Y-91690313D02*
X100633333Y-91880789D01*
X100633333Y-91880789D02*
X100633333Y-92023646D01*
X100633333Y-92023646D02*
X100585714Y-92214122D01*
X100585714Y-92214122D02*
X100538095Y-92309360D01*
X100538095Y-92309360D02*
X100442857Y-92404599D01*
X100442857Y-92404599D02*
X100300000Y-92452218D01*
X100300000Y-92452218D02*
X100061905Y-92452218D01*
X101490476Y-91452218D02*
X101300000Y-91452218D01*
X101300000Y-91452218D02*
X101204762Y-91499837D01*
X101204762Y-91499837D02*
X101157143Y-91547456D01*
X101157143Y-91547456D02*
X101061905Y-91690313D01*
X101061905Y-91690313D02*
X101014286Y-91880789D01*
X101014286Y-91880789D02*
X101014286Y-92261741D01*
X101014286Y-92261741D02*
X101061905Y-92356979D01*
X101061905Y-92356979D02*
X101109524Y-92404599D01*
X101109524Y-92404599D02*
X101204762Y-92452218D01*
X101204762Y-92452218D02*
X101395238Y-92452218D01*
X101395238Y-92452218D02*
X101490476Y-92404599D01*
X101490476Y-92404599D02*
X101538095Y-92356979D01*
X101538095Y-92356979D02*
X101585714Y-92261741D01*
X101585714Y-92261741D02*
X101585714Y-92023646D01*
X101585714Y-92023646D02*
X101538095Y-91928408D01*
X101538095Y-91928408D02*
X101490476Y-91880789D01*
X101490476Y-91880789D02*
X101395238Y-91833170D01*
X101395238Y-91833170D02*
X101204762Y-91833170D01*
X101204762Y-91833170D02*
X101109524Y-91880789D01*
X101109524Y-91880789D02*
X101061905Y-91928408D01*
X101061905Y-91928408D02*
X101014286Y-92023646D01*
X115197457Y-87595238D02*
X115149838Y-87690476D01*
X115149838Y-87690476D02*
X115054600Y-87785714D01*
X115054600Y-87785714D02*
X114911742Y-87928571D01*
X114911742Y-87928571D02*
X114864123Y-88023809D01*
X114864123Y-88023809D02*
X114864123Y-88119047D01*
X115102219Y-88071428D02*
X115054600Y-88166666D01*
X115054600Y-88166666D02*
X114959361Y-88261904D01*
X114959361Y-88261904D02*
X114768885Y-88309523D01*
X114768885Y-88309523D02*
X114435552Y-88309523D01*
X114435552Y-88309523D02*
X114245076Y-88261904D01*
X114245076Y-88261904D02*
X114149838Y-88166666D01*
X114149838Y-88166666D02*
X114102219Y-88071428D01*
X114102219Y-88071428D02*
X114102219Y-87880952D01*
X114102219Y-87880952D02*
X114149838Y-87785714D01*
X114149838Y-87785714D02*
X114245076Y-87690476D01*
X114245076Y-87690476D02*
X114435552Y-87642857D01*
X114435552Y-87642857D02*
X114768885Y-87642857D01*
X114768885Y-87642857D02*
X114959361Y-87690476D01*
X114959361Y-87690476D02*
X115054600Y-87785714D01*
X115054600Y-87785714D02*
X115102219Y-87880952D01*
X115102219Y-87880952D02*
X115102219Y-88071428D01*
X115102219Y-86690476D02*
X115102219Y-87261904D01*
X115102219Y-86976190D02*
X114102219Y-86976190D01*
X114102219Y-86976190D02*
X114245076Y-87071428D01*
X114245076Y-87071428D02*
X114340314Y-87166666D01*
X114340314Y-87166666D02*
X114387933Y-87261904D01*
D10*
X114604663Y-65288094D02*
X113604663Y-65288094D01*
X113604663Y-65288094D02*
X113604663Y-65049999D01*
X113604663Y-65049999D02*
X113652282Y-64907142D01*
X113652282Y-64907142D02*
X113747520Y-64811904D01*
X113747520Y-64811904D02*
X113842758Y-64764285D01*
X113842758Y-64764285D02*
X114033234Y-64716666D01*
X114033234Y-64716666D02*
X114176091Y-64716666D01*
X114176091Y-64716666D02*
X114366567Y-64764285D01*
X114366567Y-64764285D02*
X114461805Y-64811904D01*
X114461805Y-64811904D02*
X114557044Y-64907142D01*
X114557044Y-64907142D02*
X114604663Y-65049999D01*
X114604663Y-65049999D02*
X114604663Y-65288094D01*
X113604663Y-64383332D02*
X113604663Y-63764285D01*
X113604663Y-63764285D02*
X113985615Y-64097618D01*
X113985615Y-64097618D02*
X113985615Y-63954761D01*
X113985615Y-63954761D02*
X114033234Y-63859523D01*
X114033234Y-63859523D02*
X114080853Y-63811904D01*
X114080853Y-63811904D02*
X114176091Y-63764285D01*
X114176091Y-63764285D02*
X114414186Y-63764285D01*
X114414186Y-63764285D02*
X114509424Y-63811904D01*
X114509424Y-63811904D02*
X114557044Y-63859523D01*
X114557044Y-63859523D02*
X114604663Y-63954761D01*
X114604663Y-63954761D02*
X114604663Y-64240475D01*
X114604663Y-64240475D02*
X114557044Y-64335713D01*
X114557044Y-64335713D02*
X114509424Y-64383332D01*
X114954663Y-73638094D02*
X113954663Y-73638094D01*
X113954663Y-73638094D02*
X113954663Y-73399999D01*
X113954663Y-73399999D02*
X114002282Y-73257142D01*
X114002282Y-73257142D02*
X114097520Y-73161904D01*
X114097520Y-73161904D02*
X114192758Y-73114285D01*
X114192758Y-73114285D02*
X114383234Y-73066666D01*
X114383234Y-73066666D02*
X114526091Y-73066666D01*
X114526091Y-73066666D02*
X114716567Y-73114285D01*
X114716567Y-73114285D02*
X114811805Y-73161904D01*
X114811805Y-73161904D02*
X114907044Y-73257142D01*
X114907044Y-73257142D02*
X114954663Y-73399999D01*
X114954663Y-73399999D02*
X114954663Y-73638094D01*
X114287996Y-72209523D02*
X114954663Y-72209523D01*
X113907044Y-72447618D02*
X114621329Y-72685713D01*
X114621329Y-72685713D02*
X114621329Y-72066666D01*
X117983333Y-62054663D02*
X117650000Y-61578472D01*
X117411905Y-62054663D02*
X117411905Y-61054663D01*
X117411905Y-61054663D02*
X117792857Y-61054663D01*
X117792857Y-61054663D02*
X117888095Y-61102282D01*
X117888095Y-61102282D02*
X117935714Y-61149901D01*
X117935714Y-61149901D02*
X117983333Y-61245139D01*
X117983333Y-61245139D02*
X117983333Y-61387996D01*
X117983333Y-61387996D02*
X117935714Y-61483234D01*
X117935714Y-61483234D02*
X117888095Y-61530853D01*
X117888095Y-61530853D02*
X117792857Y-61578472D01*
X117792857Y-61578472D02*
X117411905Y-61578472D01*
X118316667Y-61054663D02*
X118935714Y-61054663D01*
X118935714Y-61054663D02*
X118602381Y-61435615D01*
X118602381Y-61435615D02*
X118745238Y-61435615D01*
X118745238Y-61435615D02*
X118840476Y-61483234D01*
X118840476Y-61483234D02*
X118888095Y-61530853D01*
X118888095Y-61530853D02*
X118935714Y-61626091D01*
X118935714Y-61626091D02*
X118935714Y-61864186D01*
X118935714Y-61864186D02*
X118888095Y-61959424D01*
X118888095Y-61959424D02*
X118840476Y-62007044D01*
X118840476Y-62007044D02*
X118745238Y-62054663D01*
X118745238Y-62054663D02*
X118459524Y-62054663D01*
X118459524Y-62054663D02*
X118364286Y-62007044D01*
X118364286Y-62007044D02*
X118316667Y-61959424D01*
X119304663Y-75338094D02*
X118304663Y-75338094D01*
X118304663Y-75338094D02*
X118304663Y-75099999D01*
X118304663Y-75099999D02*
X118352282Y-74957142D01*
X118352282Y-74957142D02*
X118447520Y-74861904D01*
X118447520Y-74861904D02*
X118542758Y-74814285D01*
X118542758Y-74814285D02*
X118733234Y-74766666D01*
X118733234Y-74766666D02*
X118876091Y-74766666D01*
X118876091Y-74766666D02*
X119066567Y-74814285D01*
X119066567Y-74814285D02*
X119161805Y-74861904D01*
X119161805Y-74861904D02*
X119257044Y-74957142D01*
X119257044Y-74957142D02*
X119304663Y-75099999D01*
X119304663Y-75099999D02*
X119304663Y-75338094D01*
X119304663Y-73814285D02*
X119304663Y-74385713D01*
X119304663Y-74099999D02*
X118304663Y-74099999D01*
X118304663Y-74099999D02*
X118447520Y-74195237D01*
X118447520Y-74195237D02*
X118542758Y-74290475D01*
X118542758Y-74290475D02*
X118590377Y-74385713D01*
X114504663Y-68366666D02*
X114028472Y-68699999D01*
X114504663Y-68938094D02*
X113504663Y-68938094D01*
X113504663Y-68938094D02*
X113504663Y-68557142D01*
X113504663Y-68557142D02*
X113552282Y-68461904D01*
X113552282Y-68461904D02*
X113599901Y-68414285D01*
X113599901Y-68414285D02*
X113695139Y-68366666D01*
X113695139Y-68366666D02*
X113837996Y-68366666D01*
X113837996Y-68366666D02*
X113933234Y-68414285D01*
X113933234Y-68414285D02*
X113980853Y-68461904D01*
X113980853Y-68461904D02*
X114028472Y-68557142D01*
X114028472Y-68557142D02*
X114028472Y-68938094D01*
X113837996Y-67509523D02*
X114504663Y-67509523D01*
X113457044Y-67747618D02*
X114171329Y-67985713D01*
X114171329Y-67985713D02*
X114171329Y-67366666D01*
X123254663Y-74163333D02*
X123968948Y-74163333D01*
X123968948Y-74163333D02*
X124111805Y-74210952D01*
X124111805Y-74210952D02*
X124207044Y-74306190D01*
X124207044Y-74306190D02*
X124254663Y-74449047D01*
X124254663Y-74449047D02*
X124254663Y-74544285D01*
X124254663Y-73163333D02*
X124254663Y-73734761D01*
X124254663Y-73449047D02*
X123254663Y-73449047D01*
X123254663Y-73449047D02*
X123397520Y-73544285D01*
X123397520Y-73544285D02*
X123492758Y-73639523D01*
X123492758Y-73639523D02*
X123540377Y-73734761D01*
X96683333Y-79459424D02*
X96635714Y-79507044D01*
X96635714Y-79507044D02*
X96492857Y-79554663D01*
X96492857Y-79554663D02*
X96397619Y-79554663D01*
X96397619Y-79554663D02*
X96254762Y-79507044D01*
X96254762Y-79507044D02*
X96159524Y-79411805D01*
X96159524Y-79411805D02*
X96111905Y-79316567D01*
X96111905Y-79316567D02*
X96064286Y-79126091D01*
X96064286Y-79126091D02*
X96064286Y-78983234D01*
X96064286Y-78983234D02*
X96111905Y-78792758D01*
X96111905Y-78792758D02*
X96159524Y-78697520D01*
X96159524Y-78697520D02*
X96254762Y-78602282D01*
X96254762Y-78602282D02*
X96397619Y-78554663D01*
X96397619Y-78554663D02*
X96492857Y-78554663D01*
X96492857Y-78554663D02*
X96635714Y-78602282D01*
X96635714Y-78602282D02*
X96683333Y-78649901D01*
X97540476Y-78887996D02*
X97540476Y-79554663D01*
X97302381Y-78507044D02*
X97064286Y-79221329D01*
X97064286Y-79221329D02*
X97683333Y-79221329D01*
D11*
X107902219Y-88666666D02*
X107426028Y-88999999D01*
X107902219Y-89238094D02*
X106902219Y-89238094D01*
X106902219Y-89238094D02*
X106902219Y-88857142D01*
X106902219Y-88857142D02*
X106949838Y-88761904D01*
X106949838Y-88761904D02*
X106997457Y-88714285D01*
X106997457Y-88714285D02*
X107092695Y-88666666D01*
X107092695Y-88666666D02*
X107235552Y-88666666D01*
X107235552Y-88666666D02*
X107330790Y-88714285D01*
X107330790Y-88714285D02*
X107378409Y-88761904D01*
X107378409Y-88761904D02*
X107426028Y-88857142D01*
X107426028Y-88857142D02*
X107426028Y-89238094D01*
X106902219Y-88333332D02*
X106902219Y-87666666D01*
X106902219Y-87666666D02*
X107902219Y-88095237D01*
X92423333Y-82206980D02*
X92375714Y-82254600D01*
X92375714Y-82254600D02*
X92232857Y-82302219D01*
X92232857Y-82302219D02*
X92137619Y-82302219D01*
X92137619Y-82302219D02*
X91994762Y-82254600D01*
X91994762Y-82254600D02*
X91899524Y-82159361D01*
X91899524Y-82159361D02*
X91851905Y-82064123D01*
X91851905Y-82064123D02*
X91804286Y-81873647D01*
X91804286Y-81873647D02*
X91804286Y-81730790D01*
X91804286Y-81730790D02*
X91851905Y-81540314D01*
X91851905Y-81540314D02*
X91899524Y-81445076D01*
X91899524Y-81445076D02*
X91994762Y-81349838D01*
X91994762Y-81349838D02*
X92137619Y-81302219D01*
X92137619Y-81302219D02*
X92232857Y-81302219D01*
X92232857Y-81302219D02*
X92375714Y-81349838D01*
X92375714Y-81349838D02*
X92423333Y-81397457D01*
X92804286Y-81397457D02*
X92851905Y-81349838D01*
X92851905Y-81349838D02*
X92947143Y-81302219D01*
X92947143Y-81302219D02*
X93185238Y-81302219D01*
X93185238Y-81302219D02*
X93280476Y-81349838D01*
X93280476Y-81349838D02*
X93328095Y-81397457D01*
X93328095Y-81397457D02*
X93375714Y-81492695D01*
X93375714Y-81492695D02*
X93375714Y-81587933D01*
X93375714Y-81587933D02*
X93328095Y-81730790D01*
X93328095Y-81730790D02*
X92756667Y-82302219D01*
X92756667Y-82302219D02*
X93375714Y-82302219D01*
X115083333Y-83106980D02*
X115035714Y-83154600D01*
X115035714Y-83154600D02*
X114892857Y-83202219D01*
X114892857Y-83202219D02*
X114797619Y-83202219D01*
X114797619Y-83202219D02*
X114654762Y-83154600D01*
X114654762Y-83154600D02*
X114559524Y-83059361D01*
X114559524Y-83059361D02*
X114511905Y-82964123D01*
X114511905Y-82964123D02*
X114464286Y-82773647D01*
X114464286Y-82773647D02*
X114464286Y-82630790D01*
X114464286Y-82630790D02*
X114511905Y-82440314D01*
X114511905Y-82440314D02*
X114559524Y-82345076D01*
X114559524Y-82345076D02*
X114654762Y-82249838D01*
X114654762Y-82249838D02*
X114797619Y-82202219D01*
X114797619Y-82202219D02*
X114892857Y-82202219D01*
X114892857Y-82202219D02*
X115035714Y-82249838D01*
X115035714Y-82249838D02*
X115083333Y-82297457D01*
X115988095Y-82202219D02*
X115511905Y-82202219D01*
X115511905Y-82202219D02*
X115464286Y-82678409D01*
X115464286Y-82678409D02*
X115511905Y-82630790D01*
X115511905Y-82630790D02*
X115607143Y-82583171D01*
X115607143Y-82583171D02*
X115845238Y-82583171D01*
X115845238Y-82583171D02*
X115940476Y-82630790D01*
X115940476Y-82630790D02*
X115988095Y-82678409D01*
X115988095Y-82678409D02*
X116035714Y-82773647D01*
X116035714Y-82773647D02*
X116035714Y-83011742D01*
X116035714Y-83011742D02*
X115988095Y-83106980D01*
X115988095Y-83106980D02*
X115940476Y-83154600D01*
X115940476Y-83154600D02*
X115845238Y-83202219D01*
X115845238Y-83202219D02*
X115607143Y-83202219D01*
X115607143Y-83202219D02*
X115511905Y-83154600D01*
X115511905Y-83154600D02*
X115464286Y-83106980D01*
X109067000Y-45231000D02*
G75*
G02*
X108867000Y-45231000I-100000J0D01*
G01*
X108867000Y-45231000D02*
G75*
G02*
X109067000Y-45231000I100000J0D01*
G01*
X114425000Y-80150000D02*
G75*
G02*
X114225000Y-80150000I-100000J0D01*
G01*
X114225000Y-80150000D02*
G75*
G02*
X114425000Y-80150000I100000J0D01*
G01*
D12*
X109229962Y-91123856D02*
X111161813Y-90606218D01*
X109837257Y-92617574D02*
X111382739Y-92203463D01*
D11*
X113195751Y-91294118D02*
G75*
G02*
X112995753Y-91294118I-99999J0D01*
G01*
X112995753Y-91294118D02*
G75*
G02*
X113195751Y-91294118I99999J0D01*
G01*
D13*
X113482700Y-71500000D02*
X112881256Y-71500000D01*
X112881256Y-69898716D01*
X113482700Y-69898716D01*
X113482700Y-71500000D01*
G36*
X113482700Y-71500000D02*
G01*
X112881256Y-71500000D01*
X112881256Y-69898716D01*
X113482700Y-69898716D01*
X113482700Y-71500000D01*
G37*
D11*
X91540000Y-77600000D02*
G75*
G02*
X91340000Y-77600000I-100000J0D01*
G01*
X91340000Y-77600000D02*
G75*
G02*
X91540000Y-77600000I100000J0D01*
G01*
D12*
X103617261Y-92203463D02*
X105162743Y-92617574D01*
X103838187Y-90606218D02*
X105770038Y-91123856D01*
D11*
X107200929Y-92686564D02*
G75*
G02*
X107000929Y-92686564I-100000J0D01*
G01*
X107000929Y-92686564D02*
G75*
G02*
X107200929Y-92686564I100000J0D01*
G01*
X115323000Y-64702400D02*
X115854000Y-64702400D01*
X115927000Y-72747600D02*
X115396000Y-72747600D01*
X117373000Y-74752400D02*
X117904000Y-74752400D01*
%LPC*%
D14*
X109050000Y-46700000D03*
X109050000Y-53900000D03*
X112050000Y-46700000D03*
X112050000Y-53900000D03*
D15*
X107950000Y-56050000D03*
X109050000Y-56050000D03*
D16*
X102900000Y-89050000D03*
X102900000Y-87950000D03*
D17*
X92500000Y-42500000D03*
D18*
X92500000Y-42500000D03*
D19*
X114900000Y-79850000D03*
X115550000Y-79850000D03*
X116200000Y-79850000D03*
X116850000Y-79850000D03*
X116850000Y-76850000D03*
X116200000Y-76850000D03*
X115550000Y-76850000D03*
X114900000Y-76850000D03*
D20*
X115875000Y-78350000D03*
D21*
X114890000Y-74750000D03*
X115810000Y-74750000D03*
D15*
X113050000Y-84800000D03*
X111950000Y-84800000D03*
D16*
X94400000Y-80400000D03*
X94400000Y-81500000D03*
D15*
X114550000Y-84800000D03*
X115650000Y-84800000D03*
D17*
X122500000Y-92500000D03*
D18*
X122500000Y-92500000D03*
D17*
X92500000Y-92500000D03*
D18*
X92500000Y-92500000D03*
D22*
X108906222Y-92427050D03*
X112093778Y-91572950D03*
D23*
X112200000Y-70700000D03*
X115476600Y-70700000D03*
D21*
X93050000Y-80300000D03*
X92130000Y-80300000D03*
D24*
X91430000Y-76250000D03*
X92700000Y-76250000D03*
X93970000Y-76250000D03*
X95240000Y-76250000D03*
X96510000Y-76250000D03*
X97780000Y-76250000D03*
X99050000Y-76250000D03*
X100320000Y-76250000D03*
X101590000Y-76250000D03*
X102860000Y-76250000D03*
X104130000Y-76250000D03*
X105400000Y-76250000D03*
X106670000Y-76250000D03*
X107940000Y-76250000D03*
X107940000Y-58750000D03*
X106670000Y-58750000D03*
X105400000Y-58750000D03*
X104130000Y-58750000D03*
X102860000Y-58750000D03*
X101590000Y-58750000D03*
X100320000Y-58750000D03*
X99050000Y-58750000D03*
X97780000Y-58750000D03*
X96510000Y-58750000D03*
X95240000Y-58750000D03*
X93970000Y-58750000D03*
X92700000Y-58750000D03*
X91430000Y-58750000D03*
D25*
X97150000Y-69005000D03*
X95900000Y-70255000D03*
X97150000Y-70255000D03*
X98400000Y-70255000D03*
X98400000Y-69005000D03*
X98400000Y-67755000D03*
X97150000Y-67755000D03*
X95900000Y-67755000D03*
X95900000Y-69005000D03*
D15*
X102850000Y-78900000D03*
X103950000Y-78900000D03*
D26*
X102906222Y-91572950D03*
X106093778Y-92427050D03*
D27*
X113040000Y-86450000D03*
X111140000Y-86450000D03*
X112090000Y-88550000D03*
D28*
X115600000Y-65100000D03*
X115600000Y-64000000D03*
X115650000Y-72350000D03*
X115650000Y-73450000D03*
D15*
X119800000Y-61600000D03*
X120900000Y-61600000D03*
D28*
X117650000Y-75150000D03*
X117650000Y-74050000D03*
D16*
X115550000Y-68750000D03*
X115550000Y-67650000D03*
D29*
X118720000Y-70390000D03*
X118720000Y-64610000D03*
D30*
X117585000Y-70700000D03*
D31*
X117610000Y-69900000D03*
D32*
X117645000Y-68750000D03*
X117645000Y-67750000D03*
X117645000Y-67250000D03*
X117645000Y-66250000D03*
D30*
X117585000Y-64300000D03*
D31*
X117610000Y-65100000D03*
D32*
X117645000Y-65750000D03*
X117645000Y-66750000D03*
X117645000Y-68250000D03*
X117645000Y-69250000D03*
D33*
X118220000Y-71820000D03*
D34*
X122400000Y-71820000D03*
X122400000Y-63180000D03*
D33*
X118220000Y-63180000D03*
D21*
X94390000Y-79150000D03*
X95310000Y-79150000D03*
D17*
X122500000Y-42500000D03*
D18*
X122500000Y-42500000D03*
D16*
X108900000Y-89050000D03*
X108900000Y-87950000D03*
D21*
X93050000Y-79050000D03*
X92130000Y-79050000D03*
X114890000Y-81300000D03*
X115810000Y-81300000D03*
D35*
X96130000Y-46920000D03*
D36*
X102500000Y-85485000D03*
X102500000Y-47515000D03*
D37*
X115350000Y-58100000D03*
D38*
X115350000Y-53600000D03*
X115350000Y-49100000D03*
X121850000Y-49100000D03*
X121850000Y-53600000D03*
X121850000Y-58100000D03*
%LPD*%
M02*
