G04 #@! TF.GenerationSoftware,KiCad,Pcbnew,9.0.2*
G04 #@! TF.CreationDate,2025-06-23T20:15:19+02:00*
G04 #@! TF.ProjectId,coral-ir,636f7261-6c2d-4697-922e-6b696361645f,rev?*
G04 #@! TF.SameCoordinates,Original*
G04 #@! TF.FileFunction,Legend,Top*
G04 #@! TF.FilePolarity,Positive*
%FSLAX46Y46*%
G04 Gerber Fmt 4.6, Leading zero omitted, Abs format (unit mm)*
G04 Created by KiCad (PCBNEW 9.0.2) date 2025-06-23 20:15:19*
%MOMM*%
%LPD*%
G01*
G04 APERTURE LIST*
G04 Aperture macros list*
%AMRoundRect*
0 Rectangle with rounded corners*
0 $1 Rounding radius*
0 $2 $3 $4 $5 $6 $7 $8 $9 X,Y pos of 4 corners*
0 Add a 4 corners polygon primitive as box body*
4,1,4,$2,$3,$4,$5,$6,$7,$8,$9,$2,$3,0*
0 Add four circle primitives for the rounded corners*
1,1,$1+$1,$2,$3*
1,1,$1+$1,$4,$5*
1,1,$1+$1,$6,$7*
1,1,$1+$1,$8,$9*
0 Add four rect primitives between the rounded corners*
20,1,$1+$1,$2,$3,$4,$5,0*
20,1,$1+$1,$4,$5,$6,$7,0*
20,1,$1+$1,$6,$7,$8,$9,0*
20,1,$1+$1,$8,$9,$2,$3,0*%
G04 Aperture macros list end*
%ADD10C,0.153000*%
%ADD11C,0.200000*%
%ADD12C,0.127000*%
%ADD13C,0.010000*%
%ADD14R,0.600000X0.750000*%
%ADD15C,2.600000*%
%ADD16C,3.800000*%
%ADD17R,0.350000X0.800000*%
%ADD18R,2.500000X1.750000*%
%ADD19R,0.600000X0.620000*%
%ADD20R,0.750000X0.600000*%
%ADD21RoundRect,0.102000X0.279375X0.696024X-0.589958X0.463087X-0.279375X-0.696024X0.589958X-0.463087X0*%
%ADD22R,1.219200X0.914400*%
%ADD23R,0.900000X1.500000*%
%ADD24R,0.800000X0.800000*%
%ADD25RoundRect,0.102000X0.589958X0.463087X-0.279375X0.696024X-0.589958X-0.463087X0.279375X-0.696024X0*%
%ADD26RoundRect,0.150000X-0.150000X0.587500X-0.150000X-0.587500X0.150000X-0.587500X0.150000X0.587500X0*%
%ADD27R,0.320000X0.430000*%
%ADD28R,0.430000X0.320000*%
%ADD29C,0.650000*%
%ADD30R,1.030000X0.600000*%
%ADD31R,1.080000X0.600000*%
%ADD32R,1.150000X0.300000*%
%ADD33O,2.100000X1.050000*%
%ADD34O,2.000000X1.000000*%
%ADD35C,1.270000*%
%ADD36C,2.409000*%
G04 APERTURE END LIST*
D10*
X113445237Y-42757044D02*
X113349999Y-42804663D01*
X113349999Y-42804663D02*
X113159523Y-42804663D01*
X113159523Y-42804663D02*
X113064285Y-42757044D01*
X113064285Y-42757044D02*
X113016666Y-42709424D01*
X113016666Y-42709424D02*
X112969047Y-42614186D01*
X112969047Y-42614186D02*
X112969047Y-42328472D01*
X112969047Y-42328472D02*
X113016666Y-42233234D01*
X113016666Y-42233234D02*
X113064285Y-42185615D01*
X113064285Y-42185615D02*
X113159523Y-42137996D01*
X113159523Y-42137996D02*
X113349999Y-42137996D01*
X113349999Y-42137996D02*
X113445237Y-42185615D01*
X114016666Y-42804663D02*
X113921428Y-42757044D01*
X113921428Y-42757044D02*
X113873809Y-42709424D01*
X113873809Y-42709424D02*
X113826190Y-42614186D01*
X113826190Y-42614186D02*
X113826190Y-42328472D01*
X113826190Y-42328472D02*
X113873809Y-42233234D01*
X113873809Y-42233234D02*
X113921428Y-42185615D01*
X113921428Y-42185615D02*
X114016666Y-42137996D01*
X114016666Y-42137996D02*
X114159523Y-42137996D01*
X114159523Y-42137996D02*
X114254761Y-42185615D01*
X114254761Y-42185615D02*
X114302380Y-42233234D01*
X114302380Y-42233234D02*
X114349999Y-42328472D01*
X114349999Y-42328472D02*
X114349999Y-42614186D01*
X114349999Y-42614186D02*
X114302380Y-42709424D01*
X114302380Y-42709424D02*
X114254761Y-42757044D01*
X114254761Y-42757044D02*
X114159523Y-42804663D01*
X114159523Y-42804663D02*
X114016666Y-42804663D01*
X114778571Y-42804663D02*
X114778571Y-42137996D01*
X114778571Y-42328472D02*
X114826190Y-42233234D01*
X114826190Y-42233234D02*
X114873809Y-42185615D01*
X114873809Y-42185615D02*
X114969047Y-42137996D01*
X114969047Y-42137996D02*
X115064285Y-42137996D01*
X115826190Y-42804663D02*
X115826190Y-42280853D01*
X115826190Y-42280853D02*
X115778571Y-42185615D01*
X115778571Y-42185615D02*
X115683333Y-42137996D01*
X115683333Y-42137996D02*
X115492857Y-42137996D01*
X115492857Y-42137996D02*
X115397619Y-42185615D01*
X115826190Y-42757044D02*
X115730952Y-42804663D01*
X115730952Y-42804663D02*
X115492857Y-42804663D01*
X115492857Y-42804663D02*
X115397619Y-42757044D01*
X115397619Y-42757044D02*
X115350000Y-42661805D01*
X115350000Y-42661805D02*
X115350000Y-42566567D01*
X115350000Y-42566567D02*
X115397619Y-42471329D01*
X115397619Y-42471329D02*
X115492857Y-42423710D01*
X115492857Y-42423710D02*
X115730952Y-42423710D01*
X115730952Y-42423710D02*
X115826190Y-42376091D01*
X116445238Y-42804663D02*
X116350000Y-42757044D01*
X116350000Y-42757044D02*
X116302381Y-42661805D01*
X116302381Y-42661805D02*
X116302381Y-41804663D01*
X116826191Y-42423710D02*
X117588096Y-42423710D01*
X118064286Y-42804663D02*
X118064286Y-42137996D01*
X118064286Y-41804663D02*
X118016667Y-41852282D01*
X118016667Y-41852282D02*
X118064286Y-41899901D01*
X118064286Y-41899901D02*
X118111905Y-41852282D01*
X118111905Y-41852282D02*
X118064286Y-41804663D01*
X118064286Y-41804663D02*
X118064286Y-41899901D01*
X118540476Y-42804663D02*
X118540476Y-42137996D01*
X118540476Y-42328472D02*
X118588095Y-42233234D01*
X118588095Y-42233234D02*
X118635714Y-42185615D01*
X118635714Y-42185615D02*
X118730952Y-42137996D01*
X118730952Y-42137996D02*
X118826190Y-42137996D01*
D11*
X103352219Y-86316666D02*
X102876028Y-86649999D01*
X103352219Y-86888094D02*
X102352219Y-86888094D01*
X102352219Y-86888094D02*
X102352219Y-86507142D01*
X102352219Y-86507142D02*
X102399838Y-86411904D01*
X102399838Y-86411904D02*
X102447457Y-86364285D01*
X102447457Y-86364285D02*
X102542695Y-86316666D01*
X102542695Y-86316666D02*
X102685552Y-86316666D01*
X102685552Y-86316666D02*
X102780790Y-86364285D01*
X102780790Y-86364285D02*
X102828409Y-86411904D01*
X102828409Y-86411904D02*
X102876028Y-86507142D01*
X102876028Y-86507142D02*
X102876028Y-86888094D01*
X102780790Y-85745237D02*
X102733171Y-85840475D01*
X102733171Y-85840475D02*
X102685552Y-85888094D01*
X102685552Y-85888094D02*
X102590314Y-85935713D01*
X102590314Y-85935713D02*
X102542695Y-85935713D01*
X102542695Y-85935713D02*
X102447457Y-85888094D01*
X102447457Y-85888094D02*
X102399838Y-85840475D01*
X102399838Y-85840475D02*
X102352219Y-85745237D01*
X102352219Y-85745237D02*
X102352219Y-85554761D01*
X102352219Y-85554761D02*
X102399838Y-85459523D01*
X102399838Y-85459523D02*
X102447457Y-85411904D01*
X102447457Y-85411904D02*
X102542695Y-85364285D01*
X102542695Y-85364285D02*
X102590314Y-85364285D01*
X102590314Y-85364285D02*
X102685552Y-85411904D01*
X102685552Y-85411904D02*
X102733171Y-85459523D01*
X102733171Y-85459523D02*
X102780790Y-85554761D01*
X102780790Y-85554761D02*
X102780790Y-85745237D01*
X102780790Y-85745237D02*
X102828409Y-85840475D01*
X102828409Y-85840475D02*
X102876028Y-85888094D01*
X102876028Y-85888094D02*
X102971266Y-85935713D01*
X102971266Y-85935713D02*
X103161742Y-85935713D01*
X103161742Y-85935713D02*
X103256980Y-85888094D01*
X103256980Y-85888094D02*
X103304600Y-85840475D01*
X103304600Y-85840475D02*
X103352219Y-85745237D01*
X103352219Y-85745237D02*
X103352219Y-85554761D01*
X103352219Y-85554761D02*
X103304600Y-85459523D01*
X103304600Y-85459523D02*
X103256980Y-85411904D01*
X103256980Y-85411904D02*
X103161742Y-85364285D01*
X103161742Y-85364285D02*
X102971266Y-85364285D01*
X102971266Y-85364285D02*
X102876028Y-85411904D01*
X102876028Y-85411904D02*
X102828409Y-85459523D01*
X102828409Y-85459523D02*
X102780790Y-85554761D01*
D10*
X118954663Y-79326189D02*
X117954663Y-79326189D01*
X118859424Y-78278571D02*
X118907044Y-78326190D01*
X118907044Y-78326190D02*
X118954663Y-78469047D01*
X118954663Y-78469047D02*
X118954663Y-78564285D01*
X118954663Y-78564285D02*
X118907044Y-78707142D01*
X118907044Y-78707142D02*
X118811805Y-78802380D01*
X118811805Y-78802380D02*
X118716567Y-78849999D01*
X118716567Y-78849999D02*
X118526091Y-78897618D01*
X118526091Y-78897618D02*
X118383234Y-78897618D01*
X118383234Y-78897618D02*
X118192758Y-78849999D01*
X118192758Y-78849999D02*
X118097520Y-78802380D01*
X118097520Y-78802380D02*
X118002282Y-78707142D01*
X118002282Y-78707142D02*
X117954663Y-78564285D01*
X117954663Y-78564285D02*
X117954663Y-78469047D01*
X117954663Y-78469047D02*
X118002282Y-78326190D01*
X118002282Y-78326190D02*
X118049901Y-78278571D01*
X118049901Y-77897618D02*
X118002282Y-77849999D01*
X118002282Y-77849999D02*
X117954663Y-77754761D01*
X117954663Y-77754761D02*
X117954663Y-77516666D01*
X117954663Y-77516666D02*
X118002282Y-77421428D01*
X118002282Y-77421428D02*
X118049901Y-77373809D01*
X118049901Y-77373809D02*
X118145139Y-77326190D01*
X118145139Y-77326190D02*
X118240377Y-77326190D01*
X118240377Y-77326190D02*
X118383234Y-77373809D01*
X118383234Y-77373809D02*
X118954663Y-77945237D01*
X118954663Y-77945237D02*
X118954663Y-77326190D01*
D11*
X111883333Y-75906980D02*
X111835714Y-75954600D01*
X111835714Y-75954600D02*
X111692857Y-76002219D01*
X111692857Y-76002219D02*
X111597619Y-76002219D01*
X111597619Y-76002219D02*
X111454762Y-75954600D01*
X111454762Y-75954600D02*
X111359524Y-75859361D01*
X111359524Y-75859361D02*
X111311905Y-75764123D01*
X111311905Y-75764123D02*
X111264286Y-75573647D01*
X111264286Y-75573647D02*
X111264286Y-75430790D01*
X111264286Y-75430790D02*
X111311905Y-75240314D01*
X111311905Y-75240314D02*
X111359524Y-75145076D01*
X111359524Y-75145076D02*
X111454762Y-75049838D01*
X111454762Y-75049838D02*
X111597619Y-75002219D01*
X111597619Y-75002219D02*
X111692857Y-75002219D01*
X111692857Y-75002219D02*
X111835714Y-75049838D01*
X111835714Y-75049838D02*
X111883333Y-75097457D01*
X112216667Y-75002219D02*
X112835714Y-75002219D01*
X112835714Y-75002219D02*
X112502381Y-75383171D01*
X112502381Y-75383171D02*
X112645238Y-75383171D01*
X112645238Y-75383171D02*
X112740476Y-75430790D01*
X112740476Y-75430790D02*
X112788095Y-75478409D01*
X112788095Y-75478409D02*
X112835714Y-75573647D01*
X112835714Y-75573647D02*
X112835714Y-75811742D01*
X112835714Y-75811742D02*
X112788095Y-75906980D01*
X112788095Y-75906980D02*
X112740476Y-75954600D01*
X112740476Y-75954600D02*
X112645238Y-76002219D01*
X112645238Y-76002219D02*
X112359524Y-76002219D01*
X112359524Y-76002219D02*
X112264286Y-75954600D01*
X112264286Y-75954600D02*
X112216667Y-75906980D01*
X109983333Y-85252219D02*
X109650000Y-84776028D01*
X109411905Y-85252219D02*
X109411905Y-84252219D01*
X109411905Y-84252219D02*
X109792857Y-84252219D01*
X109792857Y-84252219D02*
X109888095Y-84299838D01*
X109888095Y-84299838D02*
X109935714Y-84347457D01*
X109935714Y-84347457D02*
X109983333Y-84442695D01*
X109983333Y-84442695D02*
X109983333Y-84585552D01*
X109983333Y-84585552D02*
X109935714Y-84680790D01*
X109935714Y-84680790D02*
X109888095Y-84728409D01*
X109888095Y-84728409D02*
X109792857Y-84776028D01*
X109792857Y-84776028D02*
X109411905Y-84776028D01*
X110888095Y-84252219D02*
X110411905Y-84252219D01*
X110411905Y-84252219D02*
X110364286Y-84728409D01*
X110364286Y-84728409D02*
X110411905Y-84680790D01*
X110411905Y-84680790D02*
X110507143Y-84633171D01*
X110507143Y-84633171D02*
X110745238Y-84633171D01*
X110745238Y-84633171D02*
X110840476Y-84680790D01*
X110840476Y-84680790D02*
X110888095Y-84728409D01*
X110888095Y-84728409D02*
X110935714Y-84823647D01*
X110935714Y-84823647D02*
X110935714Y-85061742D01*
X110935714Y-85061742D02*
X110888095Y-85156980D01*
X110888095Y-85156980D02*
X110840476Y-85204600D01*
X110840476Y-85204600D02*
X110745238Y-85252219D01*
X110745238Y-85252219D02*
X110507143Y-85252219D01*
X110507143Y-85252219D02*
X110411905Y-85204600D01*
X110411905Y-85204600D02*
X110364286Y-85156980D01*
D10*
X96304663Y-81116666D02*
X95828472Y-81449999D01*
X96304663Y-81688094D02*
X95304663Y-81688094D01*
X95304663Y-81688094D02*
X95304663Y-81307142D01*
X95304663Y-81307142D02*
X95352282Y-81211904D01*
X95352282Y-81211904D02*
X95399901Y-81164285D01*
X95399901Y-81164285D02*
X95495139Y-81116666D01*
X95495139Y-81116666D02*
X95637996Y-81116666D01*
X95637996Y-81116666D02*
X95733234Y-81164285D01*
X95733234Y-81164285D02*
X95780853Y-81211904D01*
X95780853Y-81211904D02*
X95828472Y-81307142D01*
X95828472Y-81307142D02*
X95828472Y-81688094D01*
X96304663Y-80164285D02*
X96304663Y-80735713D01*
X96304663Y-80449999D02*
X95304663Y-80449999D01*
X95304663Y-80449999D02*
X95447520Y-80545237D01*
X95447520Y-80545237D02*
X95542758Y-80640475D01*
X95542758Y-80640475D02*
X95590377Y-80735713D01*
D11*
X117333333Y-85252219D02*
X117000000Y-84776028D01*
X116761905Y-85252219D02*
X116761905Y-84252219D01*
X116761905Y-84252219D02*
X117142857Y-84252219D01*
X117142857Y-84252219D02*
X117238095Y-84299838D01*
X117238095Y-84299838D02*
X117285714Y-84347457D01*
X117285714Y-84347457D02*
X117333333Y-84442695D01*
X117333333Y-84442695D02*
X117333333Y-84585552D01*
X117333333Y-84585552D02*
X117285714Y-84680790D01*
X117285714Y-84680790D02*
X117238095Y-84728409D01*
X117238095Y-84728409D02*
X117142857Y-84776028D01*
X117142857Y-84776028D02*
X116761905Y-84776028D01*
X118190476Y-84252219D02*
X118000000Y-84252219D01*
X118000000Y-84252219D02*
X117904762Y-84299838D01*
X117904762Y-84299838D02*
X117857143Y-84347457D01*
X117857143Y-84347457D02*
X117761905Y-84490314D01*
X117761905Y-84490314D02*
X117714286Y-84680790D01*
X117714286Y-84680790D02*
X117714286Y-85061742D01*
X117714286Y-85061742D02*
X117761905Y-85156980D01*
X117761905Y-85156980D02*
X117809524Y-85204600D01*
X117809524Y-85204600D02*
X117904762Y-85252219D01*
X117904762Y-85252219D02*
X118095238Y-85252219D01*
X118095238Y-85252219D02*
X118190476Y-85204600D01*
X118190476Y-85204600D02*
X118238095Y-85156980D01*
X118238095Y-85156980D02*
X118285714Y-85061742D01*
X118285714Y-85061742D02*
X118285714Y-84823647D01*
X118285714Y-84823647D02*
X118238095Y-84728409D01*
X118238095Y-84728409D02*
X118190476Y-84680790D01*
X118190476Y-84680790D02*
X118095238Y-84633171D01*
X118095238Y-84633171D02*
X117904762Y-84633171D01*
X117904762Y-84633171D02*
X117809524Y-84680790D01*
X117809524Y-84680790D02*
X117761905Y-84728409D01*
X117761905Y-84728409D02*
X117714286Y-84823647D01*
D10*
X113911905Y-92454663D02*
X113911905Y-91454663D01*
X113911905Y-91454663D02*
X114150000Y-91454663D01*
X114150000Y-91454663D02*
X114292857Y-91502282D01*
X114292857Y-91502282D02*
X114388095Y-91597520D01*
X114388095Y-91597520D02*
X114435714Y-91692758D01*
X114435714Y-91692758D02*
X114483333Y-91883234D01*
X114483333Y-91883234D02*
X114483333Y-92026091D01*
X114483333Y-92026091D02*
X114435714Y-92216567D01*
X114435714Y-92216567D02*
X114388095Y-92311805D01*
X114388095Y-92311805D02*
X114292857Y-92407044D01*
X114292857Y-92407044D02*
X114150000Y-92454663D01*
X114150000Y-92454663D02*
X113911905Y-92454663D01*
X115388095Y-91454663D02*
X114911905Y-91454663D01*
X114911905Y-91454663D02*
X114864286Y-91930853D01*
X114864286Y-91930853D02*
X114911905Y-91883234D01*
X114911905Y-91883234D02*
X115007143Y-91835615D01*
X115007143Y-91835615D02*
X115245238Y-91835615D01*
X115245238Y-91835615D02*
X115340476Y-91883234D01*
X115340476Y-91883234D02*
X115388095Y-91930853D01*
X115388095Y-91930853D02*
X115435714Y-92026091D01*
X115435714Y-92026091D02*
X115435714Y-92264186D01*
X115435714Y-92264186D02*
X115388095Y-92359424D01*
X115388095Y-92359424D02*
X115340476Y-92407044D01*
X115340476Y-92407044D02*
X115245238Y-92454663D01*
X115245238Y-92454663D02*
X115007143Y-92454663D01*
X115007143Y-92454663D02*
X114911905Y-92407044D01*
X114911905Y-92407044D02*
X114864286Y-92359424D01*
X113304663Y-73038094D02*
X112304663Y-73038094D01*
X112304663Y-73038094D02*
X112304663Y-72799999D01*
X112304663Y-72799999D02*
X112352282Y-72657142D01*
X112352282Y-72657142D02*
X112447520Y-72561904D01*
X112447520Y-72561904D02*
X112542758Y-72514285D01*
X112542758Y-72514285D02*
X112733234Y-72466666D01*
X112733234Y-72466666D02*
X112876091Y-72466666D01*
X112876091Y-72466666D02*
X113066567Y-72514285D01*
X113066567Y-72514285D02*
X113161805Y-72561904D01*
X113161805Y-72561904D02*
X113257044Y-72657142D01*
X113257044Y-72657142D02*
X113304663Y-72799999D01*
X113304663Y-72799999D02*
X113304663Y-73038094D01*
X112399901Y-72085713D02*
X112352282Y-72038094D01*
X112352282Y-72038094D02*
X112304663Y-71942856D01*
X112304663Y-71942856D02*
X112304663Y-71704761D01*
X112304663Y-71704761D02*
X112352282Y-71609523D01*
X112352282Y-71609523D02*
X112399901Y-71561904D01*
X112399901Y-71561904D02*
X112495139Y-71514285D01*
X112495139Y-71514285D02*
X112590377Y-71514285D01*
X112590377Y-71514285D02*
X112733234Y-71561904D01*
X112733234Y-71561904D02*
X113304663Y-72133332D01*
X113304663Y-72133332D02*
X113304663Y-71514285D01*
D11*
X92383333Y-83806980D02*
X92335714Y-83854600D01*
X92335714Y-83854600D02*
X92192857Y-83902219D01*
X92192857Y-83902219D02*
X92097619Y-83902219D01*
X92097619Y-83902219D02*
X91954762Y-83854600D01*
X91954762Y-83854600D02*
X91859524Y-83759361D01*
X91859524Y-83759361D02*
X91811905Y-83664123D01*
X91811905Y-83664123D02*
X91764286Y-83473647D01*
X91764286Y-83473647D02*
X91764286Y-83330790D01*
X91764286Y-83330790D02*
X91811905Y-83140314D01*
X91811905Y-83140314D02*
X91859524Y-83045076D01*
X91859524Y-83045076D02*
X91954762Y-82949838D01*
X91954762Y-82949838D02*
X92097619Y-82902219D01*
X92097619Y-82902219D02*
X92192857Y-82902219D01*
X92192857Y-82902219D02*
X92335714Y-82949838D01*
X92335714Y-82949838D02*
X92383333Y-82997457D01*
X93335714Y-83902219D02*
X92764286Y-83902219D01*
X93050000Y-83902219D02*
X93050000Y-82902219D01*
X93050000Y-82902219D02*
X92954762Y-83045076D01*
X92954762Y-83045076D02*
X92859524Y-83140314D01*
X92859524Y-83140314D02*
X92764286Y-83187933D01*
D10*
X91473810Y-56554663D02*
X91473810Y-55554663D01*
X92521428Y-56459424D02*
X92473809Y-56507044D01*
X92473809Y-56507044D02*
X92330952Y-56554663D01*
X92330952Y-56554663D02*
X92235714Y-56554663D01*
X92235714Y-56554663D02*
X92092857Y-56507044D01*
X92092857Y-56507044D02*
X91997619Y-56411805D01*
X91997619Y-56411805D02*
X91950000Y-56316567D01*
X91950000Y-56316567D02*
X91902381Y-56126091D01*
X91902381Y-56126091D02*
X91902381Y-55983234D01*
X91902381Y-55983234D02*
X91950000Y-55792758D01*
X91950000Y-55792758D02*
X91997619Y-55697520D01*
X91997619Y-55697520D02*
X92092857Y-55602282D01*
X92092857Y-55602282D02*
X92235714Y-55554663D01*
X92235714Y-55554663D02*
X92330952Y-55554663D01*
X92330952Y-55554663D02*
X92473809Y-55602282D01*
X92473809Y-55602282D02*
X92521428Y-55649901D01*
X93473809Y-56554663D02*
X92902381Y-56554663D01*
X93188095Y-56554663D02*
X93188095Y-55554663D01*
X93188095Y-55554663D02*
X93092857Y-55697520D01*
X93092857Y-55697520D02*
X92997619Y-55792758D01*
X92997619Y-55792758D02*
X92902381Y-55840377D01*
X100933333Y-79354663D02*
X100600000Y-78878472D01*
X100361905Y-79354663D02*
X100361905Y-78354663D01*
X100361905Y-78354663D02*
X100742857Y-78354663D01*
X100742857Y-78354663D02*
X100838095Y-78402282D01*
X100838095Y-78402282D02*
X100885714Y-78449901D01*
X100885714Y-78449901D02*
X100933333Y-78545139D01*
X100933333Y-78545139D02*
X100933333Y-78687996D01*
X100933333Y-78687996D02*
X100885714Y-78783234D01*
X100885714Y-78783234D02*
X100838095Y-78830853D01*
X100838095Y-78830853D02*
X100742857Y-78878472D01*
X100742857Y-78878472D02*
X100361905Y-78878472D01*
X101314286Y-78449901D02*
X101361905Y-78402282D01*
X101361905Y-78402282D02*
X101457143Y-78354663D01*
X101457143Y-78354663D02*
X101695238Y-78354663D01*
X101695238Y-78354663D02*
X101790476Y-78402282D01*
X101790476Y-78402282D02*
X101838095Y-78449901D01*
X101838095Y-78449901D02*
X101885714Y-78545139D01*
X101885714Y-78545139D02*
X101885714Y-78640377D01*
X101885714Y-78640377D02*
X101838095Y-78783234D01*
X101838095Y-78783234D02*
X101266667Y-79354663D01*
X101266667Y-79354663D02*
X101885714Y-79354663D01*
X99961905Y-92404663D02*
X99961905Y-91404663D01*
X99961905Y-91404663D02*
X100200000Y-91404663D01*
X100200000Y-91404663D02*
X100342857Y-91452282D01*
X100342857Y-91452282D02*
X100438095Y-91547520D01*
X100438095Y-91547520D02*
X100485714Y-91642758D01*
X100485714Y-91642758D02*
X100533333Y-91833234D01*
X100533333Y-91833234D02*
X100533333Y-91976091D01*
X100533333Y-91976091D02*
X100485714Y-92166567D01*
X100485714Y-92166567D02*
X100438095Y-92261805D01*
X100438095Y-92261805D02*
X100342857Y-92357044D01*
X100342857Y-92357044D02*
X100200000Y-92404663D01*
X100200000Y-92404663D02*
X99961905Y-92404663D01*
X101390476Y-91404663D02*
X101200000Y-91404663D01*
X101200000Y-91404663D02*
X101104762Y-91452282D01*
X101104762Y-91452282D02*
X101057143Y-91499901D01*
X101057143Y-91499901D02*
X100961905Y-91642758D01*
X100961905Y-91642758D02*
X100914286Y-91833234D01*
X100914286Y-91833234D02*
X100914286Y-92214186D01*
X100914286Y-92214186D02*
X100961905Y-92309424D01*
X100961905Y-92309424D02*
X101009524Y-92357044D01*
X101009524Y-92357044D02*
X101104762Y-92404663D01*
X101104762Y-92404663D02*
X101295238Y-92404663D01*
X101295238Y-92404663D02*
X101390476Y-92357044D01*
X101390476Y-92357044D02*
X101438095Y-92309424D01*
X101438095Y-92309424D02*
X101485714Y-92214186D01*
X101485714Y-92214186D02*
X101485714Y-91976091D01*
X101485714Y-91976091D02*
X101438095Y-91880853D01*
X101438095Y-91880853D02*
X101390476Y-91833234D01*
X101390476Y-91833234D02*
X101295238Y-91785615D01*
X101295238Y-91785615D02*
X101104762Y-91785615D01*
X101104762Y-91785615D02*
X101009524Y-91833234D01*
X101009524Y-91833234D02*
X100961905Y-91880853D01*
X100961905Y-91880853D02*
X100914286Y-91976091D01*
X114954761Y-88049901D02*
X114859523Y-88002282D01*
X114859523Y-88002282D02*
X114764285Y-87907044D01*
X114764285Y-87907044D02*
X114621428Y-87764186D01*
X114621428Y-87764186D02*
X114526190Y-87716567D01*
X114526190Y-87716567D02*
X114430952Y-87716567D01*
X114478571Y-87954663D02*
X114383333Y-87907044D01*
X114383333Y-87907044D02*
X114288095Y-87811805D01*
X114288095Y-87811805D02*
X114240476Y-87621329D01*
X114240476Y-87621329D02*
X114240476Y-87287996D01*
X114240476Y-87287996D02*
X114288095Y-87097520D01*
X114288095Y-87097520D02*
X114383333Y-87002282D01*
X114383333Y-87002282D02*
X114478571Y-86954663D01*
X114478571Y-86954663D02*
X114669047Y-86954663D01*
X114669047Y-86954663D02*
X114764285Y-87002282D01*
X114764285Y-87002282D02*
X114859523Y-87097520D01*
X114859523Y-87097520D02*
X114907142Y-87287996D01*
X114907142Y-87287996D02*
X114907142Y-87621329D01*
X114907142Y-87621329D02*
X114859523Y-87811805D01*
X114859523Y-87811805D02*
X114764285Y-87907044D01*
X114764285Y-87907044D02*
X114669047Y-87954663D01*
X114669047Y-87954663D02*
X114478571Y-87954663D01*
X115859523Y-87954663D02*
X115288095Y-87954663D01*
X115573809Y-87954663D02*
X115573809Y-86954663D01*
X115573809Y-86954663D02*
X115478571Y-87097520D01*
X115478571Y-87097520D02*
X115383333Y-87192758D01*
X115383333Y-87192758D02*
X115288095Y-87240377D01*
X114604663Y-65288094D02*
X113604663Y-65288094D01*
X113604663Y-65288094D02*
X113604663Y-65049999D01*
X113604663Y-65049999D02*
X113652282Y-64907142D01*
X113652282Y-64907142D02*
X113747520Y-64811904D01*
X113747520Y-64811904D02*
X113842758Y-64764285D01*
X113842758Y-64764285D02*
X114033234Y-64716666D01*
X114033234Y-64716666D02*
X114176091Y-64716666D01*
X114176091Y-64716666D02*
X114366567Y-64764285D01*
X114366567Y-64764285D02*
X114461805Y-64811904D01*
X114461805Y-64811904D02*
X114557044Y-64907142D01*
X114557044Y-64907142D02*
X114604663Y-65049999D01*
X114604663Y-65049999D02*
X114604663Y-65288094D01*
X113604663Y-64383332D02*
X113604663Y-63764285D01*
X113604663Y-63764285D02*
X113985615Y-64097618D01*
X113985615Y-64097618D02*
X113985615Y-63954761D01*
X113985615Y-63954761D02*
X114033234Y-63859523D01*
X114033234Y-63859523D02*
X114080853Y-63811904D01*
X114080853Y-63811904D02*
X114176091Y-63764285D01*
X114176091Y-63764285D02*
X114414186Y-63764285D01*
X114414186Y-63764285D02*
X114509424Y-63811904D01*
X114509424Y-63811904D02*
X114557044Y-63859523D01*
X114557044Y-63859523D02*
X114604663Y-63954761D01*
X114604663Y-63954761D02*
X114604663Y-64240475D01*
X114604663Y-64240475D02*
X114557044Y-64335713D01*
X114557044Y-64335713D02*
X114509424Y-64383332D01*
X118511905Y-75206663D02*
X118511905Y-74206663D01*
X118511905Y-74206663D02*
X118750000Y-74206663D01*
X118750000Y-74206663D02*
X118892857Y-74254282D01*
X118892857Y-74254282D02*
X118988095Y-74349520D01*
X118988095Y-74349520D02*
X119035714Y-74444758D01*
X119035714Y-74444758D02*
X119083333Y-74635234D01*
X119083333Y-74635234D02*
X119083333Y-74778091D01*
X119083333Y-74778091D02*
X119035714Y-74968567D01*
X119035714Y-74968567D02*
X118988095Y-75063805D01*
X118988095Y-75063805D02*
X118892857Y-75159044D01*
X118892857Y-75159044D02*
X118750000Y-75206663D01*
X118750000Y-75206663D02*
X118511905Y-75206663D01*
X119940476Y-74539996D02*
X119940476Y-75206663D01*
X119702381Y-74159044D02*
X119464286Y-74873329D01*
X119464286Y-74873329D02*
X120083333Y-74873329D01*
X120233333Y-60504663D02*
X119900000Y-60028472D01*
X119661905Y-60504663D02*
X119661905Y-59504663D01*
X119661905Y-59504663D02*
X120042857Y-59504663D01*
X120042857Y-59504663D02*
X120138095Y-59552282D01*
X120138095Y-59552282D02*
X120185714Y-59599901D01*
X120185714Y-59599901D02*
X120233333Y-59695139D01*
X120233333Y-59695139D02*
X120233333Y-59837996D01*
X120233333Y-59837996D02*
X120185714Y-59933234D01*
X120185714Y-59933234D02*
X120138095Y-59980853D01*
X120138095Y-59980853D02*
X120042857Y-60028472D01*
X120042857Y-60028472D02*
X119661905Y-60028472D01*
X120566667Y-59504663D02*
X121185714Y-59504663D01*
X121185714Y-59504663D02*
X120852381Y-59885615D01*
X120852381Y-59885615D02*
X120995238Y-59885615D01*
X120995238Y-59885615D02*
X121090476Y-59933234D01*
X121090476Y-59933234D02*
X121138095Y-59980853D01*
X121138095Y-59980853D02*
X121185714Y-60076091D01*
X121185714Y-60076091D02*
X121185714Y-60314186D01*
X121185714Y-60314186D02*
X121138095Y-60409424D01*
X121138095Y-60409424D02*
X121090476Y-60457044D01*
X121090476Y-60457044D02*
X120995238Y-60504663D01*
X120995238Y-60504663D02*
X120709524Y-60504663D01*
X120709524Y-60504663D02*
X120614286Y-60457044D01*
X120614286Y-60457044D02*
X120566667Y-60409424D01*
X120461905Y-75216663D02*
X120461905Y-74216663D01*
X120461905Y-74216663D02*
X120700000Y-74216663D01*
X120700000Y-74216663D02*
X120842857Y-74264282D01*
X120842857Y-74264282D02*
X120938095Y-74359520D01*
X120938095Y-74359520D02*
X120985714Y-74454758D01*
X120985714Y-74454758D02*
X121033333Y-74645234D01*
X121033333Y-74645234D02*
X121033333Y-74788091D01*
X121033333Y-74788091D02*
X120985714Y-74978567D01*
X120985714Y-74978567D02*
X120938095Y-75073805D01*
X120938095Y-75073805D02*
X120842857Y-75169044D01*
X120842857Y-75169044D02*
X120700000Y-75216663D01*
X120700000Y-75216663D02*
X120461905Y-75216663D01*
X121985714Y-75216663D02*
X121414286Y-75216663D01*
X121700000Y-75216663D02*
X121700000Y-74216663D01*
X121700000Y-74216663D02*
X121604762Y-74359520D01*
X121604762Y-74359520D02*
X121509524Y-74454758D01*
X121509524Y-74454758D02*
X121414286Y-74502377D01*
X114504663Y-68366666D02*
X114028472Y-68699999D01*
X114504663Y-68938094D02*
X113504663Y-68938094D01*
X113504663Y-68938094D02*
X113504663Y-68557142D01*
X113504663Y-68557142D02*
X113552282Y-68461904D01*
X113552282Y-68461904D02*
X113599901Y-68414285D01*
X113599901Y-68414285D02*
X113695139Y-68366666D01*
X113695139Y-68366666D02*
X113837996Y-68366666D01*
X113837996Y-68366666D02*
X113933234Y-68414285D01*
X113933234Y-68414285D02*
X113980853Y-68461904D01*
X113980853Y-68461904D02*
X114028472Y-68557142D01*
X114028472Y-68557142D02*
X114028472Y-68938094D01*
X113837996Y-67509523D02*
X114504663Y-67509523D01*
X113457044Y-67747618D02*
X114171329Y-67985713D01*
X114171329Y-67985713D02*
X114171329Y-67366666D01*
X123254663Y-74163333D02*
X123968948Y-74163333D01*
X123968948Y-74163333D02*
X124111805Y-74210952D01*
X124111805Y-74210952D02*
X124207044Y-74306190D01*
X124207044Y-74306190D02*
X124254663Y-74449047D01*
X124254663Y-74449047D02*
X124254663Y-74544285D01*
X124254663Y-73163333D02*
X124254663Y-73734761D01*
X124254663Y-73449047D02*
X123254663Y-73449047D01*
X123254663Y-73449047D02*
X123397520Y-73544285D01*
X123397520Y-73544285D02*
X123492758Y-73639523D01*
X123492758Y-73639523D02*
X123540377Y-73734761D01*
X96683333Y-79459424D02*
X96635714Y-79507044D01*
X96635714Y-79507044D02*
X96492857Y-79554663D01*
X96492857Y-79554663D02*
X96397619Y-79554663D01*
X96397619Y-79554663D02*
X96254762Y-79507044D01*
X96254762Y-79507044D02*
X96159524Y-79411805D01*
X96159524Y-79411805D02*
X96111905Y-79316567D01*
X96111905Y-79316567D02*
X96064286Y-79126091D01*
X96064286Y-79126091D02*
X96064286Y-78983234D01*
X96064286Y-78983234D02*
X96111905Y-78792758D01*
X96111905Y-78792758D02*
X96159524Y-78697520D01*
X96159524Y-78697520D02*
X96254762Y-78602282D01*
X96254762Y-78602282D02*
X96397619Y-78554663D01*
X96397619Y-78554663D02*
X96492857Y-78554663D01*
X96492857Y-78554663D02*
X96635714Y-78602282D01*
X96635714Y-78602282D02*
X96683333Y-78649901D01*
X97540476Y-78887996D02*
X97540476Y-79554663D01*
X97302381Y-78507044D02*
X97064286Y-79221329D01*
X97064286Y-79221329D02*
X97683333Y-79221329D01*
D11*
X107552219Y-88666666D02*
X107076028Y-88999999D01*
X107552219Y-89238094D02*
X106552219Y-89238094D01*
X106552219Y-89238094D02*
X106552219Y-88857142D01*
X106552219Y-88857142D02*
X106599838Y-88761904D01*
X106599838Y-88761904D02*
X106647457Y-88714285D01*
X106647457Y-88714285D02*
X106742695Y-88666666D01*
X106742695Y-88666666D02*
X106885552Y-88666666D01*
X106885552Y-88666666D02*
X106980790Y-88714285D01*
X106980790Y-88714285D02*
X107028409Y-88761904D01*
X107028409Y-88761904D02*
X107076028Y-88857142D01*
X107076028Y-88857142D02*
X107076028Y-89238094D01*
X106552219Y-88333332D02*
X106552219Y-87666666D01*
X106552219Y-87666666D02*
X107552219Y-88095237D01*
X92423333Y-82206980D02*
X92375714Y-82254600D01*
X92375714Y-82254600D02*
X92232857Y-82302219D01*
X92232857Y-82302219D02*
X92137619Y-82302219D01*
X92137619Y-82302219D02*
X91994762Y-82254600D01*
X91994762Y-82254600D02*
X91899524Y-82159361D01*
X91899524Y-82159361D02*
X91851905Y-82064123D01*
X91851905Y-82064123D02*
X91804286Y-81873647D01*
X91804286Y-81873647D02*
X91804286Y-81730790D01*
X91804286Y-81730790D02*
X91851905Y-81540314D01*
X91851905Y-81540314D02*
X91899524Y-81445076D01*
X91899524Y-81445076D02*
X91994762Y-81349838D01*
X91994762Y-81349838D02*
X92137619Y-81302219D01*
X92137619Y-81302219D02*
X92232857Y-81302219D01*
X92232857Y-81302219D02*
X92375714Y-81349838D01*
X92375714Y-81349838D02*
X92423333Y-81397457D01*
X92804286Y-81397457D02*
X92851905Y-81349838D01*
X92851905Y-81349838D02*
X92947143Y-81302219D01*
X92947143Y-81302219D02*
X93185238Y-81302219D01*
X93185238Y-81302219D02*
X93280476Y-81349838D01*
X93280476Y-81349838D02*
X93328095Y-81397457D01*
X93328095Y-81397457D02*
X93375714Y-81492695D01*
X93375714Y-81492695D02*
X93375714Y-81587933D01*
X93375714Y-81587933D02*
X93328095Y-81730790D01*
X93328095Y-81730790D02*
X92756667Y-82302219D01*
X92756667Y-82302219D02*
X93375714Y-82302219D01*
X115083333Y-83106980D02*
X115035714Y-83154600D01*
X115035714Y-83154600D02*
X114892857Y-83202219D01*
X114892857Y-83202219D02*
X114797619Y-83202219D01*
X114797619Y-83202219D02*
X114654762Y-83154600D01*
X114654762Y-83154600D02*
X114559524Y-83059361D01*
X114559524Y-83059361D02*
X114511905Y-82964123D01*
X114511905Y-82964123D02*
X114464286Y-82773647D01*
X114464286Y-82773647D02*
X114464286Y-82630790D01*
X114464286Y-82630790D02*
X114511905Y-82440314D01*
X114511905Y-82440314D02*
X114559524Y-82345076D01*
X114559524Y-82345076D02*
X114654762Y-82249838D01*
X114654762Y-82249838D02*
X114797619Y-82202219D01*
X114797619Y-82202219D02*
X114892857Y-82202219D01*
X114892857Y-82202219D02*
X115035714Y-82249838D01*
X115035714Y-82249838D02*
X115083333Y-82297457D01*
X115988095Y-82202219D02*
X115511905Y-82202219D01*
X115511905Y-82202219D02*
X115464286Y-82678409D01*
X115464286Y-82678409D02*
X115511905Y-82630790D01*
X115511905Y-82630790D02*
X115607143Y-82583171D01*
X115607143Y-82583171D02*
X115845238Y-82583171D01*
X115845238Y-82583171D02*
X115940476Y-82630790D01*
X115940476Y-82630790D02*
X115988095Y-82678409D01*
X115988095Y-82678409D02*
X116035714Y-82773647D01*
X116035714Y-82773647D02*
X116035714Y-83011742D01*
X116035714Y-83011742D02*
X115988095Y-83106980D01*
X115988095Y-83106980D02*
X115940476Y-83154600D01*
X115940476Y-83154600D02*
X115845238Y-83202219D01*
X115845238Y-83202219D02*
X115607143Y-83202219D01*
X115607143Y-83202219D02*
X115511905Y-83154600D01*
X115511905Y-83154600D02*
X115464286Y-83106980D01*
X114425000Y-80150000D02*
G75*
G02*
X114225000Y-80150000I-100000J0D01*
G01*
X114225000Y-80150000D02*
G75*
G02*
X114425000Y-80150000I100000J0D01*
G01*
D12*
X109229962Y-91123856D02*
X111161813Y-90606218D01*
X109837257Y-92617574D02*
X111382739Y-92203463D01*
D11*
X113195751Y-91294118D02*
G75*
G02*
X112995753Y-91294118I-99999J0D01*
G01*
X112995753Y-91294118D02*
G75*
G02*
X113195751Y-91294118I99999J0D01*
G01*
D13*
X115700000Y-73257044D02*
X114098716Y-73257044D01*
X114098716Y-72655600D01*
X115700000Y-72655600D01*
X115700000Y-73257044D01*
G36*
X115700000Y-73257044D02*
G01*
X114098716Y-73257044D01*
X114098716Y-72655600D01*
X115700000Y-72655600D01*
X115700000Y-73257044D01*
G37*
D11*
X91540000Y-77600000D02*
G75*
G02*
X91340000Y-77600000I-100000J0D01*
G01*
X91340000Y-77600000D02*
G75*
G02*
X91540000Y-77600000I100000J0D01*
G01*
D12*
X103617261Y-92203463D02*
X105162743Y-92617574D01*
X103838187Y-90606218D02*
X105770038Y-91123856D01*
D11*
X107200929Y-92686564D02*
G75*
G02*
X107000929Y-92686564I-100000J0D01*
G01*
X107000929Y-92686564D02*
G75*
G02*
X107200929Y-92686564I100000J0D01*
G01*
X113940000Y-86100000D02*
G75*
G02*
X113740000Y-86100000I-100000J0D01*
G01*
X113740000Y-86100000D02*
G75*
G02*
X113940000Y-86100000I100000J0D01*
G01*
X115323000Y-64702400D02*
X115854000Y-64702400D01*
X119097600Y-73223000D02*
X119097600Y-73754000D01*
X121352400Y-73777000D02*
X121352400Y-73246000D01*
%LPC*%
D14*
X102900000Y-89050000D03*
X102900000Y-87950000D03*
D15*
X92500000Y-42500000D03*
D16*
X92500000Y-42500000D03*
D17*
X114900000Y-79850000D03*
X115550000Y-79850000D03*
X116200000Y-79850000D03*
X116850000Y-79850000D03*
X116850000Y-76850000D03*
X116200000Y-76850000D03*
X115550000Y-76850000D03*
X114900000Y-76850000D03*
D18*
X115875000Y-78350000D03*
D19*
X114910000Y-75550000D03*
X113990000Y-75550000D03*
D20*
X113050000Y-84800000D03*
X111950000Y-84800000D03*
D14*
X94400000Y-80400000D03*
X94400000Y-81500000D03*
D20*
X114550000Y-84800000D03*
X115650000Y-84800000D03*
D15*
X122500000Y-92500000D03*
D16*
X122500000Y-92500000D03*
D15*
X92500000Y-92500000D03*
D16*
X92500000Y-92500000D03*
D21*
X108906222Y-92427050D03*
X112093778Y-91572950D03*
D22*
X114900000Y-73938300D03*
X114900000Y-70661700D03*
D19*
X93050000Y-80300000D03*
X92130000Y-80300000D03*
D23*
X91430000Y-76250000D03*
X92700000Y-76250000D03*
X93970000Y-76250000D03*
X95240000Y-76250000D03*
X96510000Y-76250000D03*
X97780000Y-76250000D03*
X99050000Y-76250000D03*
X100320000Y-76250000D03*
X101590000Y-76250000D03*
X102860000Y-76250000D03*
X104130000Y-76250000D03*
X105400000Y-76250000D03*
X106670000Y-76250000D03*
X107940000Y-76250000D03*
X107940000Y-58750000D03*
X106670000Y-58750000D03*
X105400000Y-58750000D03*
X104130000Y-58750000D03*
X102860000Y-58750000D03*
X101590000Y-58750000D03*
X100320000Y-58750000D03*
X99050000Y-58750000D03*
X97780000Y-58750000D03*
X96510000Y-58750000D03*
X95240000Y-58750000D03*
X93970000Y-58750000D03*
X92700000Y-58750000D03*
X91430000Y-58750000D03*
D24*
X97150000Y-69005000D03*
X95900000Y-70255000D03*
X97150000Y-70255000D03*
X98400000Y-70255000D03*
X98400000Y-69005000D03*
X98400000Y-67755000D03*
X97150000Y-67755000D03*
X95900000Y-67755000D03*
X95900000Y-69005000D03*
D20*
X102850000Y-78900000D03*
X103950000Y-78900000D03*
D25*
X102906222Y-91572950D03*
X106093778Y-92427050D03*
D26*
X113040000Y-86562500D03*
X111140000Y-86562500D03*
X112090000Y-88437500D03*
D27*
X115600000Y-65100000D03*
X115600000Y-64000000D03*
D28*
X118700000Y-73500000D03*
X119800000Y-73500000D03*
D20*
X119800000Y-61600000D03*
X120900000Y-61600000D03*
D28*
X121750000Y-73500000D03*
X120650000Y-73500000D03*
D14*
X115550000Y-68750000D03*
X115550000Y-67650000D03*
D29*
X118720000Y-70390000D03*
X118720000Y-64610000D03*
D30*
X117585000Y-70700000D03*
D31*
X117610000Y-69900000D03*
D32*
X117645000Y-68750000D03*
X117645000Y-67750000D03*
X117645000Y-67250000D03*
X117645000Y-66250000D03*
D30*
X117585000Y-64300000D03*
D31*
X117610000Y-65100000D03*
D32*
X117645000Y-65750000D03*
X117645000Y-66750000D03*
X117645000Y-68250000D03*
X117645000Y-69250000D03*
D33*
X118220000Y-71820000D03*
D34*
X122400000Y-71820000D03*
X122400000Y-63180000D03*
D33*
X118220000Y-63180000D03*
D19*
X94390000Y-79150000D03*
X95310000Y-79150000D03*
D15*
X122500000Y-42500000D03*
D16*
X122500000Y-42500000D03*
D14*
X108900000Y-89050000D03*
X108900000Y-87950000D03*
D19*
X93050000Y-79050000D03*
X92130000Y-79050000D03*
X114890000Y-81300000D03*
X115810000Y-81300000D03*
D35*
X101130000Y-45420000D03*
D36*
X107500000Y-83985000D03*
X107500000Y-46015000D03*
%LPD*%
M02*
