G04 #@! TF.GenerationSoftware,KiCad,Pcbnew,9.0.2*
G04 #@! TF.CreationDate,2025-06-23T20:15:19+02:00*
G04 #@! TF.ProjectId,coral-ir,636f7261-6c2d-4697-922e-6b696361645f,rev?*
G04 #@! TF.SameCoordinates,Original*
G04 #@! TF.FileFunction,Copper,L1,Top*
G04 #@! TF.FilePolarity,Positive*
%FSLAX46Y46*%
G04 Gerber Fmt 4.6, Leading zero omitted, Abs format (unit mm)*
G04 Created by KiCad (PCBNEW 9.0.2) date 2025-06-23 20:15:19*
%MOMM*%
%LPD*%
G01*
G04 APERTURE LIST*
G04 Aperture macros list*
%AMRoundRect*
0 Rectangle with rounded corners*
0 $1 Rounding radius*
0 $2 $3 $4 $5 $6 $7 $8 $9 X,Y pos of 4 corners*
0 Add a 4 corners polygon primitive as box body*
4,1,4,$2,$3,$4,$5,$6,$7,$8,$9,$2,$3,0*
0 Add four circle primitives for the rounded corners*
1,1,$1+$1,$2,$3*
1,1,$1+$1,$4,$5*
1,1,$1+$1,$6,$7*
1,1,$1+$1,$8,$9*
0 Add four rect primitives between the rounded corners*
20,1,$1+$1,$2,$3,$4,$5,0*
20,1,$1+$1,$4,$5,$6,$7,0*
20,1,$1+$1,$6,$7,$8,$9,0*
20,1,$1+$1,$8,$9,$2,$3,0*%
%AMRotRect*
0 Rectangle, with rotation*
0 The origin of the aperture is its center*
0 $1 length*
0 $2 width*
0 $3 Rotation angle, in degrees counterclockwise*
0 Add horizontal line*
21,1,$1,$2,0,0,$3*%
G04 Aperture macros list end*
G04 #@! TA.AperFunction,SMDPad,CuDef*
%ADD10R,0.600000X0.750000*%
G04 #@! TD*
G04 #@! TA.AperFunction,ComponentPad*
%ADD11C,2.600000*%
G04 #@! TD*
G04 #@! TA.AperFunction,ConnectorPad*
%ADD12C,3.800000*%
G04 #@! TD*
G04 #@! TA.AperFunction,SMDPad,CuDef*
%ADD13R,0.350000X0.800000*%
G04 #@! TD*
G04 #@! TA.AperFunction,SMDPad,CuDef*
%ADD14R,2.500000X1.750000*%
G04 #@! TD*
G04 #@! TA.AperFunction,SMDPad,CuDef*
%ADD15R,0.600000X0.620000*%
G04 #@! TD*
G04 #@! TA.AperFunction,SMDPad,CuDef*
%ADD16R,0.750000X0.600000*%
G04 #@! TD*
G04 #@! TA.AperFunction,SMDPad,CuDef*
%ADD17RotRect,0.900000X1.200000X195.000000*%
G04 #@! TD*
G04 #@! TA.AperFunction,SMDPad,CuDef*
%ADD18R,1.219200X0.914400*%
G04 #@! TD*
G04 #@! TA.AperFunction,SMDPad,CuDef*
%ADD19R,0.900000X1.500000*%
G04 #@! TD*
G04 #@! TA.AperFunction,SMDPad,CuDef*
%ADD20R,0.800000X0.800000*%
G04 #@! TD*
G04 #@! TA.AperFunction,SMDPad,CuDef*
%ADD21RotRect,0.900000X1.200000X165.000000*%
G04 #@! TD*
G04 #@! TA.AperFunction,SMDPad,CuDef*
%ADD22RoundRect,0.150000X-0.150000X0.587500X-0.150000X-0.587500X0.150000X-0.587500X0.150000X0.587500X0*%
G04 #@! TD*
G04 #@! TA.AperFunction,SMDPad,CuDef*
%ADD23R,0.320000X0.430000*%
G04 #@! TD*
G04 #@! TA.AperFunction,SMDPad,CuDef*
%ADD24R,0.430000X0.320000*%
G04 #@! TD*
G04 #@! TA.AperFunction,SMDPad,CuDef*
%ADD25R,1.030000X0.600000*%
G04 #@! TD*
G04 #@! TA.AperFunction,SMDPad,CuDef*
%ADD26R,1.080000X0.600000*%
G04 #@! TD*
G04 #@! TA.AperFunction,SMDPad,CuDef*
%ADD27R,1.150000X0.300000*%
G04 #@! TD*
G04 #@! TA.AperFunction,ComponentPad*
%ADD28O,2.100000X1.050000*%
G04 #@! TD*
G04 #@! TA.AperFunction,ComponentPad*
%ADD29O,2.000000X1.000000*%
G04 #@! TD*
G04 #@! TA.AperFunction,ComponentPad*
%ADD30C,2.205000*%
G04 #@! TD*
G04 #@! TA.AperFunction,ViaPad*
%ADD31C,0.600000*%
G04 #@! TD*
G04 #@! TA.AperFunction,Conductor*
%ADD32C,0.254000*%
G04 #@! TD*
G04 APERTURE END LIST*
D10*
X102900000Y-89050000D03*
X102900000Y-87950000D03*
D11*
X92500000Y-42500000D03*
D12*
X92500000Y-42500000D03*
D13*
X114900000Y-79850000D03*
X115550000Y-79850000D03*
X116200000Y-79850000D03*
X116850000Y-79850000D03*
X116850000Y-76850000D03*
X116200000Y-76850000D03*
X115550000Y-76850000D03*
X114900000Y-76850000D03*
D14*
X115875000Y-78350000D03*
D15*
X114910000Y-75550000D03*
X113990000Y-75550000D03*
D16*
X113050000Y-84800000D03*
X111950000Y-84800000D03*
D10*
X94400000Y-80400000D03*
X94400000Y-81500000D03*
D16*
X114550000Y-84800000D03*
X115650000Y-84800000D03*
D11*
X122500000Y-92500000D03*
D12*
X122500000Y-92500000D03*
D11*
X92500000Y-92500000D03*
D12*
X92500000Y-92500000D03*
D17*
X108906222Y-92427050D03*
X112093778Y-91572950D03*
D18*
X114900000Y-73938300D03*
X114900000Y-70661700D03*
D15*
X93050000Y-80300000D03*
X92130000Y-80300000D03*
D19*
X91430000Y-76250000D03*
X92700000Y-76250000D03*
X93970000Y-76250000D03*
X95240000Y-76250000D03*
X96510000Y-76250000D03*
X97780000Y-76250000D03*
X99050000Y-76250000D03*
X100320000Y-76250000D03*
X101590000Y-76250000D03*
X102860000Y-76250000D03*
X104130000Y-76250000D03*
X105400000Y-76250000D03*
X106670000Y-76250000D03*
X107940000Y-76250000D03*
X107940000Y-58750000D03*
X106670000Y-58750000D03*
X105400000Y-58750000D03*
X104130000Y-58750000D03*
X102860000Y-58750000D03*
X101590000Y-58750000D03*
X100320000Y-58750000D03*
X99050000Y-58750000D03*
X97780000Y-58750000D03*
X96510000Y-58750000D03*
X95240000Y-58750000D03*
X93970000Y-58750000D03*
X92700000Y-58750000D03*
X91430000Y-58750000D03*
D20*
X97150000Y-69005000D03*
X95900000Y-70255000D03*
X97150000Y-70255000D03*
X98400000Y-70255000D03*
X98400000Y-69005000D03*
X98400000Y-67755000D03*
X97150000Y-67755000D03*
X95900000Y-67755000D03*
X95900000Y-69005000D03*
D16*
X102850000Y-78900000D03*
X103950000Y-78900000D03*
D21*
X102906222Y-91572950D03*
X106093778Y-92427050D03*
D22*
X113040000Y-86562500D03*
X111140000Y-86562500D03*
X112090000Y-88437500D03*
D23*
X115600000Y-65100000D03*
X115600000Y-64000000D03*
D24*
X118700000Y-73500000D03*
X119800000Y-73500000D03*
D16*
X119800000Y-61600000D03*
X120900000Y-61600000D03*
D24*
X121750000Y-73500000D03*
X120650000Y-73500000D03*
D10*
X115550000Y-68750000D03*
X115550000Y-67650000D03*
D25*
X117585000Y-70700000D03*
D26*
X117610000Y-69900000D03*
D27*
X117645000Y-68750000D03*
X117645000Y-67750000D03*
X117645000Y-67250000D03*
X117645000Y-66250000D03*
D25*
X117585000Y-64300000D03*
D26*
X117610000Y-65100000D03*
D27*
X117645000Y-65750000D03*
X117645000Y-66750000D03*
X117645000Y-68250000D03*
X117645000Y-69250000D03*
D28*
X118220000Y-71820000D03*
D29*
X122400000Y-71820000D03*
X122400000Y-63180000D03*
D28*
X118220000Y-63180000D03*
D15*
X94390000Y-79150000D03*
X95310000Y-79150000D03*
D11*
X122500000Y-42500000D03*
D12*
X122500000Y-42500000D03*
D10*
X108900000Y-89050000D03*
X108900000Y-87950000D03*
D15*
X93050000Y-79050000D03*
X92130000Y-79050000D03*
X114890000Y-81300000D03*
X115810000Y-81300000D03*
D30*
X107500000Y-83985000D03*
X107500000Y-46015000D03*
D31*
X101650000Y-81350000D03*
X98200000Y-81400000D03*
X115550000Y-66600000D03*
X99800000Y-79150000D03*
X99950000Y-83950000D03*
X109950000Y-86550000D03*
X109950000Y-89850000D03*
X96450000Y-79150000D03*
X117900000Y-73500000D03*
X112900000Y-73950000D03*
X111950000Y-83800000D03*
X92700000Y-60150000D03*
D32*
X115550000Y-67650000D02*
X115550000Y-66600000D01*
X117585000Y-71185000D02*
X118220000Y-71820000D01*
X117585000Y-64300000D02*
X117585000Y-63815000D01*
X117585000Y-70700000D02*
X117585000Y-71185000D01*
X115810000Y-84640000D02*
X115650000Y-84800000D01*
X116850000Y-79850000D02*
X116850000Y-80260000D01*
X116850000Y-80260000D02*
X115810000Y-81300000D01*
X115810000Y-81300000D02*
X115810000Y-84640000D01*
X117585000Y-63815000D02*
X118220000Y-63180000D01*
X118700000Y-73500000D02*
X117900000Y-73500000D01*
X108900000Y-87950000D02*
X102900000Y-87950000D01*
X103950000Y-78900000D02*
X103950000Y-79000000D01*
X94400000Y-81500000D02*
X94600000Y-81500000D01*
X114900000Y-79850000D02*
X114900000Y-81290000D01*
X93050000Y-80300000D02*
X93200000Y-80300000D01*
X92700000Y-78700000D02*
X93050000Y-79050000D01*
X103950000Y-79000000D02*
X102900000Y-80050000D01*
X93050000Y-79050000D02*
X93050000Y-80300000D01*
X114890000Y-81300000D02*
X113100000Y-81300000D01*
X92700000Y-76250000D02*
X92700000Y-78700000D01*
X108900000Y-85500000D02*
X108900000Y-87950000D01*
X94600000Y-81500000D02*
X101050000Y-87950000D01*
X102900000Y-80050000D02*
X102900000Y-87950000D01*
X113100000Y-81300000D02*
X108900000Y-85500000D01*
X93200000Y-80300000D02*
X94400000Y-81500000D01*
X114900000Y-81290000D02*
X114890000Y-81300000D01*
X101050000Y-87950000D02*
X102900000Y-87950000D01*
X93970000Y-76250000D02*
X93970000Y-78730000D01*
X93970000Y-78730000D02*
X94390000Y-79150000D01*
X94390000Y-79150000D02*
X94390000Y-80390000D01*
X94390000Y-80390000D02*
X94400000Y-80400000D01*
X114888300Y-73950000D02*
X114900000Y-73938300D01*
X116204000Y-75550000D02*
X116850000Y-76196000D01*
X114910000Y-76840000D02*
X114900000Y-76850000D01*
X112900000Y-73950000D02*
X114888300Y-73950000D01*
X114900000Y-73938300D02*
X114900000Y-75540000D01*
X114900000Y-75540000D02*
X114910000Y-75550000D01*
X114910000Y-75550000D02*
X114910000Y-76840000D01*
X114910000Y-75550000D02*
X116204000Y-75550000D01*
X116850000Y-76196000D02*
X116850000Y-76850000D01*
X118380000Y-66750000D02*
X118475000Y-66845000D01*
X117496111Y-73881000D02*
X116419500Y-73881000D01*
X118475000Y-66845000D02*
X118475000Y-67655000D01*
X120650000Y-73500000D02*
X120270000Y-73880000D01*
X120270000Y-73915000D02*
X118269889Y-73915000D01*
X118129889Y-74055000D02*
X117670111Y-74055000D01*
X120181980Y-73031980D02*
X120650000Y-73500000D01*
X118380000Y-67750000D02*
X117645000Y-67750000D01*
X120270000Y-73880000D02*
X120270000Y-73915000D01*
X120181980Y-70311929D02*
X120181980Y-73031980D01*
X118856980Y-68186779D02*
X118856980Y-68986929D01*
X118475000Y-67655000D02*
X118380000Y-67750000D01*
X118269889Y-73915000D02*
X118129889Y-74055000D01*
X117645000Y-67750000D02*
X117740000Y-67845000D01*
X117645000Y-66750000D02*
X118380000Y-66750000D01*
X116419500Y-73881000D02*
X115764600Y-73226100D01*
X115764600Y-73226100D02*
X110232716Y-73226100D01*
X107940000Y-75518816D02*
X107940000Y-76250000D01*
X117740000Y-67845000D02*
X118515201Y-67845000D01*
X118856980Y-68986929D02*
X120181980Y-70311929D01*
X118515201Y-67845000D02*
X118856980Y-68186779D01*
X117670111Y-74055000D02*
X117496111Y-73881000D01*
X110232716Y-73226100D02*
X107940000Y-75518816D01*
X115922821Y-72844120D02*
X110074495Y-72844120D01*
X116815000Y-68155000D02*
X116910000Y-68250000D01*
X118934201Y-72945000D02*
X117670111Y-72945000D01*
X110074495Y-72844120D02*
X107673615Y-75245000D01*
X117645000Y-68250000D02*
X117645000Y-68345000D01*
X116910000Y-68250000D02*
X117645000Y-68250000D01*
X116815000Y-67345000D02*
X116815000Y-68155000D01*
X117116091Y-73499020D02*
X116577721Y-73499020D01*
X107235000Y-75685000D02*
X106670000Y-76250000D01*
X107235000Y-75245000D02*
X107235000Y-75685000D01*
X117645000Y-67250000D02*
X116910000Y-67250000D01*
X117645000Y-68345000D02*
X118475000Y-68345000D01*
X118475000Y-68345000D02*
X118475000Y-69145151D01*
X116577721Y-73499020D02*
X115922821Y-72844120D01*
X119489201Y-73500000D02*
X118934201Y-72945000D01*
X118475000Y-69145151D02*
X119800000Y-70470151D01*
X119800000Y-70470151D02*
X119800000Y-73500000D01*
X116910000Y-67250000D02*
X116815000Y-67345000D01*
X119800000Y-73500000D02*
X119489201Y-73500000D01*
X117670111Y-72945000D02*
X117116091Y-73499020D01*
X107673615Y-75245000D02*
X107235000Y-75245000D01*
X114900000Y-65800000D02*
X115600000Y-65100000D01*
X114900000Y-70661700D02*
X114900000Y-65800000D01*
X114900000Y-70661700D02*
X115661700Y-69900000D01*
X115600000Y-65100000D02*
X117610000Y-65100000D01*
X115661700Y-69900000D02*
X117610000Y-69900000D01*
X102860000Y-78890000D02*
X102850000Y-78900000D01*
X102860000Y-76250000D02*
X102860000Y-78890000D01*
X108900000Y-89050000D02*
X108900000Y-92420828D01*
X108900000Y-92420828D02*
X108906223Y-92427051D01*
X112090000Y-88437500D02*
X112090000Y-91569172D01*
X107266726Y-93600000D02*
X110066726Y-93600000D01*
X106093777Y-92427051D02*
X107266726Y-93600000D01*
X112090000Y-91569172D02*
X112093777Y-91572949D01*
X110066726Y-93600000D02*
X112093777Y-91572949D01*
X102900000Y-91566726D02*
X102906223Y-91572949D01*
X102900000Y-89050000D02*
X102900000Y-91566726D01*
X111950000Y-84800000D02*
X111950000Y-83800000D01*
X92700000Y-60150000D02*
X92700000Y-58750000D01*
X115550000Y-68750000D02*
X117645000Y-68750000D01*
X118579849Y-65750000D02*
X117645000Y-65750000D01*
X119800000Y-61600000D02*
X119800000Y-64529849D01*
X119800000Y-64529849D02*
X118579849Y-65750000D01*
X113040000Y-84810000D02*
X113050000Y-84800000D01*
X113040000Y-86562500D02*
X113040000Y-84810000D01*
X113050000Y-84800000D02*
X114550000Y-84800000D01*
G04 #@! TA.AperFunction,Conductor*
G36*
X111299881Y-83729180D02*
G01*
X111313532Y-83730157D01*
X111331545Y-83743641D01*
X111352012Y-83752989D01*
X111359410Y-83764501D01*
X111370368Y-83772704D01*
X111378231Y-83793787D01*
X111390396Y-83812715D01*
X111393598Y-83834985D01*
X111395179Y-83839224D01*
X111395500Y-83848213D01*
X111395500Y-83873001D01*
X111399583Y-83888239D01*
X111433289Y-84014033D01*
X111488677Y-84109966D01*
X111505415Y-84178961D01*
X111482195Y-84246053D01*
X111449561Y-84277730D01*
X111391515Y-84316515D01*
X111335266Y-84400697D01*
X111320500Y-84474930D01*
X111320500Y-85125063D01*
X111320501Y-85125073D01*
X111335265Y-85199300D01*
X111391516Y-85283484D01*
X111475697Y-85339733D01*
X111475699Y-85339734D01*
X111549933Y-85354500D01*
X112350066Y-85354499D01*
X112350069Y-85354498D01*
X112350073Y-85354498D01*
X112386926Y-85347167D01*
X112424301Y-85339734D01*
X112429996Y-85335928D01*
X112443810Y-85331602D01*
X112455356Y-85322866D01*
X112477015Y-85321203D01*
X112497746Y-85314712D01*
X112513075Y-85318436D01*
X112526144Y-85317434D01*
X112549528Y-85327294D01*
X112559811Y-85329793D01*
X112565051Y-85332619D01*
X112575699Y-85339734D01*
X112579729Y-85340535D01*
X112592312Y-85347322D01*
X112613156Y-85367951D01*
X112635996Y-85386356D01*
X112638081Y-85392620D01*
X112642773Y-85397264D01*
X112649155Y-85425886D01*
X112658420Y-85453719D01*
X112658500Y-85458221D01*
X112658500Y-85582260D01*
X112638498Y-85650381D01*
X112621595Y-85671355D01*
X112558675Y-85734274D01*
X112558673Y-85734276D01*
X112500501Y-85848446D01*
X112487875Y-85928165D01*
X112485500Y-85943166D01*
X112485500Y-87181834D01*
X112487009Y-87191361D01*
X112500501Y-87276556D01*
X112501948Y-87279395D01*
X112502665Y-87283214D01*
X112503565Y-87285984D01*
X112503206Y-87286100D01*
X112515049Y-87349173D01*
X112488346Y-87414956D01*
X112430317Y-87455860D01*
X112369970Y-87461042D01*
X112286934Y-87447891D01*
X112271834Y-87445500D01*
X111908166Y-87445500D01*
X111882266Y-87449602D01*
X111813446Y-87460501D01*
X111699276Y-87518673D01*
X111608673Y-87609276D01*
X111550501Y-87723446D01*
X111535500Y-87818167D01*
X111535500Y-89056832D01*
X111550501Y-89151553D01*
X111608673Y-89265723D01*
X111671595Y-89328645D01*
X111705621Y-89390957D01*
X111708500Y-89417740D01*
X111708500Y-90694857D01*
X111688498Y-90762978D01*
X111634842Y-90809471D01*
X111615112Y-90816563D01*
X111413746Y-90870520D01*
X111413742Y-90870521D01*
X111345855Y-90903998D01*
X111279099Y-90980119D01*
X111279098Y-90980120D01*
X111246554Y-91075992D01*
X111246553Y-91075995D01*
X111251504Y-91151520D01*
X111382645Y-91640946D01*
X111385713Y-91652394D01*
X111384023Y-91723370D01*
X111353101Y-91774100D01*
X109945606Y-93181596D01*
X109918240Y-93196539D01*
X109892011Y-93213396D01*
X109885709Y-93214302D01*
X109883296Y-93215620D01*
X109856513Y-93218500D01*
X109824466Y-93218500D01*
X109756345Y-93198498D01*
X109709852Y-93144842D01*
X109699748Y-93074568D01*
X109715347Y-93029500D01*
X109720898Y-93019883D01*
X109720901Y-93019880D01*
X109753446Y-92924007D01*
X109748496Y-92848480D01*
X109424937Y-91640945D01*
X109391461Y-91573061D01*
X109391460Y-91573060D01*
X109324422Y-91514268D01*
X109286395Y-91454314D01*
X109281500Y-91419537D01*
X109281500Y-89743976D01*
X109301502Y-89675855D01*
X109337498Y-89639211D01*
X109383484Y-89608484D01*
X109439734Y-89524301D01*
X109454500Y-89450067D01*
X109454499Y-88649934D01*
X109454498Y-88649930D01*
X109454498Y-88649926D01*
X109439734Y-88575699D01*
X109435927Y-88570002D01*
X109414712Y-88502250D01*
X109433495Y-88433783D01*
X109435929Y-88429995D01*
X109439734Y-88424301D01*
X109454500Y-88350067D01*
X109454499Y-87549934D01*
X109454498Y-87549931D01*
X109454498Y-87549926D01*
X109439734Y-87475699D01*
X109429940Y-87461042D01*
X109383484Y-87391516D01*
X109383483Y-87391515D01*
X109337497Y-87360787D01*
X109291970Y-87306310D01*
X109281500Y-87256023D01*
X109281500Y-87191358D01*
X110713001Y-87191358D01*
X110715687Y-87214519D01*
X110757516Y-87309254D01*
X110830743Y-87382481D01*
X110830745Y-87382482D01*
X110925483Y-87424313D01*
X110925481Y-87424313D01*
X110948639Y-87426999D01*
X111267000Y-87426999D01*
X111331352Y-87426999D01*
X111331358Y-87426998D01*
X111354519Y-87424312D01*
X111449254Y-87382483D01*
X111522481Y-87309256D01*
X111522482Y-87309254D01*
X111564313Y-87214517D01*
X111566999Y-87191361D01*
X111567000Y-87191358D01*
X111567000Y-86689500D01*
X111267000Y-86689500D01*
X111267000Y-87426999D01*
X110948639Y-87426999D01*
X111012999Y-87426998D01*
X111013000Y-87426998D01*
X111013000Y-86689500D01*
X110713001Y-86689500D01*
X110713001Y-87191358D01*
X109281500Y-87191358D01*
X109281500Y-85933638D01*
X110713000Y-85933638D01*
X110713000Y-86435500D01*
X111013000Y-86435500D01*
X111267000Y-86435500D01*
X111566999Y-86435500D01*
X111566999Y-85933648D01*
X111566998Y-85933641D01*
X111564312Y-85910480D01*
X111522483Y-85815745D01*
X111449256Y-85742518D01*
X111449254Y-85742517D01*
X111354516Y-85700686D01*
X111354518Y-85700686D01*
X111331361Y-85698000D01*
X111267000Y-85698000D01*
X111267000Y-86435500D01*
X111013000Y-86435500D01*
X111013000Y-85697999D01*
X110948650Y-85698000D01*
X110948640Y-85698001D01*
X110925480Y-85700687D01*
X110830745Y-85742516D01*
X110757518Y-85815743D01*
X110757517Y-85815745D01*
X110715686Y-85910482D01*
X110713000Y-85933638D01*
X109281500Y-85933638D01*
X109281500Y-85710213D01*
X109301502Y-85642092D01*
X109318405Y-85621118D01*
X111180405Y-83759118D01*
X111200151Y-83748335D01*
X111217158Y-83733599D01*
X111230705Y-83731651D01*
X111242717Y-83725092D01*
X111265160Y-83726697D01*
X111287432Y-83723495D01*
X111299881Y-83729180D01*
G37*
G04 #@! TD.AperFunction*
G04 #@! TA.AperFunction,Conductor*
G36*
X102226145Y-77208962D02*
G01*
X102229559Y-77208093D01*
X102264849Y-77214478D01*
X102280919Y-77219835D01*
X102310699Y-77239734D01*
X102384841Y-77254481D01*
X102392350Y-77256985D01*
X102415260Y-77272909D01*
X102439991Y-77285845D01*
X102443999Y-77292883D01*
X102450648Y-77297505D01*
X102461312Y-77323287D01*
X102475123Y-77347540D01*
X102474689Y-77355627D01*
X102477785Y-77363111D01*
X102478500Y-77376517D01*
X102478500Y-78236412D01*
X102458498Y-78304533D01*
X102404842Y-78351026D01*
X102377085Y-78359990D01*
X102376283Y-78360149D01*
X102375698Y-78360266D01*
X102291515Y-78416516D01*
X102235266Y-78500697D01*
X102220500Y-78574930D01*
X102220500Y-79225063D01*
X102220501Y-79225073D01*
X102235265Y-79299300D01*
X102291516Y-79383484D01*
X102375697Y-79439733D01*
X102375699Y-79439734D01*
X102449933Y-79454500D01*
X102651787Y-79454499D01*
X102673373Y-79460838D01*
X102695818Y-79462443D01*
X102706775Y-79470645D01*
X102719906Y-79474501D01*
X102734638Y-79491503D01*
X102752654Y-79504989D01*
X102757437Y-79517814D01*
X102766399Y-79528156D01*
X102769601Y-79550425D01*
X102777465Y-79571509D01*
X102774555Y-79584882D01*
X102776504Y-79598430D01*
X102767156Y-79618898D01*
X102762374Y-79640884D01*
X102748889Y-79658896D01*
X102747011Y-79663011D01*
X102740882Y-79669594D01*
X102665753Y-79744724D01*
X102665750Y-79744725D01*
X102594729Y-79815746D01*
X102594721Y-79815756D01*
X102544500Y-79902741D01*
X102538349Y-79925699D01*
X102527236Y-79967174D01*
X102518500Y-79999776D01*
X102518500Y-87256023D01*
X102498498Y-87324144D01*
X102489628Y-87336286D01*
X102477859Y-87350526D01*
X102416516Y-87391516D01*
X102360266Y-87475699D01*
X102355778Y-87498258D01*
X102335529Y-87522763D01*
X102331388Y-87525562D01*
X102329071Y-87529993D01*
X102302265Y-87545256D01*
X102276716Y-87562533D01*
X102271718Y-87562649D01*
X102267375Y-87565123D01*
X102238401Y-87568500D01*
X101260212Y-87568500D01*
X101192091Y-87548498D01*
X101171117Y-87531595D01*
X94991404Y-81351881D01*
X94957378Y-81289569D01*
X94954499Y-81262786D01*
X94954499Y-81099936D01*
X94954498Y-81099927D01*
X94939734Y-81025699D01*
X94935927Y-81020002D01*
X94914712Y-80952250D01*
X94933495Y-80883783D01*
X94935929Y-80879995D01*
X94939734Y-80874301D01*
X94954500Y-80800067D01*
X94954499Y-79999934D01*
X94954498Y-79999931D01*
X94954498Y-79999926D01*
X94939734Y-79925699D01*
X94883482Y-79841513D01*
X94874710Y-79832741D01*
X94876203Y-79831247D01*
X94875848Y-79830821D01*
X94861893Y-79822014D01*
X94853553Y-79804143D01*
X94840905Y-79789008D01*
X94838848Y-79772631D01*
X94831870Y-79757677D01*
X94834516Y-79738132D01*
X94832059Y-79718565D01*
X94839279Y-79702953D01*
X94841396Y-79687323D01*
X94856984Y-79664675D01*
X94860537Y-79656994D01*
X94870154Y-79645708D01*
X94873484Y-79643484D01*
X94878688Y-79635695D01*
X94883461Y-79630095D01*
X94907254Y-79614526D01*
X94929071Y-79596294D01*
X94937036Y-79595039D01*
X94942870Y-79591223D01*
X94962296Y-79591063D01*
X94991719Y-79586431D01*
X94997492Y-79587000D01*
X95183000Y-79587000D01*
X95437000Y-79587000D01*
X95622503Y-79587000D01*
X95622508Y-79586999D01*
X95659552Y-79579631D01*
X95701561Y-79551561D01*
X95729631Y-79509552D01*
X95736999Y-79472508D01*
X95737000Y-79472503D01*
X95737000Y-79277000D01*
X95437000Y-79277000D01*
X95437000Y-79587000D01*
X95183000Y-79587000D01*
X95183000Y-79023000D01*
X95437000Y-79023000D01*
X95737000Y-79023000D01*
X95737000Y-78827496D01*
X95736999Y-78827491D01*
X95729631Y-78790447D01*
X95701561Y-78748438D01*
X95659552Y-78720368D01*
X95622508Y-78713000D01*
X95437000Y-78713000D01*
X95437000Y-79023000D01*
X95183000Y-79023000D01*
X95183000Y-78713000D01*
X94997486Y-78713000D01*
X94991708Y-78713569D01*
X94921955Y-78700340D01*
X94882411Y-78665137D01*
X94882259Y-78665290D01*
X94879634Y-78662665D01*
X94874597Y-78658181D01*
X94873484Y-78656515D01*
X94789302Y-78600266D01*
X94715069Y-78585500D01*
X94715067Y-78585500D01*
X94477500Y-78585500D01*
X94409379Y-78565498D01*
X94362886Y-78511842D01*
X94351500Y-78459500D01*
X94351500Y-77376516D01*
X94358444Y-77352865D01*
X94361067Y-77328356D01*
X94368267Y-77319412D01*
X94371502Y-77308395D01*
X94390132Y-77292252D01*
X94405588Y-77273053D01*
X94418739Y-77267463D01*
X94425158Y-77261902D01*
X94437650Y-77256984D01*
X94445159Y-77254480D01*
X94519301Y-77239734D01*
X94549082Y-77219834D01*
X94565149Y-77214478D01*
X94584379Y-77213781D01*
X94602746Y-77208030D01*
X94619124Y-77212522D01*
X94636099Y-77211908D01*
X94652655Y-77221720D01*
X94671213Y-77226811D01*
X94674997Y-77229242D01*
X94690699Y-77239734D01*
X94764933Y-77254500D01*
X95715066Y-77254499D01*
X95715069Y-77254498D01*
X95715073Y-77254498D01*
X95744514Y-77248641D01*
X95789301Y-77239734D01*
X95804998Y-77229245D01*
X95872746Y-77208030D01*
X95941213Y-77226811D01*
X95944997Y-77229242D01*
X95960699Y-77239734D01*
X96034933Y-77254500D01*
X96985066Y-77254499D01*
X96985069Y-77254498D01*
X96985073Y-77254498D01*
X97014514Y-77248641D01*
X97059301Y-77239734D01*
X97074998Y-77229245D01*
X97142746Y-77208030D01*
X97211213Y-77226811D01*
X97214997Y-77229242D01*
X97230699Y-77239734D01*
X97304933Y-77254500D01*
X98255066Y-77254499D01*
X98255069Y-77254498D01*
X98255073Y-77254498D01*
X98284514Y-77248641D01*
X98329301Y-77239734D01*
X98344998Y-77229245D01*
X98412746Y-77208030D01*
X98481213Y-77226811D01*
X98484997Y-77229242D01*
X98500699Y-77239734D01*
X98574933Y-77254500D01*
X99525066Y-77254499D01*
X99525069Y-77254498D01*
X99525073Y-77254498D01*
X99554514Y-77248641D01*
X99599301Y-77239734D01*
X99614998Y-77229245D01*
X99682746Y-77208030D01*
X99751213Y-77226811D01*
X99754997Y-77229242D01*
X99770699Y-77239734D01*
X99844933Y-77254500D01*
X100795066Y-77254499D01*
X100795069Y-77254498D01*
X100795073Y-77254498D01*
X100824514Y-77248641D01*
X100869301Y-77239734D01*
X100884998Y-77229245D01*
X100952746Y-77208030D01*
X101021213Y-77226811D01*
X101024997Y-77229242D01*
X101040699Y-77239734D01*
X101114933Y-77254500D01*
X102065066Y-77254499D01*
X102065069Y-77254498D01*
X102065073Y-77254498D01*
X102094514Y-77248641D01*
X102139301Y-77239734D01*
X102154998Y-77229245D01*
X102158356Y-77228193D01*
X102160759Y-77225616D01*
X102191984Y-77217663D01*
X102222746Y-77208030D01*
X102226145Y-77208962D01*
G37*
G04 #@! TD.AperFunction*
G04 #@! TA.AperFunction,Conductor*
G36*
X116757621Y-65501502D02*
G01*
X116804114Y-65555158D01*
X116815500Y-65607500D01*
X116815500Y-65925063D01*
X116815501Y-65925068D01*
X116825516Y-65975421D01*
X116825515Y-66024579D01*
X116815500Y-66074925D01*
X116815500Y-66425063D01*
X116815501Y-66425068D01*
X116825516Y-66475421D01*
X116825515Y-66524579D01*
X116815500Y-66574925D01*
X116815500Y-66791295D01*
X116814535Y-66794578D01*
X116815326Y-66797906D01*
X116804606Y-66828395D01*
X116795498Y-66859416D01*
X116792575Y-66862615D01*
X116791778Y-66864883D01*
X116784437Y-66871523D01*
X116766903Y-66890717D01*
X116760033Y-66896065D01*
X116675753Y-66944724D01*
X116604724Y-67015753D01*
X116604723Y-67015754D01*
X116599199Y-67021277D01*
X116599195Y-67021281D01*
X116580754Y-67039723D01*
X116580753Y-67039724D01*
X116546135Y-67074342D01*
X116509725Y-67110751D01*
X116509721Y-67110756D01*
X116459500Y-67197741D01*
X116433500Y-67294776D01*
X116433500Y-68205225D01*
X116434750Y-68209890D01*
X116434145Y-68235284D01*
X116437761Y-68260432D01*
X116433314Y-68270167D01*
X116433060Y-68280867D01*
X116418819Y-68301907D01*
X116408267Y-68325012D01*
X116399265Y-68330797D01*
X116393265Y-68339662D01*
X116369910Y-68349662D01*
X116348541Y-68363396D01*
X116332428Y-68365712D01*
X116328000Y-68367609D01*
X116313043Y-68368500D01*
X116211599Y-68368500D01*
X116143478Y-68348498D01*
X116096985Y-68294842D01*
X116094502Y-68287155D01*
X116094483Y-68287164D01*
X116089734Y-68275699D01*
X116033483Y-68191515D01*
X116026584Y-68186905D01*
X115981058Y-68132427D01*
X115972212Y-68061984D01*
X115973011Y-68057557D01*
X115976999Y-68037508D01*
X115977000Y-68037503D01*
X115977000Y-67777000D01*
X115676000Y-67777000D01*
X115667174Y-67774408D01*
X115658068Y-67775718D01*
X115633642Y-67764562D01*
X115607879Y-67756998D01*
X115601854Y-67750044D01*
X115593488Y-67746224D01*
X115578973Y-67723638D01*
X115561386Y-67703342D01*
X115559061Y-67692655D01*
X115555104Y-67686498D01*
X115550000Y-67651000D01*
X115550000Y-67650000D01*
X115549000Y-67650000D01*
X115480879Y-67629998D01*
X115434386Y-67576342D01*
X115423000Y-67524000D01*
X115423000Y-67523000D01*
X115677000Y-67523000D01*
X115977000Y-67523000D01*
X115977000Y-67262496D01*
X115976999Y-67262491D01*
X115969631Y-67225447D01*
X115941561Y-67183438D01*
X115899552Y-67155368D01*
X115862508Y-67148000D01*
X115677000Y-67148000D01*
X115677000Y-67523000D01*
X115423000Y-67523000D01*
X115423000Y-67148000D01*
X115407500Y-67148000D01*
X115339379Y-67127998D01*
X115292886Y-67074342D01*
X115281500Y-67022000D01*
X115281500Y-66010212D01*
X115301502Y-65942091D01*
X115318405Y-65921117D01*
X115633118Y-65606404D01*
X115695430Y-65572378D01*
X115722213Y-65569499D01*
X115785064Y-65569499D01*
X115785066Y-65569499D01*
X115785069Y-65569498D01*
X115785072Y-65569498D01*
X115821663Y-65562219D01*
X115859301Y-65554734D01*
X115937122Y-65502734D01*
X116004874Y-65481520D01*
X116007124Y-65481500D01*
X116689500Y-65481500D01*
X116757621Y-65501502D01*
G37*
G04 #@! TD.AperFunction*
G04 #@! TA.AperFunction,Conductor*
G36*
X121614758Y-40320502D02*
G01*
X121661251Y-40374158D01*
X121671355Y-40444432D01*
X121641861Y-40509012D01*
X121594856Y-40542908D01*
X121579782Y-40549151D01*
X121545047Y-40563539D01*
X121545038Y-40563544D01*
X121300459Y-40704752D01*
X121076390Y-40876685D01*
X121076380Y-40876694D01*
X120876694Y-41076380D01*
X120876685Y-41076390D01*
X120704752Y-41300459D01*
X120563544Y-41545038D01*
X120563539Y-41545047D01*
X120455461Y-41805973D01*
X120382362Y-42078782D01*
X120345500Y-42358784D01*
X120345500Y-42641215D01*
X120382362Y-42921217D01*
X120455461Y-43194026D01*
X120563539Y-43454952D01*
X120563544Y-43454961D01*
X120704752Y-43699540D01*
X120876685Y-43923609D01*
X120876694Y-43923619D01*
X121076380Y-44123305D01*
X121076390Y-44123314D01*
X121076391Y-44123315D01*
X121300456Y-44295245D01*
X121545044Y-44436459D01*
X121805973Y-44544539D01*
X122078776Y-44617636D01*
X122078780Y-44617636D01*
X122078782Y-44617637D01*
X122150948Y-44627137D01*
X122358787Y-44654500D01*
X122358794Y-44654500D01*
X122641206Y-44654500D01*
X122641213Y-44654500D01*
X122894273Y-44621184D01*
X122921217Y-44617637D01*
X122921217Y-44617636D01*
X122921224Y-44617636D01*
X123194027Y-44544539D01*
X123454956Y-44436459D01*
X123699544Y-44295245D01*
X123923609Y-44123315D01*
X124123315Y-43923609D01*
X124295245Y-43699544D01*
X124436459Y-43454956D01*
X124457091Y-43405144D01*
X124501639Y-43349863D01*
X124569002Y-43327442D01*
X124637793Y-43345000D01*
X124686172Y-43396962D01*
X124699500Y-43453362D01*
X124699500Y-91546637D01*
X124679498Y-91614758D01*
X124625842Y-91661251D01*
X124555568Y-91671355D01*
X124490988Y-91641861D01*
X124457091Y-91594855D01*
X124448063Y-91573060D01*
X124436459Y-91545044D01*
X124295245Y-91300456D01*
X124123315Y-91076391D01*
X124123314Y-91076390D01*
X124123305Y-91076380D01*
X123923619Y-90876694D01*
X123923609Y-90876685D01*
X123699540Y-90704752D01*
X123454961Y-90563544D01*
X123454952Y-90563539D01*
X123336730Y-90514570D01*
X123194027Y-90455461D01*
X122921224Y-90382364D01*
X122921217Y-90382362D01*
X122641215Y-90345500D01*
X122641213Y-90345500D01*
X122358787Y-90345500D01*
X122358784Y-90345500D01*
X122078782Y-90382362D01*
X121805973Y-90455461D01*
X121545047Y-90563539D01*
X121545038Y-90563544D01*
X121300459Y-90704752D01*
X121076390Y-90876685D01*
X121076380Y-90876694D01*
X120876694Y-91076380D01*
X120876685Y-91076390D01*
X120704752Y-91300459D01*
X120563544Y-91545038D01*
X120563539Y-91545047D01*
X120455461Y-91805973D01*
X120382362Y-92078782D01*
X120345500Y-92358784D01*
X120345500Y-92641215D01*
X120382362Y-92921217D01*
X120382364Y-92921224D01*
X120455461Y-93194027D01*
X120464405Y-93215620D01*
X120563539Y-93454952D01*
X120563544Y-93454961D01*
X120704752Y-93699540D01*
X120876685Y-93923609D01*
X120876694Y-93923619D01*
X121076380Y-94123305D01*
X121076390Y-94123314D01*
X121076391Y-94123315D01*
X121300456Y-94295245D01*
X121545044Y-94436459D01*
X121594855Y-94457091D01*
X121650136Y-94501639D01*
X121672557Y-94569003D01*
X121654999Y-94637794D01*
X121603037Y-94686172D01*
X121546637Y-94699500D01*
X93453363Y-94699500D01*
X93385242Y-94679498D01*
X93338749Y-94625842D01*
X93328645Y-94555568D01*
X93358139Y-94490988D01*
X93405143Y-94457091D01*
X93454956Y-94436459D01*
X93699544Y-94295245D01*
X93923609Y-94123315D01*
X94123315Y-93923609D01*
X94295245Y-93699544D01*
X94436459Y-93454956D01*
X94544539Y-93194027D01*
X94617636Y-92921224D01*
X94654500Y-92641213D01*
X94654500Y-92358787D01*
X94617636Y-92078776D01*
X94544539Y-91805973D01*
X94436459Y-91545044D01*
X94295245Y-91300456D01*
X94123315Y-91076391D01*
X94123314Y-91076390D01*
X94123305Y-91076380D01*
X93923619Y-90876694D01*
X93923609Y-90876685D01*
X93699540Y-90704752D01*
X93454961Y-90563544D01*
X93454952Y-90563539D01*
X93336730Y-90514570D01*
X93194027Y-90455461D01*
X92921224Y-90382364D01*
X92921217Y-90382362D01*
X92641215Y-90345500D01*
X92641213Y-90345500D01*
X92358787Y-90345500D01*
X92358784Y-90345500D01*
X92078782Y-90382362D01*
X91805973Y-90455461D01*
X91545047Y-90563539D01*
X91545038Y-90563544D01*
X91300459Y-90704752D01*
X91076390Y-90876685D01*
X91076380Y-90876694D01*
X90876694Y-91076380D01*
X90876685Y-91076390D01*
X90704752Y-91300459D01*
X90563544Y-91545038D01*
X90563539Y-91545047D01*
X90542909Y-91594855D01*
X90498361Y-91650136D01*
X90430997Y-91672557D01*
X90362206Y-91654999D01*
X90313828Y-91603037D01*
X90300500Y-91546637D01*
X90300500Y-80622508D01*
X91703000Y-80622508D01*
X91710368Y-80659552D01*
X91738438Y-80701561D01*
X91780447Y-80729631D01*
X91817491Y-80736999D01*
X91817497Y-80737000D01*
X92003000Y-80737000D01*
X92003000Y-80427000D01*
X91703000Y-80427000D01*
X91703000Y-80622508D01*
X90300500Y-80622508D01*
X90300500Y-79977491D01*
X91703000Y-79977491D01*
X91703000Y-80173000D01*
X92003000Y-80173000D01*
X92003000Y-79863000D01*
X91817491Y-79863000D01*
X91780447Y-79870368D01*
X91738438Y-79898438D01*
X91710368Y-79940447D01*
X91703000Y-79977491D01*
X90300500Y-79977491D01*
X90300500Y-79372508D01*
X91703000Y-79372508D01*
X91710368Y-79409552D01*
X91738438Y-79451561D01*
X91780447Y-79479631D01*
X91817491Y-79486999D01*
X91817497Y-79487000D01*
X92003000Y-79487000D01*
X92003000Y-79177000D01*
X91703000Y-79177000D01*
X91703000Y-79372508D01*
X90300500Y-79372508D01*
X90300500Y-78727491D01*
X91703000Y-78727491D01*
X91703000Y-78923000D01*
X92003000Y-78923000D01*
X92003000Y-78613000D01*
X91817491Y-78613000D01*
X91780447Y-78620368D01*
X91738438Y-78648438D01*
X91710368Y-78690447D01*
X91703000Y-78727491D01*
X90300500Y-78727491D01*
X90300500Y-77012508D01*
X90853000Y-77012508D01*
X90860368Y-77049552D01*
X90888438Y-77091561D01*
X90930447Y-77119631D01*
X90967491Y-77126999D01*
X90967497Y-77127000D01*
X91303000Y-77127000D01*
X91303000Y-76377000D01*
X90853000Y-76377000D01*
X90853000Y-77012508D01*
X90300500Y-77012508D01*
X90300500Y-75487491D01*
X90853000Y-75487491D01*
X90853000Y-76123000D01*
X91303000Y-76123000D01*
X91303000Y-75373000D01*
X91557000Y-75373000D01*
X91557000Y-77127000D01*
X91892503Y-77127000D01*
X91892506Y-77126999D01*
X91930214Y-77119499D01*
X92000928Y-77125827D01*
X92056996Y-77169381D01*
X92059560Y-77173074D01*
X92066516Y-77183484D01*
X92150697Y-77239733D01*
X92150699Y-77239734D01*
X92217081Y-77252938D01*
X92279991Y-77285845D01*
X92315123Y-77347540D01*
X92318500Y-77376517D01*
X92318500Y-78499309D01*
X92298498Y-78567430D01*
X92281595Y-78588404D01*
X92257000Y-78612999D01*
X92257000Y-79487000D01*
X92442506Y-79487000D01*
X92448279Y-79486431D01*
X92518034Y-79499654D01*
X92541241Y-79514976D01*
X92555267Y-79526649D01*
X92566516Y-79543484D01*
X92612059Y-79573915D01*
X92617151Y-79578153D01*
X92633390Y-79602350D01*
X92652079Y-79624713D01*
X92652926Y-79631458D01*
X92656715Y-79637104D01*
X92657294Y-79666241D01*
X92660926Y-79695156D01*
X92657991Y-79701288D01*
X92658127Y-79708086D01*
X92642864Y-79732906D01*
X92630285Y-79759200D01*
X92622604Y-79765855D01*
X92620939Y-79768564D01*
X92617656Y-79770142D01*
X92606554Y-79779762D01*
X92592718Y-79789008D01*
X92566512Y-79806518D01*
X92565398Y-79808187D01*
X92562028Y-79811002D01*
X92557741Y-79815290D01*
X92557356Y-79814905D01*
X92510917Y-79853710D01*
X92448290Y-79863569D01*
X92442512Y-79863000D01*
X92257000Y-79863000D01*
X92257000Y-80737000D01*
X92442506Y-80737000D01*
X92448279Y-80736431D01*
X92518034Y-80749654D01*
X92557588Y-80784862D01*
X92557741Y-80784710D01*
X92560359Y-80787328D01*
X92565401Y-80791816D01*
X92566515Y-80793484D01*
X92650697Y-80849733D01*
X92650699Y-80849734D01*
X92724933Y-80864500D01*
X93172785Y-80864499D01*
X93240906Y-80884501D01*
X93261880Y-80901403D01*
X93808595Y-81448117D01*
X93842620Y-81510430D01*
X93845500Y-81537213D01*
X93845500Y-81900063D01*
X93845501Y-81900073D01*
X93860265Y-81974300D01*
X93916516Y-82058484D01*
X94000697Y-82114733D01*
X94000699Y-82114734D01*
X94074933Y-82129500D01*
X94637786Y-82129499D01*
X94705907Y-82149501D01*
X94726881Y-82166404D01*
X100740313Y-88179835D01*
X100740334Y-88179858D01*
X100815746Y-88255270D01*
X100815751Y-88255274D01*
X100815753Y-88255276D01*
X100815754Y-88255277D01*
X100815756Y-88255278D01*
X100902741Y-88305499D01*
X100902743Y-88305499D01*
X100902746Y-88305501D01*
X100999775Y-88331500D01*
X102238401Y-88331500D01*
X102306522Y-88351502D01*
X102351462Y-88401883D01*
X102358756Y-88416711D01*
X102360266Y-88424301D01*
X102368695Y-88436917D01*
X102372368Y-88444382D01*
X102377065Y-88471492D01*
X102385287Y-88497749D01*
X102383036Y-88505953D01*
X102384489Y-88514337D01*
X102373781Y-88539686D01*
X102366504Y-88566216D01*
X102364074Y-88569998D01*
X102360266Y-88575696D01*
X102345500Y-88649930D01*
X102345500Y-89450063D01*
X102345501Y-89450073D01*
X102360265Y-89524300D01*
X102416515Y-89608483D01*
X102462502Y-89639211D01*
X102508030Y-89693688D01*
X102518500Y-89743976D01*
X102518500Y-90576351D01*
X102498498Y-90644472D01*
X102475578Y-90671083D01*
X102420982Y-90718961D01*
X102387505Y-90786846D01*
X102063949Y-91994379D01*
X102058997Y-92069904D01*
X102058998Y-92069906D01*
X102058998Y-92069907D01*
X102091543Y-92165780D01*
X102158299Y-92241901D01*
X102226182Y-92275377D01*
X103143940Y-92521289D01*
X103206332Y-92525379D01*
X103219464Y-92526240D01*
X103219464Y-92526239D01*
X103219467Y-92526240D01*
X103315340Y-92493695D01*
X103391461Y-92426939D01*
X103424938Y-92359056D01*
X103748495Y-91151520D01*
X103753446Y-91075993D01*
X103720901Y-90980120D01*
X103654145Y-90903999D01*
X103586262Y-90870523D01*
X103586251Y-90870520D01*
X103374888Y-90813885D01*
X103314266Y-90776933D01*
X103283244Y-90713072D01*
X103281500Y-90692178D01*
X103281500Y-89743976D01*
X103301502Y-89675855D01*
X103337498Y-89639211D01*
X103383484Y-89608484D01*
X103439734Y-89524301D01*
X103454500Y-89450067D01*
X103454499Y-88649934D01*
X103454498Y-88649930D01*
X103454498Y-88649926D01*
X103439734Y-88575699D01*
X103435927Y-88570002D01*
X103432300Y-88558419D01*
X103424620Y-88549023D01*
X103421887Y-88525166D01*
X103414712Y-88502250D01*
X103417720Y-88488776D01*
X103416542Y-88478488D01*
X103424412Y-88458800D01*
X103427632Y-88444382D01*
X103431304Y-88436915D01*
X103439734Y-88424301D01*
X103441243Y-88416712D01*
X103448539Y-88401882D01*
X103461822Y-88387414D01*
X103470929Y-88370007D01*
X103485340Y-88361801D01*
X103496556Y-88349586D01*
X103515556Y-88344596D01*
X103532625Y-88334877D01*
X103561599Y-88331500D01*
X108238401Y-88331500D01*
X108306522Y-88351502D01*
X108353015Y-88405158D01*
X108355497Y-88412844D01*
X108355517Y-88412836D01*
X108360265Y-88424300D01*
X108364072Y-88429997D01*
X108385287Y-88497749D01*
X108366504Y-88566216D01*
X108364074Y-88569998D01*
X108360266Y-88575696D01*
X108345500Y-88649930D01*
X108345500Y-89450063D01*
X108345501Y-89450073D01*
X108360265Y-89524300D01*
X108416515Y-89608483D01*
X108462502Y-89639211D01*
X108508030Y-89693688D01*
X108518500Y-89743976D01*
X108518500Y-91549612D01*
X108498498Y-91617733D01*
X108444842Y-91664226D01*
X108425112Y-91671318D01*
X108226190Y-91724620D01*
X108226186Y-91724621D01*
X108158299Y-91758098D01*
X108091543Y-91834219D01*
X108091542Y-91834220D01*
X108058998Y-91930092D01*
X108058997Y-91930095D01*
X108063211Y-91994379D01*
X108063948Y-92005620D01*
X108346439Y-93059891D01*
X108344750Y-93130865D01*
X108304956Y-93189661D01*
X108239692Y-93217609D01*
X108224733Y-93218500D01*
X107476938Y-93218500D01*
X107408817Y-93198498D01*
X107387843Y-93181595D01*
X106834452Y-92628204D01*
X106800426Y-92565892D01*
X106801839Y-92506502D01*
X106936051Y-92005620D01*
X106941002Y-91930093D01*
X106908457Y-91834220D01*
X106841701Y-91758099D01*
X106796650Y-91735882D01*
X106773817Y-91724622D01*
X105856060Y-91478711D01*
X105780535Y-91473759D01*
X105780533Y-91473760D01*
X105684660Y-91506304D01*
X105684659Y-91506305D01*
X105608539Y-91573060D01*
X105575061Y-91640946D01*
X105251505Y-92848479D01*
X105246553Y-92924004D01*
X105246554Y-92924006D01*
X105246554Y-92924007D01*
X105279099Y-93019880D01*
X105345855Y-93096001D01*
X105413738Y-93129477D01*
X106331496Y-93375389D01*
X106397728Y-93379730D01*
X106407021Y-93380340D01*
X106407021Y-93380339D01*
X106407023Y-93380340D01*
X106407874Y-93380050D01*
X106409840Y-93379968D01*
X106419327Y-93378720D01*
X106419438Y-93379568D01*
X106478808Y-93377094D01*
X106537471Y-93410268D01*
X106957044Y-93829840D01*
X106957065Y-93829863D01*
X107032472Y-93905270D01*
X107032477Y-93905274D01*
X107032479Y-93905276D01*
X107032480Y-93905277D01*
X107032482Y-93905278D01*
X107119467Y-93955499D01*
X107119469Y-93955499D01*
X107119472Y-93955501D01*
X107216501Y-93981500D01*
X107216503Y-93981500D01*
X110116949Y-93981500D01*
X110116951Y-93981500D01*
X110213980Y-93955501D01*
X110213983Y-93955499D01*
X110213984Y-93955499D01*
X110269219Y-93923609D01*
X110300973Y-93905276D01*
X110372002Y-93834247D01*
X111650083Y-92556164D01*
X111712392Y-92522142D01*
X111768141Y-92525296D01*
X111768231Y-92524620D01*
X111777304Y-92525814D01*
X111779675Y-92525948D01*
X111780533Y-92526240D01*
X111780534Y-92526239D01*
X111780535Y-92526240D01*
X111789287Y-92525666D01*
X111856059Y-92521290D01*
X112773817Y-92275377D01*
X112841701Y-92241901D01*
X112908457Y-92165780D01*
X112941002Y-92069907D01*
X112936052Y-91994380D01*
X112612493Y-90786845D01*
X112579017Y-90718961D01*
X112548477Y-90692178D01*
X112514422Y-90662312D01*
X112476395Y-90602359D01*
X112471500Y-90567581D01*
X112471500Y-89417740D01*
X112491502Y-89349619D01*
X112508405Y-89328645D01*
X112571324Y-89265725D01*
X112571326Y-89265723D01*
X112629498Y-89151555D01*
X112644500Y-89056834D01*
X112644500Y-87818166D01*
X112629498Y-87723445D01*
X112628052Y-87720607D01*
X112627333Y-87716781D01*
X112626435Y-87714016D01*
X112626792Y-87713899D01*
X112614949Y-87650830D01*
X112641650Y-87585046D01*
X112699678Y-87544141D01*
X112760030Y-87538957D01*
X112763444Y-87539497D01*
X112763445Y-87539498D01*
X112858166Y-87554500D01*
X112858168Y-87554500D01*
X113221832Y-87554500D01*
X113221834Y-87554500D01*
X113316555Y-87539498D01*
X113430723Y-87481326D01*
X113521326Y-87390723D01*
X113579498Y-87276555D01*
X113594500Y-87181834D01*
X113594500Y-85943166D01*
X113579498Y-85848445D01*
X113525524Y-85742516D01*
X113521326Y-85734276D01*
X113458405Y-85671355D01*
X113443460Y-85643986D01*
X113426604Y-85617758D01*
X113425698Y-85611459D01*
X113424379Y-85609043D01*
X113421500Y-85582260D01*
X113421500Y-85463587D01*
X113441502Y-85395466D01*
X113495158Y-85348973D01*
X113522922Y-85340008D01*
X113524301Y-85339734D01*
X113608484Y-85283484D01*
X113639211Y-85237497D01*
X113645401Y-85232324D01*
X113648752Y-85224988D01*
X113672248Y-85209887D01*
X113693688Y-85191970D01*
X113703214Y-85189986D01*
X113708478Y-85186604D01*
X113743976Y-85181500D01*
X113856024Y-85181500D01*
X113924145Y-85201502D01*
X113960789Y-85237498D01*
X113991516Y-85283484D01*
X114075697Y-85339733D01*
X114075699Y-85339734D01*
X114149933Y-85354500D01*
X114950066Y-85354499D01*
X114950069Y-85354498D01*
X114950073Y-85354498D01*
X114999326Y-85344701D01*
X115024301Y-85339734D01*
X115108484Y-85283484D01*
X115113091Y-85276588D01*
X115167567Y-85231060D01*
X115238010Y-85222211D01*
X115242441Y-85223011D01*
X115262488Y-85226999D01*
X115262497Y-85227000D01*
X115523000Y-85227000D01*
X115777000Y-85227000D01*
X116037503Y-85227000D01*
X116037508Y-85226999D01*
X116074552Y-85219631D01*
X116116561Y-85191561D01*
X116144631Y-85149552D01*
X116151999Y-85112508D01*
X116152000Y-85112503D01*
X116152000Y-84927000D01*
X115777000Y-84927000D01*
X115777000Y-85227000D01*
X115523000Y-85227000D01*
X115523000Y-84673000D01*
X115777000Y-84673000D01*
X116152000Y-84673000D01*
X116152000Y-84487496D01*
X116151999Y-84487491D01*
X116144631Y-84450447D01*
X116116561Y-84408438D01*
X116074552Y-84380368D01*
X116037508Y-84373000D01*
X115777000Y-84373000D01*
X115777000Y-84673000D01*
X115523000Y-84673000D01*
X115523000Y-84373000D01*
X115262488Y-84373000D01*
X115242437Y-84376989D01*
X115171723Y-84370660D01*
X115115656Y-84327105D01*
X115113093Y-84323413D01*
X115108484Y-84316515D01*
X115024302Y-84260266D01*
X114950068Y-84245500D01*
X114149936Y-84245500D01*
X114149926Y-84245501D01*
X114075699Y-84260265D01*
X113991516Y-84316515D01*
X113960789Y-84362502D01*
X113954598Y-84367675D01*
X113951248Y-84375012D01*
X113927751Y-84390112D01*
X113906312Y-84408030D01*
X113896785Y-84410013D01*
X113891522Y-84413396D01*
X113856024Y-84418500D01*
X113743976Y-84418500D01*
X113675855Y-84398498D01*
X113639211Y-84362502D01*
X113608484Y-84316516D01*
X113600000Y-84310847D01*
X113524302Y-84260266D01*
X113450068Y-84245500D01*
X112649936Y-84245500D01*
X112649924Y-84245502D01*
X112564704Y-84262452D01*
X112493990Y-84256123D01*
X112437924Y-84212568D01*
X112414305Y-84145615D01*
X112430634Y-84076521D01*
X112431007Y-84075872D01*
X112466709Y-84014034D01*
X112466708Y-84014034D01*
X112466712Y-84014029D01*
X112504500Y-83873001D01*
X112504500Y-83726999D01*
X112466712Y-83585971D01*
X112466710Y-83585968D01*
X112466710Y-83585966D01*
X112393713Y-83459532D01*
X112393705Y-83459522D01*
X112290477Y-83356294D01*
X112290467Y-83356286D01*
X112164033Y-83283289D01*
X112145212Y-83278246D01*
X112023001Y-83245500D01*
X111998213Y-83245500D01*
X111930092Y-83225498D01*
X111883599Y-83171842D01*
X111873495Y-83101568D01*
X111902989Y-83036988D01*
X111909118Y-83030405D01*
X113221118Y-81718405D01*
X113283430Y-81684379D01*
X113310213Y-81681500D01*
X114264342Y-81681500D01*
X114332463Y-81701502D01*
X114369107Y-81737498D01*
X114406516Y-81793484D01*
X114490697Y-81849733D01*
X114490699Y-81849734D01*
X114564933Y-81864500D01*
X115215066Y-81864499D01*
X115215069Y-81864498D01*
X115215073Y-81864498D01*
X115264326Y-81854701D01*
X115289301Y-81849734D01*
X115373484Y-81793484D01*
X115374595Y-81791821D01*
X115377960Y-81789008D01*
X115382259Y-81784710D01*
X115382643Y-81785094D01*
X115429071Y-81746294D01*
X115491719Y-81736431D01*
X115497492Y-81737000D01*
X115683000Y-81737000D01*
X115937000Y-81737000D01*
X116122503Y-81737000D01*
X116122508Y-81736999D01*
X116159552Y-81729631D01*
X116201561Y-81701561D01*
X116229631Y-81659552D01*
X116236999Y-81622508D01*
X116237000Y-81622503D01*
X116237000Y-81427000D01*
X115937000Y-81427000D01*
X115937000Y-81737000D01*
X115683000Y-81737000D01*
X115683000Y-81173000D01*
X115937000Y-81173000D01*
X116237000Y-81173000D01*
X116237000Y-80977496D01*
X116236999Y-80977491D01*
X116229631Y-80940447D01*
X116201561Y-80898438D01*
X116159552Y-80870368D01*
X116122508Y-80863000D01*
X115937000Y-80863000D01*
X115937000Y-81173000D01*
X115683000Y-81173000D01*
X115683000Y-80863000D01*
X115497486Y-80863000D01*
X115491708Y-80863569D01*
X115421955Y-80850340D01*
X115398232Y-80834583D01*
X115384538Y-80823059D01*
X115373484Y-80806516D01*
X115331705Y-80778599D01*
X115326372Y-80774112D01*
X115310445Y-80750098D01*
X115291970Y-80727992D01*
X115290225Y-80719614D01*
X115287130Y-80714947D01*
X115286971Y-80703983D01*
X115281500Y-80677705D01*
X115281500Y-80630499D01*
X115301502Y-80562378D01*
X115355158Y-80515885D01*
X115407496Y-80504499D01*
X115750066Y-80504499D01*
X115750069Y-80504498D01*
X115750073Y-80504498D01*
X115771068Y-80500321D01*
X115824301Y-80489734D01*
X115824309Y-80489728D01*
X115826778Y-80488707D01*
X115832626Y-80488078D01*
X115836473Y-80487313D01*
X115836541Y-80487657D01*
X115897368Y-80481116D01*
X115923217Y-80488706D01*
X115925696Y-80489732D01*
X115925699Y-80489734D01*
X115999933Y-80504500D01*
X116400066Y-80504499D01*
X116400069Y-80504498D01*
X116400073Y-80504498D01*
X116449326Y-80494701D01*
X116474301Y-80489734D01*
X116558484Y-80433484D01*
X116558809Y-80432998D01*
X116559795Y-80432173D01*
X116567260Y-80424709D01*
X116567927Y-80425376D01*
X116613286Y-80387470D01*
X116663574Y-80377000D01*
X116723000Y-80377000D01*
X116977000Y-80377000D01*
X117037503Y-80377000D01*
X117037508Y-80376999D01*
X117074552Y-80369631D01*
X117116561Y-80341561D01*
X117144631Y-80299552D01*
X117151999Y-80262508D01*
X117152000Y-80262503D01*
X117152000Y-79977000D01*
X116977000Y-79977000D01*
X116977000Y-80377000D01*
X116723000Y-80377000D01*
X116723000Y-79976000D01*
X116725591Y-79967174D01*
X116724282Y-79958068D01*
X116735437Y-79933642D01*
X116743002Y-79907879D01*
X116749955Y-79901854D01*
X116753776Y-79893488D01*
X116776361Y-79878973D01*
X116796658Y-79861386D01*
X116807344Y-79859061D01*
X116813502Y-79855104D01*
X116849000Y-79850000D01*
X116850000Y-79850000D01*
X116850000Y-79849000D01*
X116870002Y-79780879D01*
X116923658Y-79734386D01*
X116976000Y-79723000D01*
X117152000Y-79723000D01*
X117152000Y-79431302D01*
X117153805Y-79431302D01*
X117165427Y-79369937D01*
X117207607Y-79322545D01*
X117216561Y-79316561D01*
X117244631Y-79274552D01*
X117251999Y-79237508D01*
X117252000Y-79237503D01*
X117252000Y-78477000D01*
X114498000Y-78477000D01*
X114498000Y-79237508D01*
X114502247Y-79258858D01*
X114495919Y-79329572D01*
X114486780Y-79347043D01*
X114485266Y-79350698D01*
X114470500Y-79424930D01*
X114470500Y-80275063D01*
X114470501Y-80275073D01*
X114485266Y-80349301D01*
X114485265Y-80349301D01*
X114497263Y-80367255D01*
X114503006Y-80385595D01*
X114513396Y-80401762D01*
X114517918Y-80433212D01*
X114518480Y-80435007D01*
X114518500Y-80437260D01*
X114518500Y-80664342D01*
X114498498Y-80732463D01*
X114462502Y-80769107D01*
X114406515Y-80806515D01*
X114369107Y-80862502D01*
X114314630Y-80908030D01*
X114264342Y-80918500D01*
X113049775Y-80918500D01*
X112997779Y-80932432D01*
X112952748Y-80944498D01*
X112952743Y-80944500D01*
X112883074Y-80984724D01*
X112883073Y-80984724D01*
X112865757Y-80994720D01*
X112865748Y-80994727D01*
X109714862Y-84145615D01*
X108665753Y-85194724D01*
X108645977Y-85214500D01*
X108594725Y-85265751D01*
X108594721Y-85265756D01*
X108544500Y-85352741D01*
X108518500Y-85449776D01*
X108518500Y-87256023D01*
X108498498Y-87324144D01*
X108489628Y-87336286D01*
X108477859Y-87350526D01*
X108416516Y-87391516D01*
X108360266Y-87475699D01*
X108355778Y-87498258D01*
X108335529Y-87522763D01*
X108331388Y-87525562D01*
X108329071Y-87529993D01*
X108302265Y-87545256D01*
X108276716Y-87562533D01*
X108271718Y-87562649D01*
X108267375Y-87565123D01*
X108238401Y-87568500D01*
X103561599Y-87568500D01*
X103493478Y-87548498D01*
X103446985Y-87494842D01*
X103444502Y-87487155D01*
X103444483Y-87487164D01*
X103439734Y-87475699D01*
X103429940Y-87461042D01*
X103383484Y-87391516D01*
X103383483Y-87391515D01*
X103337497Y-87360787D01*
X103291970Y-87306310D01*
X103281500Y-87256023D01*
X103281500Y-83888239D01*
X106270500Y-83888239D01*
X106270500Y-84081760D01*
X106300775Y-84272912D01*
X106360578Y-84456965D01*
X106448434Y-84629395D01*
X106448437Y-84629400D01*
X106544194Y-84761198D01*
X106544196Y-84761198D01*
X106898154Y-84407239D01*
X106929088Y-84453535D01*
X107031465Y-84555912D01*
X107077759Y-84586844D01*
X106723800Y-84940803D01*
X106723800Y-84940804D01*
X106855599Y-85036562D01*
X106855604Y-85036565D01*
X107028034Y-85124421D01*
X107212087Y-85184224D01*
X107403239Y-85214500D01*
X107596761Y-85214500D01*
X107787912Y-85184224D01*
X107971962Y-85124422D01*
X108144399Y-85036561D01*
X108144408Y-85036556D01*
X108276198Y-84940804D01*
X108276198Y-84940802D01*
X107922240Y-84586844D01*
X107968535Y-84555912D01*
X108070912Y-84453535D01*
X108101844Y-84407240D01*
X108455802Y-84761198D01*
X108455804Y-84761198D01*
X108551556Y-84629408D01*
X108551561Y-84629399D01*
X108639422Y-84456962D01*
X108699224Y-84272912D01*
X108729500Y-84081760D01*
X108729500Y-83888239D01*
X108699224Y-83697087D01*
X108639421Y-83513034D01*
X108551565Y-83340604D01*
X108551562Y-83340599D01*
X108455804Y-83208800D01*
X108455803Y-83208800D01*
X108101844Y-83562759D01*
X108070912Y-83516465D01*
X107968535Y-83414088D01*
X107922239Y-83383154D01*
X108276198Y-83029196D01*
X108276198Y-83029194D01*
X108144400Y-82933437D01*
X108144395Y-82933434D01*
X107971965Y-82845578D01*
X107787912Y-82785775D01*
X107596761Y-82755500D01*
X107403239Y-82755500D01*
X107212087Y-82785775D01*
X107028034Y-82845578D01*
X106855606Y-82933433D01*
X106723800Y-83029195D01*
X107077760Y-83383154D01*
X107031465Y-83414088D01*
X106929088Y-83516465D01*
X106898154Y-83562759D01*
X106544195Y-83208800D01*
X106448433Y-83340606D01*
X106360578Y-83513034D01*
X106300775Y-83697087D01*
X106270500Y-83888239D01*
X103281500Y-83888239D01*
X103281500Y-80260213D01*
X103301502Y-80192092D01*
X103318405Y-80171118D01*
X103998119Y-79491404D01*
X104060431Y-79457378D01*
X104087214Y-79454499D01*
X104350064Y-79454499D01*
X104350066Y-79454499D01*
X104350069Y-79454498D01*
X104350072Y-79454498D01*
X104386663Y-79447219D01*
X104424301Y-79439734D01*
X104508484Y-79383484D01*
X104564734Y-79299301D01*
X104579500Y-79225067D01*
X104579499Y-78574934D01*
X104579498Y-78574930D01*
X104579498Y-78574926D01*
X104564734Y-78500699D01*
X104508483Y-78416515D01*
X104424302Y-78360266D01*
X104350068Y-78345500D01*
X103549936Y-78345500D01*
X103549926Y-78345501D01*
X103475698Y-78360266D01*
X103469999Y-78364074D01*
X103456183Y-78368399D01*
X103444639Y-78377135D01*
X103422976Y-78378796D01*
X103402246Y-78385287D01*
X103386917Y-78381561D01*
X103373850Y-78382564D01*
X103350464Y-78372702D01*
X103340184Y-78370204D01*
X103334944Y-78367378D01*
X103324301Y-78360266D01*
X103320274Y-78359465D01*
X103307684Y-78352674D01*
X103286835Y-78332038D01*
X103263998Y-78313634D01*
X103261914Y-78307372D01*
X103257224Y-78302730D01*
X103250841Y-78274099D01*
X103241580Y-78246270D01*
X103241500Y-78241777D01*
X103241500Y-77376516D01*
X103261502Y-77308395D01*
X103315158Y-77261902D01*
X103342920Y-77252937D01*
X103354376Y-77250658D01*
X103409301Y-77239734D01*
X103424998Y-77229245D01*
X103492746Y-77208030D01*
X103561213Y-77226811D01*
X103564997Y-77229242D01*
X103580699Y-77239734D01*
X103654933Y-77254500D01*
X104605066Y-77254499D01*
X104605069Y-77254498D01*
X104605073Y-77254498D01*
X104634514Y-77248641D01*
X104679301Y-77239734D01*
X104694998Y-77229245D01*
X104762746Y-77208030D01*
X104831213Y-77226811D01*
X104834997Y-77229242D01*
X104850699Y-77239734D01*
X104924933Y-77254500D01*
X105875066Y-77254499D01*
X105875069Y-77254498D01*
X105875073Y-77254498D01*
X105904514Y-77248641D01*
X105949301Y-77239734D01*
X105964998Y-77229245D01*
X106032746Y-77208030D01*
X106101213Y-77226811D01*
X106104997Y-77229242D01*
X106120699Y-77239734D01*
X106194933Y-77254500D01*
X107145066Y-77254499D01*
X107145069Y-77254498D01*
X107145073Y-77254498D01*
X107174514Y-77248641D01*
X107219301Y-77239734D01*
X107234998Y-77229245D01*
X107302746Y-77208030D01*
X107371213Y-77226811D01*
X107374997Y-77229242D01*
X107390699Y-77239734D01*
X107464933Y-77254500D01*
X108415066Y-77254499D01*
X108415069Y-77254498D01*
X108415073Y-77254498D01*
X108464326Y-77244701D01*
X108489301Y-77239734D01*
X108573484Y-77183484D01*
X108629734Y-77099301D01*
X108644500Y-77025067D01*
X108644499Y-75872508D01*
X113563000Y-75872508D01*
X113570368Y-75909552D01*
X113598438Y-75951561D01*
X113640447Y-75979631D01*
X113677491Y-75986999D01*
X113677497Y-75987000D01*
X113863000Y-75987000D01*
X113863000Y-75677000D01*
X113563000Y-75677000D01*
X113563000Y-75872508D01*
X108644499Y-75872508D01*
X108644499Y-75474934D01*
X108635679Y-75430593D01*
X108635252Y-75421035D01*
X108641529Y-75395479D01*
X108643875Y-75369268D01*
X108650421Y-75359278D01*
X108652188Y-75352088D01*
X108659968Y-75344711D01*
X108672029Y-75326308D01*
X108770846Y-75227491D01*
X113563000Y-75227491D01*
X113563000Y-75423000D01*
X113863000Y-75423000D01*
X113863000Y-75113000D01*
X113677491Y-75113000D01*
X113640447Y-75120368D01*
X113598438Y-75148438D01*
X113570368Y-75190447D01*
X113563000Y-75227491D01*
X108770846Y-75227491D01*
X110353836Y-73644502D01*
X110416146Y-73610479D01*
X110442929Y-73607600D01*
X112253479Y-73607600D01*
X112321600Y-73627602D01*
X112368093Y-73681258D01*
X112378197Y-73751532D01*
X112375188Y-73766199D01*
X112345500Y-73876999D01*
X112345500Y-74023001D01*
X112369035Y-74110835D01*
X112383289Y-74164033D01*
X112456286Y-74290467D01*
X112456294Y-74290477D01*
X112559522Y-74393705D01*
X112559527Y-74393709D01*
X112559529Y-74393711D01*
X112559530Y-74393712D01*
X112559532Y-74393713D01*
X112685966Y-74466710D01*
X112685968Y-74466710D01*
X112685971Y-74466712D01*
X112826999Y-74504500D01*
X112827001Y-74504500D01*
X112972999Y-74504500D01*
X112973001Y-74504500D01*
X113114029Y-74466712D01*
X113114032Y-74466710D01*
X113114033Y-74466710D01*
X113193955Y-74420567D01*
X113240471Y-74393711D01*
X113240477Y-74393705D01*
X113265778Y-74368405D01*
X113328090Y-74334379D01*
X113354873Y-74331500D01*
X113914779Y-74331500D01*
X113982900Y-74351502D01*
X114029393Y-74405158D01*
X114038358Y-74432920D01*
X114050666Y-74494801D01*
X114050667Y-74494802D01*
X114106916Y-74578984D01*
X114191097Y-74635233D01*
X114191099Y-74635234D01*
X114265333Y-74650000D01*
X114392500Y-74649999D01*
X114401324Y-74652590D01*
X114410432Y-74651281D01*
X114434859Y-74662436D01*
X114460620Y-74670001D01*
X114466644Y-74676953D01*
X114475012Y-74680775D01*
X114489528Y-74703362D01*
X114507113Y-74723656D01*
X114509437Y-74734341D01*
X114513396Y-74740501D01*
X114518500Y-74775999D01*
X114518500Y-74927705D01*
X114498498Y-74995826D01*
X114462503Y-75032469D01*
X114426514Y-75056516D01*
X114425398Y-75058187D01*
X114422028Y-75061002D01*
X114417741Y-75065290D01*
X114417356Y-75064905D01*
X114370917Y-75103710D01*
X114308290Y-75113569D01*
X114302512Y-75113000D01*
X114117000Y-75113000D01*
X114117000Y-75987000D01*
X114302506Y-75987000D01*
X114308279Y-75986431D01*
X114378034Y-75999654D01*
X114400552Y-76014407D01*
X114415014Y-76026271D01*
X114426516Y-76043484D01*
X114477638Y-76077643D01*
X114482413Y-76081560D01*
X114499063Y-76105994D01*
X114518030Y-76128688D01*
X114519570Y-76136085D01*
X114522394Y-76140229D01*
X114522686Y-76151051D01*
X114528500Y-76178976D01*
X114528500Y-76247772D01*
X114508498Y-76315893D01*
X114507265Y-76317774D01*
X114485266Y-76350697D01*
X114470500Y-76424930D01*
X114470500Y-77275063D01*
X114470501Y-77275073D01*
X114485266Y-77349301D01*
X114490016Y-77360770D01*
X114488127Y-77361552D01*
X114504648Y-77414305D01*
X114502247Y-77441140D01*
X114498000Y-77462488D01*
X114498000Y-78223000D01*
X117252000Y-78223000D01*
X117252000Y-77462496D01*
X117251999Y-77462488D01*
X117247753Y-77441144D01*
X117254079Y-77370430D01*
X117263218Y-77352960D01*
X117264733Y-77349303D01*
X117264733Y-77349302D01*
X117264734Y-77349301D01*
X117279500Y-77275067D01*
X117279499Y-76424934D01*
X117279498Y-76424930D01*
X117279498Y-76424926D01*
X117269965Y-76377000D01*
X117264734Y-76350699D01*
X117252735Y-76332741D01*
X117231520Y-76264988D01*
X117231500Y-76262739D01*
X117231500Y-76145776D01*
X117230014Y-76140229D01*
X117205501Y-76048746D01*
X117205499Y-76048743D01*
X117205499Y-76048741D01*
X117155278Y-75961756D01*
X117155274Y-75961751D01*
X117125023Y-75931500D01*
X117084247Y-75890724D01*
X116438247Y-75244724D01*
X116438242Y-75244720D01*
X116420927Y-75234724D01*
X116420927Y-75234723D01*
X116420924Y-75234723D01*
X116351258Y-75194501D01*
X116351255Y-75194500D01*
X116351254Y-75194499D01*
X116351252Y-75194498D01*
X116351251Y-75194498D01*
X116325253Y-75187532D01*
X116254225Y-75168500D01*
X116254223Y-75168500D01*
X115535658Y-75168500D01*
X115467537Y-75148498D01*
X115446563Y-75131595D01*
X115437786Y-75122818D01*
X115393484Y-75056516D01*
X115327181Y-75012213D01*
X115318405Y-75003437D01*
X115307099Y-74982733D01*
X115291970Y-74964630D01*
X115288738Y-74949108D01*
X115284379Y-74941125D01*
X115285068Y-74931482D01*
X115281500Y-74914342D01*
X115281500Y-74775999D01*
X115301502Y-74707878D01*
X115355158Y-74661385D01*
X115407500Y-74649999D01*
X115534664Y-74649999D01*
X115534666Y-74649999D01*
X115534669Y-74649998D01*
X115534672Y-74649998D01*
X115571263Y-74642719D01*
X115608901Y-74635234D01*
X115693084Y-74578984D01*
X115749334Y-74494801D01*
X115764100Y-74420567D01*
X115764099Y-74069309D01*
X115770437Y-74047723D01*
X115772043Y-74025279D01*
X115780245Y-74014321D01*
X115784101Y-74001191D01*
X115801105Y-73986456D01*
X115814590Y-73968443D01*
X115827413Y-73963660D01*
X115837756Y-73954698D01*
X115860027Y-73951495D01*
X115881110Y-73943632D01*
X115894482Y-73946541D01*
X115908030Y-73944593D01*
X115928497Y-73953940D01*
X115950484Y-73958723D01*
X115968494Y-73972206D01*
X115972611Y-73974086D01*
X115979194Y-73980216D01*
X116109813Y-74110835D01*
X116109834Y-74110858D01*
X116185246Y-74186270D01*
X116185251Y-74186274D01*
X116185253Y-74186276D01*
X116185254Y-74186277D01*
X116185256Y-74186278D01*
X116272241Y-74236499D01*
X116272243Y-74236499D01*
X116272246Y-74236501D01*
X116369275Y-74262500D01*
X116469725Y-74262500D01*
X117285898Y-74262500D01*
X117354019Y-74282502D01*
X117374988Y-74299400D01*
X117435864Y-74360276D01*
X117435865Y-74360277D01*
X117435867Y-74360278D01*
X117522852Y-74410499D01*
X117522854Y-74410499D01*
X117522857Y-74410501D01*
X117619886Y-74436500D01*
X117619888Y-74436500D01*
X118180112Y-74436500D01*
X118180114Y-74436500D01*
X118277143Y-74410501D01*
X118277146Y-74410499D01*
X118277147Y-74410499D01*
X118350056Y-74368405D01*
X118364136Y-74360276D01*
X118372910Y-74351502D01*
X118391008Y-74333405D01*
X118453320Y-74299379D01*
X118480103Y-74296500D01*
X120320223Y-74296500D01*
X120320225Y-74296500D01*
X120417254Y-74270501D01*
X120417257Y-74270499D01*
X120417258Y-74270499D01*
X120476148Y-74236499D01*
X120504247Y-74220276D01*
X120575276Y-74149247D01*
X120614795Y-74080794D01*
X120634810Y-74054711D01*
X120738120Y-73951401D01*
X120800430Y-73917378D01*
X120827213Y-73914499D01*
X120890064Y-73914499D01*
X120890066Y-73914499D01*
X120890069Y-73914498D01*
X120890072Y-73914498D01*
X120926663Y-73907219D01*
X120964301Y-73899734D01*
X121048484Y-73843484D01*
X121104734Y-73759301D01*
X121119500Y-73685067D01*
X121119500Y-73672508D01*
X121408000Y-73672508D01*
X121415368Y-73709552D01*
X121443438Y-73751561D01*
X121485447Y-73779631D01*
X121522491Y-73786999D01*
X121522497Y-73787000D01*
X121623000Y-73787000D01*
X121877000Y-73787000D01*
X121977503Y-73787000D01*
X121977508Y-73786999D01*
X122014552Y-73779631D01*
X122056561Y-73751561D01*
X122084631Y-73709552D01*
X122091999Y-73672508D01*
X122092000Y-73672503D01*
X122092000Y-73627000D01*
X121877000Y-73627000D01*
X121877000Y-73787000D01*
X121623000Y-73787000D01*
X121623000Y-73627000D01*
X121408000Y-73627000D01*
X121408000Y-73672508D01*
X121119500Y-73672508D01*
X121119499Y-73327491D01*
X121408000Y-73327491D01*
X121408000Y-73373000D01*
X121623000Y-73373000D01*
X121877000Y-73373000D01*
X122092000Y-73373000D01*
X122092000Y-73327496D01*
X122091999Y-73327491D01*
X122084631Y-73290447D01*
X122056561Y-73248438D01*
X122014552Y-73220368D01*
X121977508Y-73213000D01*
X121877000Y-73213000D01*
X121877000Y-73373000D01*
X121623000Y-73373000D01*
X121623000Y-73213000D01*
X121522491Y-73213000D01*
X121485447Y-73220368D01*
X121443438Y-73248438D01*
X121415368Y-73290447D01*
X121408000Y-73327491D01*
X121119499Y-73327491D01*
X121119499Y-73314934D01*
X121119498Y-73314931D01*
X121119498Y-73314926D01*
X121104734Y-73240699D01*
X121048483Y-73156515D01*
X120964302Y-73100266D01*
X120890069Y-73085500D01*
X120890067Y-73085500D01*
X120827213Y-73085500D01*
X120797297Y-73076716D01*
X120766828Y-73070088D01*
X120761732Y-73066273D01*
X120759092Y-73065498D01*
X120738118Y-73048595D01*
X120600385Y-72910862D01*
X120566359Y-72848550D01*
X120563480Y-72821767D01*
X120563480Y-71693000D01*
X121285978Y-71693000D01*
X121726913Y-71693000D01*
X121720444Y-71704204D01*
X121700000Y-71780504D01*
X121700000Y-71859496D01*
X121720444Y-71935796D01*
X121726913Y-71947000D01*
X121285978Y-71947000D01*
X121297096Y-72002892D01*
X121344361Y-72116997D01*
X121412976Y-72219687D01*
X121412981Y-72219693D01*
X121500306Y-72307018D01*
X121500312Y-72307023D01*
X121603002Y-72375638D01*
X121717109Y-72422903D01*
X121717110Y-72422904D01*
X121838243Y-72446999D01*
X121838247Y-72447000D01*
X122273000Y-72447000D01*
X122273000Y-72120000D01*
X122527000Y-72120000D01*
X122527000Y-72447000D01*
X122961753Y-72447000D01*
X122961756Y-72446999D01*
X123082889Y-72422904D01*
X123082890Y-72422903D01*
X123196997Y-72375638D01*
X123299687Y-72307023D01*
X123299693Y-72307018D01*
X123387018Y-72219693D01*
X123387023Y-72219687D01*
X123455638Y-72116997D01*
X123502903Y-72002892D01*
X123514022Y-71947000D01*
X123073087Y-71947000D01*
X123079556Y-71935796D01*
X123100000Y-71859496D01*
X123100000Y-71780504D01*
X123079556Y-71704204D01*
X123073087Y-71693000D01*
X123514021Y-71693000D01*
X123502903Y-71637107D01*
X123455638Y-71523002D01*
X123387023Y-71420312D01*
X123387018Y-71420306D01*
X123299693Y-71332981D01*
X123299687Y-71332976D01*
X123196997Y-71264361D01*
X123082890Y-71217096D01*
X123082889Y-71217095D01*
X122961756Y-71193000D01*
X122527000Y-71193000D01*
X122527000Y-71520000D01*
X122273000Y-71520000D01*
X122273000Y-71193000D01*
X121838243Y-71193000D01*
X121717110Y-71217095D01*
X121717109Y-71217096D01*
X121603002Y-71264361D01*
X121500312Y-71332976D01*
X121500306Y-71332981D01*
X121412981Y-71420306D01*
X121412976Y-71420312D01*
X121344361Y-71523002D01*
X121297096Y-71637107D01*
X121285978Y-71693000D01*
X120563480Y-71693000D01*
X120563480Y-70261705D01*
X120541435Y-70179433D01*
X120537481Y-70164675D01*
X120537479Y-70164672D01*
X120537479Y-70164670D01*
X120487258Y-70077685D01*
X120487254Y-70077680D01*
X120416227Y-70006653D01*
X119275385Y-68865811D01*
X119241359Y-68803499D01*
X119238480Y-68776716D01*
X119238480Y-68136555D01*
X119234178Y-68120500D01*
X119212481Y-68039525D01*
X119212479Y-68039522D01*
X119212479Y-68039520D01*
X119162258Y-67952535D01*
X119162254Y-67952530D01*
X119128094Y-67918370D01*
X119091227Y-67881503D01*
X119091225Y-67881501D01*
X118893405Y-67683681D01*
X118859379Y-67621369D01*
X118856500Y-67594586D01*
X118856500Y-66794776D01*
X118856447Y-66794578D01*
X118830501Y-66697746D01*
X118830499Y-66697743D01*
X118830499Y-66697741D01*
X118780278Y-66610756D01*
X118780270Y-66610746D01*
X118707062Y-66537538D01*
X118707052Y-66537530D01*
X118614247Y-66444724D01*
X118529298Y-66395679D01*
X118521906Y-66389780D01*
X118506734Y-66368149D01*
X118488506Y-66349032D01*
X118485957Y-66338526D01*
X118481138Y-66331655D01*
X118480506Y-66316058D01*
X118474499Y-66291295D01*
X118474499Y-66257500D01*
X118494501Y-66189379D01*
X118548157Y-66142886D01*
X118600499Y-66131500D01*
X118630072Y-66131500D01*
X118630074Y-66131500D01*
X118727103Y-66105501D01*
X118727106Y-66105499D01*
X118727107Y-66105499D01*
X118780063Y-66074925D01*
X118814096Y-66055276D01*
X118885125Y-65984247D01*
X120105276Y-64764096D01*
X120116590Y-64744499D01*
X120155501Y-64677103D01*
X120181500Y-64580074D01*
X120181500Y-63053000D01*
X121285978Y-63053000D01*
X121726913Y-63053000D01*
X121720444Y-63064204D01*
X121700000Y-63140504D01*
X121700000Y-63219496D01*
X121720444Y-63295796D01*
X121726913Y-63307000D01*
X121285978Y-63307000D01*
X121297096Y-63362892D01*
X121344361Y-63476997D01*
X121412976Y-63579687D01*
X121412981Y-63579693D01*
X121500306Y-63667018D01*
X121500312Y-63667023D01*
X121603002Y-63735638D01*
X121717109Y-63782903D01*
X121717110Y-63782904D01*
X121838243Y-63806999D01*
X121838247Y-63807000D01*
X122273000Y-63807000D01*
X122273000Y-63480000D01*
X122527000Y-63480000D01*
X122527000Y-63807000D01*
X122961753Y-63807000D01*
X122961756Y-63806999D01*
X123082889Y-63782904D01*
X123082890Y-63782903D01*
X123196997Y-63735638D01*
X123299687Y-63667023D01*
X123299693Y-63667018D01*
X123387018Y-63579693D01*
X123387023Y-63579687D01*
X123455638Y-63476997D01*
X123502903Y-63362892D01*
X123514022Y-63307000D01*
X123073087Y-63307000D01*
X123079556Y-63295796D01*
X123100000Y-63219496D01*
X123100000Y-63140504D01*
X123079556Y-63064204D01*
X123073087Y-63053000D01*
X123514021Y-63053000D01*
X123502903Y-62997107D01*
X123455638Y-62883002D01*
X123387023Y-62780312D01*
X123387018Y-62780306D01*
X123299693Y-62692981D01*
X123299687Y-62692976D01*
X123196997Y-62624361D01*
X123082890Y-62577096D01*
X123082889Y-62577095D01*
X122961756Y-62553000D01*
X122527000Y-62553000D01*
X122527000Y-62880000D01*
X122273000Y-62880000D01*
X122273000Y-62553000D01*
X121838243Y-62553000D01*
X121717110Y-62577095D01*
X121717109Y-62577096D01*
X121603002Y-62624361D01*
X121500312Y-62692976D01*
X121500306Y-62692981D01*
X121412981Y-62780306D01*
X121412976Y-62780312D01*
X121344361Y-62883002D01*
X121297096Y-62997107D01*
X121285978Y-63053000D01*
X120181500Y-63053000D01*
X120181500Y-62261598D01*
X120201502Y-62193477D01*
X120255158Y-62146984D01*
X120262844Y-62144502D01*
X120262836Y-62144483D01*
X120274299Y-62139734D01*
X120274301Y-62139734D01*
X120358484Y-62083484D01*
X120363091Y-62076588D01*
X120417567Y-62031060D01*
X120488010Y-62022211D01*
X120492441Y-62023011D01*
X120512488Y-62026999D01*
X120512497Y-62027000D01*
X120773000Y-62027000D01*
X121027000Y-62027000D01*
X121287503Y-62027000D01*
X121287508Y-62026999D01*
X121324552Y-62019631D01*
X121366561Y-61991561D01*
X121394631Y-61949552D01*
X121401999Y-61912508D01*
X121402000Y-61912503D01*
X121402000Y-61727000D01*
X121027000Y-61727000D01*
X121027000Y-62027000D01*
X120773000Y-62027000D01*
X120773000Y-61473000D01*
X121027000Y-61473000D01*
X121402000Y-61473000D01*
X121402000Y-61287496D01*
X121401999Y-61287491D01*
X121394631Y-61250447D01*
X121366561Y-61208438D01*
X121324552Y-61180368D01*
X121287508Y-61173000D01*
X121027000Y-61173000D01*
X121027000Y-61473000D01*
X120773000Y-61473000D01*
X120773000Y-61173000D01*
X120512488Y-61173000D01*
X120492437Y-61176989D01*
X120421723Y-61170660D01*
X120365656Y-61127105D01*
X120363093Y-61123413D01*
X120358484Y-61116515D01*
X120274302Y-61060266D01*
X120200068Y-61045500D01*
X119399936Y-61045500D01*
X119399926Y-61045501D01*
X119325699Y-61060265D01*
X119241515Y-61116516D01*
X119185266Y-61200697D01*
X119170500Y-61274930D01*
X119170500Y-61925063D01*
X119170501Y-61925073D01*
X119185265Y-61999300D01*
X119241516Y-62083484D01*
X119325697Y-62139734D01*
X119337163Y-62144483D01*
X119335786Y-62147807D01*
X119379968Y-62170904D01*
X119415116Y-62232590D01*
X119418500Y-62261598D01*
X119418500Y-62627242D01*
X119398498Y-62695363D01*
X119344842Y-62741856D01*
X119274568Y-62751960D01*
X119209988Y-62722466D01*
X119203405Y-62716337D01*
X119160630Y-62673562D01*
X119160624Y-62673557D01*
X119053838Y-62602205D01*
X118935186Y-62553058D01*
X118935181Y-62553056D01*
X118809218Y-62528000D01*
X118347000Y-62528000D01*
X118347000Y-62880000D01*
X118093000Y-62880000D01*
X118093000Y-62528000D01*
X117630781Y-62528000D01*
X117504818Y-62553056D01*
X117504813Y-62553058D01*
X117386161Y-62602205D01*
X117279375Y-62673557D01*
X117279369Y-62673562D01*
X117188562Y-62764369D01*
X117188557Y-62764375D01*
X117117205Y-62871161D01*
X117068055Y-62989820D01*
X117068054Y-62989823D01*
X117055488Y-63052999D01*
X117055489Y-63053000D01*
X117396913Y-63053000D01*
X117390444Y-63064204D01*
X117370000Y-63140504D01*
X117370000Y-63219496D01*
X117390444Y-63295796D01*
X117396913Y-63307000D01*
X117055488Y-63307000D01*
X117068054Y-63370176D01*
X117068055Y-63370179D01*
X117117205Y-63488838D01*
X117188557Y-63595624D01*
X117188562Y-63595630D01*
X117250837Y-63657905D01*
X117284863Y-63720217D01*
X117279798Y-63791032D01*
X117237251Y-63847868D01*
X117170731Y-63872679D01*
X117161742Y-63873000D01*
X117057491Y-63873000D01*
X117020447Y-63880368D01*
X116978438Y-63908438D01*
X116950368Y-63950447D01*
X116943000Y-63987491D01*
X116943000Y-64173000D01*
X117459000Y-64173000D01*
X117467825Y-64175591D01*
X117476932Y-64174282D01*
X117501357Y-64185437D01*
X117527121Y-64193002D01*
X117533145Y-64199955D01*
X117541512Y-64203776D01*
X117556026Y-64226361D01*
X117573614Y-64246658D01*
X117575938Y-64257344D01*
X117579896Y-64263502D01*
X117585000Y-64299000D01*
X117585000Y-64301000D01*
X117564998Y-64369121D01*
X117511342Y-64415614D01*
X117459000Y-64427000D01*
X116943000Y-64427000D01*
X116943000Y-64511426D01*
X116922998Y-64579547D01*
X116914729Y-64590956D01*
X116902763Y-64605659D01*
X116886516Y-64616516D01*
X116852493Y-64667433D01*
X116848753Y-64672030D01*
X116824187Y-64688912D01*
X116801312Y-64708030D01*
X116794221Y-64709506D01*
X116790242Y-64712241D01*
X116779488Y-64712573D01*
X116751024Y-64718500D01*
X116007124Y-64718500D01*
X115939003Y-64698498D01*
X115937121Y-64697264D01*
X115859302Y-64645266D01*
X115785068Y-64630500D01*
X115414936Y-64630500D01*
X115414926Y-64630501D01*
X115340699Y-64645265D01*
X115256515Y-64701516D01*
X115200266Y-64785697D01*
X115185500Y-64859930D01*
X115185500Y-64922785D01*
X115165498Y-64990906D01*
X115148595Y-65011880D01*
X114648030Y-65512445D01*
X114648028Y-65512448D01*
X114594729Y-65565746D01*
X114594721Y-65565756D01*
X114544500Y-65652741D01*
X114518500Y-65749776D01*
X114518500Y-69824000D01*
X114498498Y-69892121D01*
X114444842Y-69938614D01*
X114392501Y-69950000D01*
X114265337Y-69950000D01*
X114265326Y-69950001D01*
X114191099Y-69964765D01*
X114106915Y-70021016D01*
X114050666Y-70105197D01*
X114035900Y-70179430D01*
X114035900Y-71143963D01*
X114035901Y-71143973D01*
X114050665Y-71218200D01*
X114106916Y-71302384D01*
X114191097Y-71358633D01*
X114191099Y-71358634D01*
X114265333Y-71373400D01*
X115534666Y-71373399D01*
X115534669Y-71373398D01*
X115534673Y-71373398D01*
X115583926Y-71363601D01*
X115608901Y-71358634D01*
X115693084Y-71302384D01*
X115749334Y-71218201D01*
X115764100Y-71143967D01*
X115764099Y-70407499D01*
X115784101Y-70339379D01*
X115837757Y-70292886D01*
X115890099Y-70281500D01*
X116751024Y-70281500D01*
X116752962Y-70282069D01*
X116754918Y-70281560D01*
X116786877Y-70292027D01*
X116819145Y-70301502D01*
X116821076Y-70303228D01*
X116822388Y-70303658D01*
X116828622Y-70309973D01*
X116848753Y-70327970D01*
X116852493Y-70332566D01*
X116886516Y-70383484D01*
X116902765Y-70394341D01*
X116914729Y-70409043D01*
X116921428Y-70424999D01*
X116932526Y-70438277D01*
X116937962Y-70464381D01*
X116942212Y-70474504D01*
X116941232Y-70480085D01*
X116943000Y-70488573D01*
X116943000Y-70573000D01*
X117459000Y-70573000D01*
X117467825Y-70575591D01*
X117476932Y-70574282D01*
X117501357Y-70585437D01*
X117527121Y-70593002D01*
X117533145Y-70599955D01*
X117541512Y-70603776D01*
X117556026Y-70626361D01*
X117573614Y-70646658D01*
X117575938Y-70657344D01*
X117579896Y-70663502D01*
X117585000Y-70699000D01*
X117585000Y-70701000D01*
X117564998Y-70769121D01*
X117511342Y-70815614D01*
X117459000Y-70827000D01*
X116943000Y-70827000D01*
X116943000Y-71012508D01*
X116950368Y-71049552D01*
X116978438Y-71091561D01*
X117020447Y-71119631D01*
X117057491Y-71126999D01*
X117057497Y-71127000D01*
X117161742Y-71127000D01*
X117229863Y-71147002D01*
X117276356Y-71200658D01*
X117286460Y-71270932D01*
X117256966Y-71335512D01*
X117250837Y-71342095D01*
X117188562Y-71404369D01*
X117188557Y-71404375D01*
X117117205Y-71511161D01*
X117068055Y-71629820D01*
X117068054Y-71629823D01*
X117055488Y-71692999D01*
X117055489Y-71693000D01*
X117396913Y-71693000D01*
X117390444Y-71704204D01*
X117370000Y-71780504D01*
X117370000Y-71859496D01*
X117390444Y-71935796D01*
X117396913Y-71947000D01*
X117055488Y-71947000D01*
X117068054Y-72010176D01*
X117068055Y-72010179D01*
X117117205Y-72128838D01*
X117188557Y-72235624D01*
X117188562Y-72235630D01*
X117279369Y-72326437D01*
X117279375Y-72326442D01*
X117386161Y-72397794D01*
X117423035Y-72413068D01*
X117478316Y-72457616D01*
X117500737Y-72524979D01*
X117483179Y-72593771D01*
X117442134Y-72634330D01*
X117442416Y-72634697D01*
X117439497Y-72636936D01*
X117437819Y-72638595D01*
X117435867Y-72639721D01*
X117435861Y-72639726D01*
X117253821Y-72821767D01*
X116994971Y-73080616D01*
X116967605Y-73095559D01*
X116941376Y-73112416D01*
X116935074Y-73113322D01*
X116932661Y-73114640D01*
X116905878Y-73117520D01*
X116787934Y-73117520D01*
X116719813Y-73097518D01*
X116698838Y-73080615D01*
X116439990Y-72821767D01*
X116157068Y-72538844D01*
X116157066Y-72538843D01*
X116157064Y-72538841D01*
X116070079Y-72488620D01*
X116058613Y-72485547D01*
X115973046Y-72462620D01*
X110024270Y-72462620D01*
X109964885Y-72478532D01*
X109927236Y-72488620D01*
X109840251Y-72538841D01*
X109840241Y-72538849D01*
X107552497Y-74826595D01*
X107490185Y-74860620D01*
X107463402Y-74863500D01*
X107285225Y-74863500D01*
X107184775Y-74863500D01*
X107125390Y-74879412D01*
X107087741Y-74889500D01*
X107000756Y-74939721D01*
X107000746Y-74939729D01*
X106929729Y-75010746D01*
X106929721Y-75010756D01*
X106879499Y-75097744D01*
X106864931Y-75152112D01*
X106827979Y-75212735D01*
X106764119Y-75243756D01*
X106743225Y-75245500D01*
X106194936Y-75245500D01*
X106194926Y-75245501D01*
X106120699Y-75260265D01*
X106105001Y-75270755D01*
X106037248Y-75291969D01*
X105968781Y-75273185D01*
X105964997Y-75270754D01*
X105949300Y-75260265D01*
X105875067Y-75245500D01*
X104924936Y-75245500D01*
X104924926Y-75245501D01*
X104850699Y-75260265D01*
X104835001Y-75270755D01*
X104767248Y-75291969D01*
X104698781Y-75273185D01*
X104694997Y-75270754D01*
X104679300Y-75260265D01*
X104605067Y-75245500D01*
X103654936Y-75245500D01*
X103654926Y-75245501D01*
X103580699Y-75260265D01*
X103565001Y-75270755D01*
X103497248Y-75291969D01*
X103428781Y-75273185D01*
X103424997Y-75270754D01*
X103409300Y-75260265D01*
X103335067Y-75245500D01*
X102384936Y-75245500D01*
X102384926Y-75245501D01*
X102310699Y-75260265D01*
X102295001Y-75270755D01*
X102227248Y-75291969D01*
X102158781Y-75273185D01*
X102154997Y-75270754D01*
X102139300Y-75260265D01*
X102065067Y-75245500D01*
X101114936Y-75245500D01*
X101114926Y-75245501D01*
X101040699Y-75260265D01*
X101025001Y-75270755D01*
X100957248Y-75291969D01*
X100888781Y-75273185D01*
X100884997Y-75270754D01*
X100869300Y-75260265D01*
X100795067Y-75245500D01*
X99844936Y-75245500D01*
X99844926Y-75245501D01*
X99770699Y-75260265D01*
X99755001Y-75270755D01*
X99687248Y-75291969D01*
X99618781Y-75273185D01*
X99614997Y-75270754D01*
X99599300Y-75260265D01*
X99525067Y-75245500D01*
X98574936Y-75245500D01*
X98574926Y-75245501D01*
X98500699Y-75260265D01*
X98485001Y-75270755D01*
X98417248Y-75291969D01*
X98348781Y-75273185D01*
X98344997Y-75270754D01*
X98329300Y-75260265D01*
X98255067Y-75245500D01*
X97304936Y-75245500D01*
X97304926Y-75245501D01*
X97230699Y-75260265D01*
X97215001Y-75270755D01*
X97147248Y-75291969D01*
X97078781Y-75273185D01*
X97074997Y-75270754D01*
X97059300Y-75260265D01*
X96985067Y-75245500D01*
X96034936Y-75245500D01*
X96034926Y-75245501D01*
X95960699Y-75260265D01*
X95945001Y-75270755D01*
X95877248Y-75291969D01*
X95808781Y-75273185D01*
X95804997Y-75270754D01*
X95789300Y-75260265D01*
X95715067Y-75245500D01*
X94764936Y-75245500D01*
X94764926Y-75245501D01*
X94690699Y-75260265D01*
X94675001Y-75270755D01*
X94607248Y-75291969D01*
X94538781Y-75273185D01*
X94534997Y-75270754D01*
X94519300Y-75260265D01*
X94445067Y-75245500D01*
X93494936Y-75245500D01*
X93494926Y-75245501D01*
X93420699Y-75260265D01*
X93405001Y-75270755D01*
X93337248Y-75291969D01*
X93268781Y-75273185D01*
X93264997Y-75270754D01*
X93249300Y-75260265D01*
X93175067Y-75245500D01*
X92224936Y-75245500D01*
X92224926Y-75245501D01*
X92150699Y-75260265D01*
X92066514Y-75316517D01*
X92059558Y-75326927D01*
X92005079Y-75372453D01*
X91934636Y-75381298D01*
X91930217Y-75380500D01*
X91892513Y-75373000D01*
X91557000Y-75373000D01*
X91303000Y-75373000D01*
X90967491Y-75373000D01*
X90930447Y-75380368D01*
X90888438Y-75408438D01*
X90860368Y-75450447D01*
X90853000Y-75487491D01*
X90300500Y-75487491D01*
X90300500Y-70667508D01*
X95373000Y-70667508D01*
X95380368Y-70704552D01*
X95408438Y-70746561D01*
X95450447Y-70774631D01*
X95487491Y-70781999D01*
X95487497Y-70782000D01*
X95773000Y-70782000D01*
X96027000Y-70782000D01*
X96312503Y-70782000D01*
X96312508Y-70781999D01*
X96349552Y-70774631D01*
X96391561Y-70746561D01*
X96420234Y-70703650D01*
X96474711Y-70658122D01*
X96545154Y-70649273D01*
X96609198Y-70679914D01*
X96629766Y-70703650D01*
X96658438Y-70746561D01*
X96700447Y-70774631D01*
X96737491Y-70781999D01*
X96737497Y-70782000D01*
X97023000Y-70782000D01*
X97277000Y-70782000D01*
X97562503Y-70782000D01*
X97562508Y-70781999D01*
X97599552Y-70774631D01*
X97641561Y-70746561D01*
X97670234Y-70703650D01*
X97724711Y-70658122D01*
X97795154Y-70649273D01*
X97859198Y-70679914D01*
X97879766Y-70703650D01*
X97908438Y-70746561D01*
X97950447Y-70774631D01*
X97987491Y-70781999D01*
X97987497Y-70782000D01*
X98273000Y-70782000D01*
X98527000Y-70782000D01*
X98812503Y-70782000D01*
X98812508Y-70781999D01*
X98849552Y-70774631D01*
X98891561Y-70746561D01*
X98919631Y-70704552D01*
X98926999Y-70667508D01*
X98927000Y-70667503D01*
X98927000Y-70382000D01*
X98527000Y-70382000D01*
X98527000Y-70782000D01*
X98273000Y-70782000D01*
X98273000Y-70382000D01*
X97872999Y-70382000D01*
X97864095Y-70390904D01*
X97844348Y-70401686D01*
X97827342Y-70416423D01*
X97813794Y-70418370D01*
X97801783Y-70424930D01*
X97779339Y-70423324D01*
X97757068Y-70426527D01*
X97744618Y-70420841D01*
X97730968Y-70419865D01*
X97712954Y-70406380D01*
X97692488Y-70397033D01*
X97685905Y-70390904D01*
X97677001Y-70382000D01*
X97277000Y-70382000D01*
X97277000Y-70782000D01*
X97023000Y-70782000D01*
X97023000Y-70382000D01*
X96622999Y-70382000D01*
X96614095Y-70390904D01*
X96594348Y-70401686D01*
X96577342Y-70416423D01*
X96563794Y-70418370D01*
X96551783Y-70424930D01*
X96529339Y-70423324D01*
X96507068Y-70426527D01*
X96494618Y-70420841D01*
X96480968Y-70419865D01*
X96462954Y-70406380D01*
X96442488Y-70397033D01*
X96435905Y-70390904D01*
X96427001Y-70382000D01*
X96027000Y-70382000D01*
X96027000Y-70782000D01*
X95773000Y-70782000D01*
X95773000Y-70382000D01*
X95373000Y-70382000D01*
X95373000Y-70667508D01*
X90300500Y-70667508D01*
X90300500Y-69417508D01*
X95373000Y-69417508D01*
X95380368Y-69454552D01*
X95408438Y-69496562D01*
X95451350Y-69525235D01*
X95496878Y-69579712D01*
X95505726Y-69650155D01*
X95475085Y-69714199D01*
X95451350Y-69734765D01*
X95408438Y-69763437D01*
X95380368Y-69805447D01*
X95373000Y-69842491D01*
X95373000Y-70128000D01*
X95773000Y-70128000D01*
X95773000Y-69727999D01*
X95764096Y-69719095D01*
X95753313Y-69699348D01*
X95738577Y-69682342D01*
X95736629Y-69668794D01*
X95730070Y-69656783D01*
X95731675Y-69634339D01*
X95728473Y-69612068D01*
X95734158Y-69599618D01*
X95735135Y-69585968D01*
X95748619Y-69567954D01*
X95757967Y-69547488D01*
X95764096Y-69540905D01*
X95773000Y-69532001D01*
X96027000Y-69532001D01*
X96035904Y-69540905D01*
X96046686Y-69560651D01*
X96061423Y-69577658D01*
X96063370Y-69591205D01*
X96069930Y-69603217D01*
X96068324Y-69625660D01*
X96071527Y-69647932D01*
X96065841Y-69660381D01*
X96064865Y-69674032D01*
X96046694Y-69702304D01*
X96042033Y-69712512D01*
X96038799Y-69714590D01*
X96035904Y-69719095D01*
X96027000Y-69727999D01*
X96027000Y-70128000D01*
X96427001Y-70128000D01*
X96435905Y-70119096D01*
X96455651Y-70108313D01*
X96472658Y-70093577D01*
X96486205Y-70091629D01*
X96498217Y-70085070D01*
X96520660Y-70086675D01*
X96542932Y-70083473D01*
X96555381Y-70089158D01*
X96569032Y-70090135D01*
X96597304Y-70108305D01*
X96607512Y-70112967D01*
X96609590Y-70116200D01*
X96614095Y-70119096D01*
X96622999Y-70128000D01*
X97023000Y-70128000D01*
X97023000Y-69727999D01*
X97014096Y-69719095D01*
X97003313Y-69699348D01*
X96988577Y-69682342D01*
X96986629Y-69668794D01*
X96980070Y-69656783D01*
X96981675Y-69634339D01*
X96978473Y-69612068D01*
X96984158Y-69599618D01*
X96985135Y-69585968D01*
X96998619Y-69567954D01*
X97007967Y-69547488D01*
X97014096Y-69540905D01*
X97023000Y-69532001D01*
X97277000Y-69532001D01*
X97285904Y-69540905D01*
X97296686Y-69560651D01*
X97311423Y-69577658D01*
X97313370Y-69591205D01*
X97319930Y-69603217D01*
X97318324Y-69625660D01*
X97321527Y-69647932D01*
X97315841Y-69660381D01*
X97314865Y-69674032D01*
X97296694Y-69702304D01*
X97292033Y-69712512D01*
X97288799Y-69714590D01*
X97285904Y-69719095D01*
X97277000Y-69727999D01*
X97277000Y-70128000D01*
X97677001Y-70128000D01*
X97685905Y-70119096D01*
X97705651Y-70108313D01*
X97722658Y-70093577D01*
X97736205Y-70091629D01*
X97748217Y-70085070D01*
X97770660Y-70086675D01*
X97792932Y-70083473D01*
X97805381Y-70089158D01*
X97819032Y-70090135D01*
X97847304Y-70108305D01*
X97857512Y-70112967D01*
X97859590Y-70116200D01*
X97864095Y-70119096D01*
X97872999Y-70128000D01*
X98273000Y-70128000D01*
X98273000Y-69727999D01*
X98264096Y-69719095D01*
X98253313Y-69699348D01*
X98238577Y-69682342D01*
X98236629Y-69668794D01*
X98230070Y-69656783D01*
X98231675Y-69634339D01*
X98228473Y-69612068D01*
X98234158Y-69599618D01*
X98235135Y-69585968D01*
X98248619Y-69567954D01*
X98257967Y-69547488D01*
X98264096Y-69540905D01*
X98273000Y-69532001D01*
X98527000Y-69532001D01*
X98535904Y-69540905D01*
X98546686Y-69560651D01*
X98561423Y-69577658D01*
X98563370Y-69591205D01*
X98569930Y-69603217D01*
X98568324Y-69625660D01*
X98571527Y-69647932D01*
X98565841Y-69660381D01*
X98564865Y-69674032D01*
X98546694Y-69702304D01*
X98542033Y-69712512D01*
X98538799Y-69714590D01*
X98535904Y-69719095D01*
X98527000Y-69727999D01*
X98527000Y-70128000D01*
X98927000Y-70128000D01*
X98927000Y-69842496D01*
X98926999Y-69842491D01*
X98919631Y-69805447D01*
X98891561Y-69763438D01*
X98848650Y-69734766D01*
X98803122Y-69680289D01*
X98794273Y-69609846D01*
X98824914Y-69545802D01*
X98848650Y-69525234D01*
X98891561Y-69496561D01*
X98919631Y-69454552D01*
X98926999Y-69417508D01*
X98927000Y-69417503D01*
X98927000Y-69132000D01*
X98527000Y-69132000D01*
X98527000Y-69532001D01*
X98273000Y-69532001D01*
X98273000Y-69132000D01*
X97872999Y-69132000D01*
X97864095Y-69140904D01*
X97844348Y-69151686D01*
X97827342Y-69166423D01*
X97813794Y-69168370D01*
X97801783Y-69174930D01*
X97779339Y-69173324D01*
X97757068Y-69176527D01*
X97744618Y-69170841D01*
X97730968Y-69169865D01*
X97712954Y-69156380D01*
X97692488Y-69147033D01*
X97685905Y-69140904D01*
X97677001Y-69132000D01*
X97277000Y-69132000D01*
X97277000Y-69532001D01*
X97023000Y-69532001D01*
X97023000Y-69132000D01*
X96622999Y-69132000D01*
X96614095Y-69140904D01*
X96594348Y-69151686D01*
X96577342Y-69166423D01*
X96563794Y-69168370D01*
X96551783Y-69174930D01*
X96529339Y-69173324D01*
X96507068Y-69176527D01*
X96494618Y-69170841D01*
X96480968Y-69169865D01*
X96462954Y-69156380D01*
X96442488Y-69147033D01*
X96435905Y-69140904D01*
X96427001Y-69132000D01*
X96027000Y-69132000D01*
X96027000Y-69532001D01*
X95773000Y-69532001D01*
X95773000Y-69132000D01*
X95373000Y-69132000D01*
X95373000Y-69417508D01*
X90300500Y-69417508D01*
X90300500Y-68167508D01*
X95373000Y-68167508D01*
X95380368Y-68204552D01*
X95408438Y-68246562D01*
X95451350Y-68275235D01*
X95496878Y-68329712D01*
X95505726Y-68400155D01*
X95475085Y-68464199D01*
X95451350Y-68484765D01*
X95408438Y-68513437D01*
X95380368Y-68555447D01*
X95373000Y-68592491D01*
X95373000Y-68878000D01*
X95773000Y-68878000D01*
X95773000Y-68477999D01*
X95764096Y-68469095D01*
X95753313Y-68449348D01*
X95738577Y-68432342D01*
X95736629Y-68418794D01*
X95730070Y-68406783D01*
X95731675Y-68384339D01*
X95728473Y-68362068D01*
X95734158Y-68349618D01*
X95735135Y-68335968D01*
X95748619Y-68317954D01*
X95757967Y-68297488D01*
X95764096Y-68290905D01*
X95773000Y-68282001D01*
X96027000Y-68282001D01*
X96035904Y-68290905D01*
X96046686Y-68310651D01*
X96061423Y-68327658D01*
X96063370Y-68341205D01*
X96069930Y-68353217D01*
X96068324Y-68375660D01*
X96071527Y-68397932D01*
X96065841Y-68410381D01*
X96064865Y-68424032D01*
X96046694Y-68452304D01*
X96042033Y-68462512D01*
X96038799Y-68464590D01*
X96035904Y-68469095D01*
X96027000Y-68477999D01*
X96027000Y-68878000D01*
X96427001Y-68878000D01*
X96435905Y-68869096D01*
X96455651Y-68858313D01*
X96472658Y-68843577D01*
X96486205Y-68841629D01*
X96498217Y-68835070D01*
X96520660Y-68836675D01*
X96542932Y-68833473D01*
X96555381Y-68839158D01*
X96569032Y-68840135D01*
X96597304Y-68858305D01*
X96607512Y-68862967D01*
X96609590Y-68866200D01*
X96614095Y-68869096D01*
X96622999Y-68878000D01*
X97023000Y-68878000D01*
X97023000Y-68477999D01*
X97014096Y-68469095D01*
X97003313Y-68449348D01*
X96988577Y-68432342D01*
X96986629Y-68418794D01*
X96980070Y-68406783D01*
X96981675Y-68384339D01*
X96978473Y-68362068D01*
X96984158Y-68349618D01*
X96985135Y-68335968D01*
X96998619Y-68317954D01*
X97007967Y-68297488D01*
X97014096Y-68290905D01*
X97023000Y-68282001D01*
X97277000Y-68282001D01*
X97285904Y-68290905D01*
X97296686Y-68310651D01*
X97311423Y-68327658D01*
X97313370Y-68341205D01*
X97319930Y-68353217D01*
X97318324Y-68375660D01*
X97321527Y-68397932D01*
X97315841Y-68410381D01*
X97314865Y-68424032D01*
X97296694Y-68452304D01*
X97292033Y-68462512D01*
X97288799Y-68464590D01*
X97285904Y-68469095D01*
X97277000Y-68477999D01*
X97277000Y-68878000D01*
X97677001Y-68878000D01*
X97685905Y-68869096D01*
X97705651Y-68858313D01*
X97722658Y-68843577D01*
X97736205Y-68841629D01*
X97748217Y-68835070D01*
X97770660Y-68836675D01*
X97792932Y-68833473D01*
X97805381Y-68839158D01*
X97819032Y-68840135D01*
X97847304Y-68858305D01*
X97857512Y-68862967D01*
X97859590Y-68866200D01*
X97864095Y-68869096D01*
X97872999Y-68878000D01*
X98273000Y-68878000D01*
X98273000Y-68477999D01*
X98264096Y-68469095D01*
X98253313Y-68449348D01*
X98238577Y-68432342D01*
X98236629Y-68418794D01*
X98230070Y-68406783D01*
X98231675Y-68384339D01*
X98228473Y-68362068D01*
X98234158Y-68349618D01*
X98235135Y-68335968D01*
X98248619Y-68317954D01*
X98257967Y-68297488D01*
X98264096Y-68290905D01*
X98273000Y-68282001D01*
X98527000Y-68282001D01*
X98535904Y-68290905D01*
X98546686Y-68310651D01*
X98561423Y-68327658D01*
X98563370Y-68341205D01*
X98569930Y-68353217D01*
X98568324Y-68375660D01*
X98571527Y-68397932D01*
X98565841Y-68410381D01*
X98564865Y-68424032D01*
X98546694Y-68452304D01*
X98542033Y-68462512D01*
X98538799Y-68464590D01*
X98535904Y-68469095D01*
X98527000Y-68477999D01*
X98527000Y-68878000D01*
X98927000Y-68878000D01*
X98927000Y-68592496D01*
X98926999Y-68592491D01*
X98919631Y-68555447D01*
X98891561Y-68513438D01*
X98848650Y-68484766D01*
X98803122Y-68430289D01*
X98794273Y-68359846D01*
X98824914Y-68295802D01*
X98848650Y-68275234D01*
X98891561Y-68246561D01*
X98919631Y-68204552D01*
X98926999Y-68167508D01*
X98927000Y-68167503D01*
X98927000Y-67882000D01*
X98527000Y-67882000D01*
X98527000Y-68282001D01*
X98273000Y-68282001D01*
X98273000Y-67882000D01*
X97872999Y-67882000D01*
X97864095Y-67890904D01*
X97844348Y-67901686D01*
X97827342Y-67916423D01*
X97813794Y-67918370D01*
X97801783Y-67924930D01*
X97779339Y-67923324D01*
X97757068Y-67926527D01*
X97744618Y-67920841D01*
X97730968Y-67919865D01*
X97712954Y-67906380D01*
X97692488Y-67897033D01*
X97685905Y-67890904D01*
X97677001Y-67882000D01*
X97277000Y-67882000D01*
X97277000Y-68282001D01*
X97023000Y-68282001D01*
X97023000Y-67882000D01*
X96622999Y-67882000D01*
X96614095Y-67890904D01*
X96594348Y-67901686D01*
X96577342Y-67916423D01*
X96563794Y-67918370D01*
X96551783Y-67924930D01*
X96529339Y-67923324D01*
X96507068Y-67926527D01*
X96494618Y-67920841D01*
X96480968Y-67919865D01*
X96462954Y-67906380D01*
X96442488Y-67897033D01*
X96435905Y-67890904D01*
X96427001Y-67882000D01*
X96027000Y-67882000D01*
X96027000Y-68282001D01*
X95773000Y-68282001D01*
X95773000Y-67882000D01*
X95373000Y-67882000D01*
X95373000Y-68167508D01*
X90300500Y-68167508D01*
X90300500Y-67342491D01*
X95373000Y-67342491D01*
X95373000Y-67628000D01*
X95773000Y-67628000D01*
X96027000Y-67628000D01*
X96427001Y-67628000D01*
X96435905Y-67619096D01*
X96455651Y-67608313D01*
X96472658Y-67593577D01*
X96486205Y-67591629D01*
X96498217Y-67585070D01*
X96520660Y-67586675D01*
X96542932Y-67583473D01*
X96555381Y-67589158D01*
X96569032Y-67590135D01*
X96597304Y-67608305D01*
X96607512Y-67612967D01*
X96609590Y-67616200D01*
X96614095Y-67619096D01*
X96622999Y-67628000D01*
X97023000Y-67628000D01*
X97277000Y-67628000D01*
X97677001Y-67628000D01*
X97685905Y-67619096D01*
X97705651Y-67608313D01*
X97722658Y-67593577D01*
X97736205Y-67591629D01*
X97748217Y-67585070D01*
X97770660Y-67586675D01*
X97792932Y-67583473D01*
X97805381Y-67589158D01*
X97819032Y-67590135D01*
X97847304Y-67608305D01*
X97857512Y-67612967D01*
X97859590Y-67616200D01*
X97864095Y-67619096D01*
X97872999Y-67628000D01*
X98273000Y-67628000D01*
X98527000Y-67628000D01*
X98927000Y-67628000D01*
X98927000Y-67342496D01*
X98926999Y-67342491D01*
X98919631Y-67305447D01*
X98891561Y-67263438D01*
X98849552Y-67235368D01*
X98812508Y-67228000D01*
X98527000Y-67228000D01*
X98527000Y-67628000D01*
X98273000Y-67628000D01*
X98273000Y-67228000D01*
X97987491Y-67228000D01*
X97950447Y-67235368D01*
X97908437Y-67263438D01*
X97879765Y-67306350D01*
X97825288Y-67351878D01*
X97754845Y-67360726D01*
X97690801Y-67330085D01*
X97670235Y-67306350D01*
X97641562Y-67263438D01*
X97599552Y-67235368D01*
X97562508Y-67228000D01*
X97277000Y-67228000D01*
X97277000Y-67628000D01*
X97023000Y-67628000D01*
X97023000Y-67228000D01*
X96737491Y-67228000D01*
X96700447Y-67235368D01*
X96658437Y-67263438D01*
X96629765Y-67306350D01*
X96575288Y-67351878D01*
X96504845Y-67360726D01*
X96440801Y-67330085D01*
X96420235Y-67306350D01*
X96391562Y-67263438D01*
X96349552Y-67235368D01*
X96312508Y-67228000D01*
X96027000Y-67228000D01*
X96027000Y-67628000D01*
X95773000Y-67628000D01*
X95773000Y-67228000D01*
X95487491Y-67228000D01*
X95450447Y-67235368D01*
X95408438Y-67263438D01*
X95380368Y-67305447D01*
X95373000Y-67342491D01*
X90300500Y-67342491D01*
X90300500Y-64227508D01*
X115313000Y-64227508D01*
X115320368Y-64264552D01*
X115348438Y-64306561D01*
X115390447Y-64334631D01*
X115427491Y-64341999D01*
X115427497Y-64342000D01*
X115473000Y-64342000D01*
X115727000Y-64342000D01*
X115772503Y-64342000D01*
X115772508Y-64341999D01*
X115809552Y-64334631D01*
X115851561Y-64306561D01*
X115879631Y-64264552D01*
X115886999Y-64227508D01*
X115887000Y-64227503D01*
X115887000Y-64127000D01*
X115727000Y-64127000D01*
X115727000Y-64342000D01*
X115473000Y-64342000D01*
X115473000Y-64127000D01*
X115313000Y-64127000D01*
X115313000Y-64227508D01*
X90300500Y-64227508D01*
X90300500Y-63772491D01*
X115313000Y-63772491D01*
X115313000Y-63873000D01*
X115473000Y-63873000D01*
X115727000Y-63873000D01*
X115887000Y-63873000D01*
X115887000Y-63772496D01*
X115886999Y-63772491D01*
X115879631Y-63735447D01*
X115851561Y-63693438D01*
X115809552Y-63665368D01*
X115772508Y-63658000D01*
X115727000Y-63658000D01*
X115727000Y-63873000D01*
X115473000Y-63873000D01*
X115473000Y-63658000D01*
X115427491Y-63658000D01*
X115390447Y-63665368D01*
X115348438Y-63693438D01*
X115320368Y-63735447D01*
X115313000Y-63772491D01*
X90300500Y-63772491D01*
X90300500Y-59512508D01*
X90853000Y-59512508D01*
X90860368Y-59549552D01*
X90888438Y-59591561D01*
X90930447Y-59619631D01*
X90967491Y-59626999D01*
X90967497Y-59627000D01*
X91303000Y-59627000D01*
X91303000Y-58877000D01*
X90853000Y-58877000D01*
X90853000Y-59512508D01*
X90300500Y-59512508D01*
X90300500Y-57987491D01*
X90853000Y-57987491D01*
X90853000Y-58623000D01*
X91303000Y-58623000D01*
X91303000Y-57873000D01*
X91557000Y-57873000D01*
X91557000Y-59627000D01*
X91892503Y-59627000D01*
X91892506Y-59626999D01*
X91930214Y-59619499D01*
X92000928Y-59625827D01*
X92033398Y-59644601D01*
X92048691Y-59656807D01*
X92066516Y-59683484D01*
X92150699Y-59739734D01*
X92153211Y-59740233D01*
X92166449Y-59750800D01*
X92183891Y-59775673D01*
X92203377Y-59798990D01*
X92204060Y-59804435D01*
X92207212Y-59808929D01*
X92208438Y-59839288D01*
X92212224Y-59869433D01*
X92209917Y-59875910D01*
X92210077Y-59879868D01*
X92206088Y-59886662D01*
X92196968Y-59912274D01*
X92183289Y-59935966D01*
X92183288Y-59935971D01*
X92145500Y-60076999D01*
X92145500Y-60223001D01*
X92178824Y-60347372D01*
X92183289Y-60364033D01*
X92256286Y-60490467D01*
X92256294Y-60490477D01*
X92359522Y-60593705D01*
X92359527Y-60593709D01*
X92359529Y-60593711D01*
X92359530Y-60593712D01*
X92359532Y-60593713D01*
X92485966Y-60666710D01*
X92485968Y-60666710D01*
X92485971Y-60666712D01*
X92626999Y-60704500D01*
X92627001Y-60704500D01*
X92772999Y-60704500D01*
X92773001Y-60704500D01*
X92914029Y-60666712D01*
X92914032Y-60666710D01*
X92914033Y-60666710D01*
X92977250Y-60630211D01*
X93040471Y-60593711D01*
X93143711Y-60490471D01*
X93216712Y-60364029D01*
X93254500Y-60223001D01*
X93254500Y-60076999D01*
X93216712Y-59935971D01*
X93216710Y-59935968D01*
X93216710Y-59935966D01*
X93203033Y-59912277D01*
X93201849Y-59907396D01*
X93198493Y-59903661D01*
X93193561Y-59873234D01*
X93186295Y-59843282D01*
X93187937Y-59838536D01*
X93187134Y-59833579D01*
X93199433Y-59805319D01*
X93209515Y-59776190D01*
X93214011Y-59771825D01*
X93215467Y-59768481D01*
X93242147Y-59744514D01*
X93249299Y-59739734D01*
X93249301Y-59739734D01*
X93264997Y-59729245D01*
X93332746Y-59708030D01*
X93401213Y-59726811D01*
X93404997Y-59729242D01*
X93420699Y-59739734D01*
X93494933Y-59754500D01*
X94445066Y-59754499D01*
X94445069Y-59754498D01*
X94445073Y-59754498D01*
X94474514Y-59748641D01*
X94519301Y-59739734D01*
X94534998Y-59729245D01*
X94602746Y-59708030D01*
X94671213Y-59726811D01*
X94674997Y-59729242D01*
X94690699Y-59739734D01*
X94764933Y-59754500D01*
X95715066Y-59754499D01*
X95715069Y-59754498D01*
X95715073Y-59754498D01*
X95744514Y-59748641D01*
X95789301Y-59739734D01*
X95804998Y-59729245D01*
X95872746Y-59708030D01*
X95941213Y-59726811D01*
X95944997Y-59729242D01*
X95960699Y-59739734D01*
X96034933Y-59754500D01*
X96985066Y-59754499D01*
X96985069Y-59754498D01*
X96985073Y-59754498D01*
X97014514Y-59748641D01*
X97059301Y-59739734D01*
X97074998Y-59729245D01*
X97142746Y-59708030D01*
X97211213Y-59726811D01*
X97214997Y-59729242D01*
X97230699Y-59739734D01*
X97304933Y-59754500D01*
X98255066Y-59754499D01*
X98255069Y-59754498D01*
X98255073Y-59754498D01*
X98284514Y-59748641D01*
X98329301Y-59739734D01*
X98344998Y-59729245D01*
X98412746Y-59708030D01*
X98481213Y-59726811D01*
X98484997Y-59729242D01*
X98500699Y-59739734D01*
X98574933Y-59754500D01*
X99525066Y-59754499D01*
X99525069Y-59754498D01*
X99525073Y-59754498D01*
X99554514Y-59748641D01*
X99599301Y-59739734D01*
X99614998Y-59729245D01*
X99682746Y-59708030D01*
X99751213Y-59726811D01*
X99754997Y-59729242D01*
X99770699Y-59739734D01*
X99844933Y-59754500D01*
X100795066Y-59754499D01*
X100795069Y-59754498D01*
X100795073Y-59754498D01*
X100824514Y-59748641D01*
X100869301Y-59739734D01*
X100884998Y-59729245D01*
X100952746Y-59708030D01*
X101021213Y-59726811D01*
X101024997Y-59729242D01*
X101040699Y-59739734D01*
X101114933Y-59754500D01*
X102065066Y-59754499D01*
X102065069Y-59754498D01*
X102065073Y-59754498D01*
X102094514Y-59748641D01*
X102139301Y-59739734D01*
X102154998Y-59729245D01*
X102222746Y-59708030D01*
X102291213Y-59726811D01*
X102294997Y-59729242D01*
X102310699Y-59739734D01*
X102384933Y-59754500D01*
X103335066Y-59754499D01*
X103335069Y-59754498D01*
X103335073Y-59754498D01*
X103364514Y-59748641D01*
X103409301Y-59739734D01*
X103424998Y-59729245D01*
X103492746Y-59708030D01*
X103561213Y-59726811D01*
X103564997Y-59729242D01*
X103580699Y-59739734D01*
X103654933Y-59754500D01*
X104605066Y-59754499D01*
X104605069Y-59754498D01*
X104605073Y-59754498D01*
X104634514Y-59748641D01*
X104679301Y-59739734D01*
X104694998Y-59729245D01*
X104762746Y-59708030D01*
X104831213Y-59726811D01*
X104834997Y-59729242D01*
X104850699Y-59739734D01*
X104924933Y-59754500D01*
X105875066Y-59754499D01*
X105875069Y-59754498D01*
X105875073Y-59754498D01*
X105904514Y-59748641D01*
X105949301Y-59739734D01*
X105964998Y-59729245D01*
X106032746Y-59708030D01*
X106101213Y-59726811D01*
X106104997Y-59729242D01*
X106120699Y-59739734D01*
X106194933Y-59754500D01*
X107145066Y-59754499D01*
X107145069Y-59754498D01*
X107145073Y-59754498D01*
X107174514Y-59748641D01*
X107219301Y-59739734D01*
X107234998Y-59729245D01*
X107302746Y-59708030D01*
X107371213Y-59726811D01*
X107374997Y-59729242D01*
X107390699Y-59739734D01*
X107464933Y-59754500D01*
X108415066Y-59754499D01*
X108415069Y-59754498D01*
X108415073Y-59754498D01*
X108465268Y-59744514D01*
X108489301Y-59739734D01*
X108573484Y-59683484D01*
X108629734Y-59599301D01*
X108644500Y-59525067D01*
X108644499Y-57974934D01*
X108644498Y-57974931D01*
X108644498Y-57974926D01*
X108629734Y-57900699D01*
X108573484Y-57816516D01*
X108573483Y-57816515D01*
X108489302Y-57760266D01*
X108415067Y-57745500D01*
X107464936Y-57745500D01*
X107464926Y-57745501D01*
X107390699Y-57760265D01*
X107375001Y-57770755D01*
X107307248Y-57791969D01*
X107238781Y-57773185D01*
X107234997Y-57770754D01*
X107219300Y-57760265D01*
X107145067Y-57745500D01*
X106194936Y-57745500D01*
X106194926Y-57745501D01*
X106120699Y-57760265D01*
X106105001Y-57770755D01*
X106037248Y-57791969D01*
X105968781Y-57773185D01*
X105964997Y-57770754D01*
X105949300Y-57760265D01*
X105875067Y-57745500D01*
X104924936Y-57745500D01*
X104924926Y-57745501D01*
X104850699Y-57760265D01*
X104835001Y-57770755D01*
X104767248Y-57791969D01*
X104698781Y-57773185D01*
X104694997Y-57770754D01*
X104679300Y-57760265D01*
X104605067Y-57745500D01*
X103654936Y-57745500D01*
X103654926Y-57745501D01*
X103580699Y-57760265D01*
X103565001Y-57770755D01*
X103497248Y-57791969D01*
X103428781Y-57773185D01*
X103424997Y-57770754D01*
X103409300Y-57760265D01*
X103335067Y-57745500D01*
X102384936Y-57745500D01*
X102384926Y-57745501D01*
X102310699Y-57760265D01*
X102295001Y-57770755D01*
X102227248Y-57791969D01*
X102158781Y-57773185D01*
X102154997Y-57770754D01*
X102139300Y-57760265D01*
X102065067Y-57745500D01*
X101114936Y-57745500D01*
X101114926Y-57745501D01*
X101040699Y-57760265D01*
X101025001Y-57770755D01*
X100957248Y-57791969D01*
X100888781Y-57773185D01*
X100884997Y-57770754D01*
X100869300Y-57760265D01*
X100795067Y-57745500D01*
X99844936Y-57745500D01*
X99844926Y-57745501D01*
X99770699Y-57760265D01*
X99755001Y-57770755D01*
X99687248Y-57791969D01*
X99618781Y-57773185D01*
X99614997Y-57770754D01*
X99599300Y-57760265D01*
X99525067Y-57745500D01*
X98574936Y-57745500D01*
X98574926Y-57745501D01*
X98500699Y-57760265D01*
X98485001Y-57770755D01*
X98417248Y-57791969D01*
X98348781Y-57773185D01*
X98344997Y-57770754D01*
X98329300Y-57760265D01*
X98255067Y-57745500D01*
X97304936Y-57745500D01*
X97304926Y-57745501D01*
X97230699Y-57760265D01*
X97215001Y-57770755D01*
X97147248Y-57791969D01*
X97078781Y-57773185D01*
X97074997Y-57770754D01*
X97059300Y-57760265D01*
X96985067Y-57745500D01*
X96034936Y-57745500D01*
X96034926Y-57745501D01*
X95960699Y-57760265D01*
X95945001Y-57770755D01*
X95877248Y-57791969D01*
X95808781Y-57773185D01*
X95804997Y-57770754D01*
X95789300Y-57760265D01*
X95715067Y-57745500D01*
X94764936Y-57745500D01*
X94764926Y-57745501D01*
X94690699Y-57760265D01*
X94675001Y-57770755D01*
X94607248Y-57791969D01*
X94538781Y-57773185D01*
X94534997Y-57770754D01*
X94519300Y-57760265D01*
X94445067Y-57745500D01*
X93494936Y-57745500D01*
X93494926Y-57745501D01*
X93420699Y-57760265D01*
X93405001Y-57770755D01*
X93337248Y-57791969D01*
X93268781Y-57773185D01*
X93264997Y-57770754D01*
X93249300Y-57760265D01*
X93175067Y-57745500D01*
X92224936Y-57745500D01*
X92224926Y-57745501D01*
X92150699Y-57760265D01*
X92066514Y-57816517D01*
X92059558Y-57826927D01*
X92005079Y-57872453D01*
X91934636Y-57881298D01*
X91930217Y-57880500D01*
X91892513Y-57873000D01*
X91557000Y-57873000D01*
X91303000Y-57873000D01*
X90967491Y-57873000D01*
X90930447Y-57880368D01*
X90888438Y-57908438D01*
X90860368Y-57950447D01*
X90853000Y-57987491D01*
X90300500Y-57987491D01*
X90300500Y-45332389D01*
X100240500Y-45332389D01*
X100240500Y-45332392D01*
X100240500Y-45507608D01*
X100274683Y-45679458D01*
X100341735Y-45841336D01*
X100439080Y-45987023D01*
X100562977Y-46110920D01*
X100708664Y-46208265D01*
X100870542Y-46275317D01*
X101042392Y-46309500D01*
X101042393Y-46309500D01*
X101217607Y-46309500D01*
X101217608Y-46309500D01*
X101389458Y-46275317D01*
X101551336Y-46208265D01*
X101697023Y-46110920D01*
X101820920Y-45987023D01*
X101873587Y-45908202D01*
X106143000Y-45908202D01*
X106143000Y-46121798D01*
X106176414Y-46332765D01*
X106242419Y-46535907D01*
X106339390Y-46726223D01*
X106464938Y-46899026D01*
X106464940Y-46899028D01*
X106464942Y-46899031D01*
X106615968Y-47050057D01*
X106615971Y-47050059D01*
X106615974Y-47050062D01*
X106788777Y-47175610D01*
X106979093Y-47272581D01*
X107182235Y-47338586D01*
X107393202Y-47372000D01*
X107393205Y-47372000D01*
X107606795Y-47372000D01*
X107606798Y-47372000D01*
X107817765Y-47338586D01*
X108020907Y-47272581D01*
X108211223Y-47175610D01*
X108384026Y-47050062D01*
X108535062Y-46899026D01*
X108660610Y-46726223D01*
X108757581Y-46535907D01*
X108823586Y-46332765D01*
X108857000Y-46121798D01*
X108857000Y-45908202D01*
X108823586Y-45697235D01*
X108757581Y-45494093D01*
X108660610Y-45303777D01*
X108535062Y-45130974D01*
X108535059Y-45130971D01*
X108535057Y-45130968D01*
X108384031Y-44979942D01*
X108384028Y-44979940D01*
X108384026Y-44979938D01*
X108211223Y-44854390D01*
X108020907Y-44757419D01*
X107817765Y-44691414D01*
X107606798Y-44658000D01*
X107393202Y-44658000D01*
X107182235Y-44691414D01*
X107182232Y-44691414D01*
X107182231Y-44691415D01*
X106979093Y-44757419D01*
X106979091Y-44757420D01*
X106788773Y-44854392D01*
X106615971Y-44979940D01*
X106615968Y-44979942D01*
X106464942Y-45130968D01*
X106464940Y-45130971D01*
X106339392Y-45303773D01*
X106339390Y-45303777D01*
X106242419Y-45494093D01*
X106176414Y-45697235D01*
X106143000Y-45908202D01*
X101873587Y-45908202D01*
X101918265Y-45841336D01*
X101985317Y-45679458D01*
X102019500Y-45507608D01*
X102019500Y-45332392D01*
X101985317Y-45160542D01*
X101918265Y-44998664D01*
X101820920Y-44852977D01*
X101697023Y-44729080D01*
X101551336Y-44631735D01*
X101389458Y-44564683D01*
X101217610Y-44530500D01*
X101217608Y-44530500D01*
X101042392Y-44530500D01*
X101042389Y-44530500D01*
X100870541Y-44564683D01*
X100870536Y-44564685D01*
X100708664Y-44631735D01*
X100562981Y-44729077D01*
X100562974Y-44729082D01*
X100439082Y-44852974D01*
X100439077Y-44852981D01*
X100341735Y-44998664D01*
X100274685Y-45160536D01*
X100274683Y-45160541D01*
X100240500Y-45332389D01*
X90300500Y-45332389D01*
X90300500Y-43453362D01*
X90320502Y-43385241D01*
X90374158Y-43338748D01*
X90444432Y-43328644D01*
X90509012Y-43358138D01*
X90542909Y-43405145D01*
X90562880Y-43453362D01*
X90563541Y-43454956D01*
X90563544Y-43454961D01*
X90704752Y-43699540D01*
X90876685Y-43923609D01*
X90876694Y-43923619D01*
X91076380Y-44123305D01*
X91076390Y-44123314D01*
X91076391Y-44123315D01*
X91300456Y-44295245D01*
X91545044Y-44436459D01*
X91805973Y-44544539D01*
X92078776Y-44617636D01*
X92078780Y-44617636D01*
X92078782Y-44617637D01*
X92150948Y-44627137D01*
X92358787Y-44654500D01*
X92358794Y-44654500D01*
X92641206Y-44654500D01*
X92641213Y-44654500D01*
X92894273Y-44621184D01*
X92921217Y-44617637D01*
X92921217Y-44617636D01*
X92921224Y-44617636D01*
X93194027Y-44544539D01*
X93454956Y-44436459D01*
X93699544Y-44295245D01*
X93923609Y-44123315D01*
X94123315Y-43923609D01*
X94295245Y-43699544D01*
X94436459Y-43454956D01*
X94544539Y-43194027D01*
X94617636Y-42921224D01*
X94654500Y-42641213D01*
X94654500Y-42358787D01*
X94617636Y-42078776D01*
X94544539Y-41805973D01*
X94436459Y-41545044D01*
X94295245Y-41300456D01*
X94123315Y-41076391D01*
X94123314Y-41076390D01*
X94123305Y-41076380D01*
X93923619Y-40876694D01*
X93923609Y-40876685D01*
X93699540Y-40704752D01*
X93454961Y-40563544D01*
X93454952Y-40563539D01*
X93429510Y-40553001D01*
X93405144Y-40542908D01*
X93349864Y-40498361D01*
X93327443Y-40430997D01*
X93345001Y-40362206D01*
X93396963Y-40313828D01*
X93453363Y-40300500D01*
X121546637Y-40300500D01*
X121614758Y-40320502D01*
G37*
G04 #@! TD.AperFunction*
M02*
