G04 #@! TF.GenerationSoftware,KiCad,Pcbnew,9.0.2*
G04 #@! TF.CreationDate,2025-06-24T14:33:43+02:00*
G04 #@! TF.ProjectId,coral-ir,636f7261-6c2d-4697-922e-6b696361645f,rev?*
G04 #@! TF.SameCoordinates,Original*
G04 #@! TF.FileFunction,Paste,Top*
G04 #@! TF.FilePolarity,Positive*
%FSLAX46Y46*%
G04 Gerber Fmt 4.6, Leading zero omitted, Abs format (unit mm)*
G04 Created by KiCad (PCBNEW 9.0.2) date 2025-06-24 14:33:43*
%MOMM*%
%LPD*%
G01*
G04 APERTURE LIST*
G04 Aperture macros list*
%AMRotRect*
0 Rectangle, with rotation*
0 The origin of the aperture is its center*
0 $1 length*
0 $2 width*
0 $3 Rotation angle, in degrees counterclockwise*
0 Add horizontal line*
21,1,$1,$2,0,0,$3*%
G04 Aperture macros list end*
%ADD10R,1.400000X1.600000*%
%ADD11R,0.750000X0.600000*%
%ADD12R,0.600000X0.750000*%
%ADD13R,0.350000X0.800000*%
%ADD14R,2.500000X1.750000*%
%ADD15R,0.600000X0.620000*%
%ADD16RotRect,0.900000X1.200000X195.000000*%
%ADD17R,0.914400X1.219200*%
%ADD18R,0.900000X1.500000*%
%ADD19R,0.800000X0.800000*%
%ADD20RotRect,0.900000X1.200000X165.000000*%
%ADD21R,0.600000X1.250000*%
%ADD22R,0.320000X0.430000*%
%ADD23R,1.030000X0.600000*%
%ADD24R,1.080000X0.600000*%
%ADD25R,1.150000X0.300000*%
G04 APERTURE END LIST*
D10*
X109050000Y-46700000D03*
X109050000Y-53900000D03*
X112050000Y-46700000D03*
X112050000Y-53900000D03*
D11*
X107950000Y-56050000D03*
X109050000Y-56050000D03*
D12*
X102900000Y-89050000D03*
X102900000Y-87950000D03*
D13*
X114900000Y-79850000D03*
X115550000Y-79850000D03*
X116200000Y-79850000D03*
X116850000Y-79850000D03*
X116850000Y-76850000D03*
X116200000Y-76850000D03*
X115550000Y-76850000D03*
X114900000Y-76850000D03*
D14*
X115875000Y-78350000D03*
D15*
X114890000Y-74750000D03*
X115810000Y-74750000D03*
D11*
X113050000Y-84800000D03*
X111950000Y-84800000D03*
D12*
X94400000Y-80400000D03*
X94400000Y-81500000D03*
D11*
X114550000Y-84800000D03*
X115650000Y-84800000D03*
D16*
X108906222Y-92427050D03*
X112093778Y-91572950D03*
D17*
X112200000Y-70700000D03*
X115476600Y-70700000D03*
D15*
X93050000Y-80300000D03*
X92130000Y-80300000D03*
D18*
X91430000Y-76250000D03*
X92700000Y-76250000D03*
X93970000Y-76250000D03*
X95240000Y-76250000D03*
X96510000Y-76250000D03*
X97780000Y-76250000D03*
X99050000Y-76250000D03*
X100320000Y-76250000D03*
X101590000Y-76250000D03*
X102860000Y-76250000D03*
X104130000Y-76250000D03*
X105400000Y-76250000D03*
X106670000Y-76250000D03*
X107940000Y-76250000D03*
X107940000Y-58750000D03*
X106670000Y-58750000D03*
X105400000Y-58750000D03*
X104130000Y-58750000D03*
X102860000Y-58750000D03*
X101590000Y-58750000D03*
X100320000Y-58750000D03*
X99050000Y-58750000D03*
X97780000Y-58750000D03*
X96510000Y-58750000D03*
X95240000Y-58750000D03*
X93970000Y-58750000D03*
X92700000Y-58750000D03*
X91430000Y-58750000D03*
D19*
X97150000Y-69005000D03*
X95900000Y-70255000D03*
X97150000Y-70255000D03*
X98400000Y-70255000D03*
X98400000Y-69005000D03*
X98400000Y-67755000D03*
X97150000Y-67755000D03*
X95900000Y-67755000D03*
X95900000Y-69005000D03*
D11*
X102850000Y-78900000D03*
X103950000Y-78900000D03*
D20*
X102906222Y-91572950D03*
X106093778Y-92427050D03*
D21*
X113040000Y-86450000D03*
X111140000Y-86450000D03*
X112090000Y-88550000D03*
D22*
X115600000Y-65100000D03*
X115600000Y-64000000D03*
X115650000Y-72350000D03*
X115650000Y-73450000D03*
D11*
X119800000Y-61600000D03*
X120900000Y-61600000D03*
D22*
X117650000Y-75150000D03*
X117650000Y-74050000D03*
D12*
X115550000Y-68750000D03*
X115550000Y-67650000D03*
D23*
X117585000Y-70700000D03*
D24*
X117610000Y-69900000D03*
D25*
X117645000Y-68750000D03*
X117645000Y-67750000D03*
X117645000Y-67250000D03*
X117645000Y-66250000D03*
D23*
X117585000Y-64300000D03*
D24*
X117610000Y-65100000D03*
D25*
X117645000Y-65750000D03*
X117645000Y-66750000D03*
X117645000Y-68250000D03*
X117645000Y-69250000D03*
D15*
X94390000Y-79150000D03*
X95310000Y-79150000D03*
D12*
X108900000Y-89050000D03*
X108900000Y-87950000D03*
D15*
X93050000Y-79050000D03*
X92130000Y-79050000D03*
X114890000Y-81300000D03*
X115810000Y-81300000D03*
M02*
