G04 #@! TF.GenerationSoftware,KiCad,Pcbnew,9.0.2*
G04 #@! TF.CreationDate,2025-06-23T20:15:19+02:00*
G04 #@! TF.ProjectId,coral-ir,636f7261-6c2d-4697-922e-6b696361645f,rev?*
G04 #@! TF.SameCoordinates,Original*
G04 #@! TF.FileFunction,Copper,L2,Bot*
G04 #@! TF.FilePolarity,Positive*
%FSLAX46Y46*%
G04 Gerber Fmt 4.6, Leading zero omitted, Abs format (unit mm)*
G04 Created by KiCad (PCBNEW 9.0.2) date 2025-06-23 20:15:19*
%MOMM*%
%LPD*%
G01*
G04 APERTURE LIST*
G04 #@! TA.AperFunction,ComponentPad*
%ADD10C,2.600000*%
G04 #@! TD*
G04 #@! TA.AperFunction,ConnectorPad*
%ADD11C,3.800000*%
G04 #@! TD*
G04 #@! TA.AperFunction,ComponentPad*
%ADD12O,2.100000X1.050000*%
G04 #@! TD*
G04 #@! TA.AperFunction,ComponentPad*
%ADD13O,2.000000X1.000000*%
G04 #@! TD*
G04 #@! TA.AperFunction,ComponentPad*
%ADD14C,2.205000*%
G04 #@! TD*
G04 #@! TA.AperFunction,ViaPad*
%ADD15C,0.600000*%
G04 #@! TD*
G04 #@! TA.AperFunction,Conductor*
%ADD16C,0.254000*%
G04 #@! TD*
G04 APERTURE END LIST*
D10*
X92500000Y-42500000D03*
D11*
X92500000Y-42500000D03*
D10*
X122500000Y-92500000D03*
D11*
X122500000Y-92500000D03*
D10*
X92500000Y-92500000D03*
D11*
X92500000Y-92500000D03*
D12*
X118220000Y-71820000D03*
D13*
X122400000Y-71820000D03*
X122400000Y-63180000D03*
D12*
X118220000Y-63180000D03*
D10*
X122500000Y-42500000D03*
D11*
X122500000Y-42500000D03*
D14*
X107500000Y-83985000D03*
X107500000Y-46015000D03*
D15*
X101650000Y-81350000D03*
X98200000Y-81400000D03*
X115550000Y-66600000D03*
X99800000Y-79150000D03*
X99950000Y-83950000D03*
X109950000Y-86550000D03*
X109950000Y-89850000D03*
X96450000Y-79150000D03*
X117900000Y-73500000D03*
X112900000Y-73950000D03*
X111950000Y-83800000D03*
X92700000Y-60150000D03*
D16*
X112900000Y-73950000D02*
X111850000Y-72900000D01*
X111850000Y-72900000D02*
X111850000Y-47865000D01*
X111850000Y-47865000D02*
X110000000Y-46015000D01*
X110000000Y-46015000D02*
X107500000Y-46015000D01*
X111950000Y-76450000D02*
X95650000Y-60150000D01*
X111950000Y-83800000D02*
X111950000Y-76450000D01*
X95650000Y-60150000D02*
X92700000Y-60150000D01*
G04 #@! TA.AperFunction,Conductor*
G36*
X121614758Y-40320502D02*
G01*
X121661251Y-40374158D01*
X121671355Y-40444432D01*
X121641861Y-40509012D01*
X121594856Y-40542908D01*
X121579782Y-40549151D01*
X121545047Y-40563539D01*
X121545038Y-40563544D01*
X121300459Y-40704752D01*
X121076390Y-40876685D01*
X121076380Y-40876694D01*
X120876694Y-41076380D01*
X120876685Y-41076390D01*
X120704752Y-41300459D01*
X120563544Y-41545038D01*
X120563539Y-41545047D01*
X120455461Y-41805973D01*
X120382362Y-42078782D01*
X120345500Y-42358784D01*
X120345500Y-42641215D01*
X120382362Y-42921217D01*
X120455461Y-43194026D01*
X120563539Y-43454952D01*
X120563544Y-43454961D01*
X120704752Y-43699540D01*
X120876685Y-43923609D01*
X120876694Y-43923619D01*
X121076380Y-44123305D01*
X121076390Y-44123314D01*
X121076391Y-44123315D01*
X121300456Y-44295245D01*
X121545044Y-44436459D01*
X121805973Y-44544539D01*
X122078776Y-44617636D01*
X122078780Y-44617636D01*
X122078782Y-44617637D01*
X122150948Y-44627137D01*
X122358787Y-44654500D01*
X122358794Y-44654500D01*
X122641206Y-44654500D01*
X122641213Y-44654500D01*
X122894273Y-44621184D01*
X122921217Y-44617637D01*
X122921217Y-44617636D01*
X122921224Y-44617636D01*
X123194027Y-44544539D01*
X123454956Y-44436459D01*
X123699544Y-44295245D01*
X123923609Y-44123315D01*
X124123315Y-43923609D01*
X124295245Y-43699544D01*
X124436459Y-43454956D01*
X124457091Y-43405144D01*
X124501639Y-43349863D01*
X124569002Y-43327442D01*
X124637793Y-43345000D01*
X124686172Y-43396962D01*
X124699500Y-43453362D01*
X124699500Y-91546637D01*
X124679498Y-91614758D01*
X124625842Y-91661251D01*
X124555568Y-91671355D01*
X124490988Y-91641861D01*
X124457091Y-91594855D01*
X124436460Y-91545047D01*
X124436459Y-91545044D01*
X124295245Y-91300456D01*
X124123315Y-91076391D01*
X124123314Y-91076390D01*
X124123305Y-91076380D01*
X123923619Y-90876694D01*
X123923609Y-90876685D01*
X123699540Y-90704752D01*
X123454961Y-90563544D01*
X123454952Y-90563539D01*
X123336730Y-90514570D01*
X123194027Y-90455461D01*
X122921224Y-90382364D01*
X122921217Y-90382362D01*
X122641215Y-90345500D01*
X122641213Y-90345500D01*
X122358787Y-90345500D01*
X122358784Y-90345500D01*
X122078782Y-90382362D01*
X121805973Y-90455461D01*
X121545047Y-90563539D01*
X121545038Y-90563544D01*
X121300459Y-90704752D01*
X121076390Y-90876685D01*
X121076380Y-90876694D01*
X120876694Y-91076380D01*
X120876685Y-91076390D01*
X120704752Y-91300459D01*
X120563544Y-91545038D01*
X120563539Y-91545047D01*
X120455461Y-91805973D01*
X120382362Y-92078782D01*
X120345500Y-92358784D01*
X120345500Y-92641215D01*
X120382362Y-92921217D01*
X120455461Y-93194026D01*
X120563539Y-93454952D01*
X120563544Y-93454961D01*
X120704752Y-93699540D01*
X120876685Y-93923609D01*
X120876694Y-93923619D01*
X121076380Y-94123305D01*
X121076390Y-94123314D01*
X121076391Y-94123315D01*
X121300456Y-94295245D01*
X121545044Y-94436459D01*
X121594855Y-94457091D01*
X121650136Y-94501639D01*
X121672557Y-94569003D01*
X121654999Y-94637794D01*
X121603037Y-94686172D01*
X121546637Y-94699500D01*
X93453363Y-94699500D01*
X93385242Y-94679498D01*
X93338749Y-94625842D01*
X93328645Y-94555568D01*
X93358139Y-94490988D01*
X93405143Y-94457091D01*
X93454956Y-94436459D01*
X93699544Y-94295245D01*
X93923609Y-94123315D01*
X94123315Y-93923609D01*
X94295245Y-93699544D01*
X94436459Y-93454956D01*
X94544539Y-93194027D01*
X94617636Y-92921224D01*
X94654500Y-92641213D01*
X94654500Y-92358787D01*
X94617636Y-92078776D01*
X94544539Y-91805973D01*
X94436459Y-91545044D01*
X94295245Y-91300456D01*
X94123315Y-91076391D01*
X94123314Y-91076390D01*
X94123305Y-91076380D01*
X93923619Y-90876694D01*
X93923609Y-90876685D01*
X93699540Y-90704752D01*
X93454961Y-90563544D01*
X93454952Y-90563539D01*
X93336730Y-90514570D01*
X93194027Y-90455461D01*
X92921224Y-90382364D01*
X92921217Y-90382362D01*
X92641215Y-90345500D01*
X92641213Y-90345500D01*
X92358787Y-90345500D01*
X92358784Y-90345500D01*
X92078782Y-90382362D01*
X91805973Y-90455461D01*
X91545047Y-90563539D01*
X91545038Y-90563544D01*
X91300459Y-90704752D01*
X91076390Y-90876685D01*
X91076380Y-90876694D01*
X90876694Y-91076380D01*
X90876685Y-91076390D01*
X90704752Y-91300459D01*
X90563544Y-91545038D01*
X90563539Y-91545047D01*
X90542909Y-91594855D01*
X90498361Y-91650136D01*
X90430997Y-91672557D01*
X90362206Y-91654999D01*
X90313828Y-91603037D01*
X90300500Y-91546637D01*
X90300500Y-83888239D01*
X106270500Y-83888239D01*
X106270500Y-84081760D01*
X106300775Y-84272912D01*
X106360578Y-84456965D01*
X106448434Y-84629395D01*
X106448437Y-84629400D01*
X106544194Y-84761198D01*
X106544196Y-84761198D01*
X106898154Y-84407239D01*
X106929088Y-84453535D01*
X107031465Y-84555912D01*
X107077759Y-84586844D01*
X106723800Y-84940803D01*
X106723800Y-84940804D01*
X106855599Y-85036562D01*
X106855604Y-85036565D01*
X107028034Y-85124421D01*
X107212087Y-85184224D01*
X107403239Y-85214500D01*
X107596761Y-85214500D01*
X107787912Y-85184224D01*
X107971962Y-85124422D01*
X108144399Y-85036561D01*
X108144408Y-85036556D01*
X108276198Y-84940804D01*
X108276198Y-84940802D01*
X107922240Y-84586844D01*
X107968535Y-84555912D01*
X108070912Y-84453535D01*
X108101844Y-84407240D01*
X108455802Y-84761198D01*
X108455804Y-84761198D01*
X108551556Y-84629408D01*
X108551561Y-84629399D01*
X108639422Y-84456962D01*
X108699224Y-84272912D01*
X108729500Y-84081760D01*
X108729500Y-83888239D01*
X108699224Y-83697087D01*
X108639421Y-83513034D01*
X108551565Y-83340604D01*
X108551562Y-83340599D01*
X108455804Y-83208800D01*
X108455803Y-83208800D01*
X108101844Y-83562759D01*
X108070912Y-83516465D01*
X107968535Y-83414088D01*
X107922239Y-83383154D01*
X108276198Y-83029196D01*
X108276198Y-83029194D01*
X108144400Y-82933437D01*
X108144395Y-82933434D01*
X107971965Y-82845578D01*
X107787912Y-82785775D01*
X107596761Y-82755500D01*
X107403239Y-82755500D01*
X107212087Y-82785775D01*
X107028034Y-82845578D01*
X106855606Y-82933433D01*
X106723800Y-83029195D01*
X107077760Y-83383154D01*
X107031465Y-83414088D01*
X106929088Y-83516465D01*
X106898154Y-83562759D01*
X106544195Y-83208800D01*
X106448433Y-83340606D01*
X106360578Y-83513034D01*
X106300775Y-83697087D01*
X106270500Y-83888239D01*
X90300500Y-83888239D01*
X90300500Y-60076999D01*
X92145500Y-60076999D01*
X92145500Y-60223001D01*
X92178824Y-60347372D01*
X92183289Y-60364033D01*
X92256286Y-60490467D01*
X92256294Y-60490477D01*
X92359522Y-60593705D01*
X92359527Y-60593709D01*
X92359529Y-60593711D01*
X92359530Y-60593712D01*
X92359532Y-60593713D01*
X92485966Y-60666710D01*
X92485968Y-60666710D01*
X92485971Y-60666712D01*
X92626999Y-60704500D01*
X92627001Y-60704500D01*
X92772999Y-60704500D01*
X92773001Y-60704500D01*
X92914029Y-60666712D01*
X92914032Y-60666710D01*
X92914033Y-60666710D01*
X92977250Y-60630211D01*
X93040471Y-60593711D01*
X93040477Y-60593705D01*
X93065778Y-60568405D01*
X93128090Y-60534379D01*
X93154873Y-60531500D01*
X95439787Y-60531500D01*
X95507908Y-60551502D01*
X95528882Y-60568405D01*
X111531595Y-76571118D01*
X111565621Y-76633430D01*
X111568500Y-76660213D01*
X111568500Y-83345127D01*
X111548498Y-83413248D01*
X111531595Y-83434222D01*
X111506294Y-83459522D01*
X111506286Y-83459532D01*
X111433289Y-83585966D01*
X111433288Y-83585971D01*
X111395500Y-83726999D01*
X111395500Y-83873001D01*
X111399583Y-83888239D01*
X111433289Y-84014033D01*
X111506286Y-84140467D01*
X111506294Y-84140477D01*
X111609522Y-84243705D01*
X111609527Y-84243709D01*
X111609529Y-84243711D01*
X111609530Y-84243712D01*
X111609532Y-84243713D01*
X111735966Y-84316710D01*
X111735968Y-84316710D01*
X111735971Y-84316712D01*
X111876999Y-84354500D01*
X111877001Y-84354500D01*
X112022999Y-84354500D01*
X112023001Y-84354500D01*
X112164029Y-84316712D01*
X112164032Y-84316710D01*
X112164033Y-84316710D01*
X112239893Y-84272912D01*
X112290471Y-84243711D01*
X112393711Y-84140471D01*
X112466712Y-84014029D01*
X112504500Y-83873001D01*
X112504500Y-83726999D01*
X112466712Y-83585971D01*
X112466710Y-83585968D01*
X112466710Y-83585966D01*
X112393713Y-83459532D01*
X112393705Y-83459522D01*
X112368405Y-83434222D01*
X112334379Y-83371910D01*
X112331500Y-83345127D01*
X112331500Y-76399776D01*
X112331500Y-76399775D01*
X112305501Y-76302746D01*
X112305499Y-76302743D01*
X112305499Y-76302741D01*
X112255278Y-76215756D01*
X112255274Y-76215751D01*
X112184247Y-76144724D01*
X105850023Y-69810500D01*
X95884253Y-59844729D01*
X95884249Y-59844726D01*
X95884247Y-59844724D01*
X95852370Y-59826320D01*
X95797254Y-59794499D01*
X95700225Y-59768500D01*
X95700223Y-59768500D01*
X93154873Y-59768500D01*
X93086752Y-59748498D01*
X93065778Y-59731595D01*
X93040477Y-59706294D01*
X93040467Y-59706286D01*
X92914033Y-59633289D01*
X92897372Y-59628824D01*
X92773001Y-59595500D01*
X92626999Y-59595500D01*
X92540686Y-59618627D01*
X92485966Y-59633289D01*
X92359532Y-59706286D01*
X92359522Y-59706294D01*
X92256294Y-59809522D01*
X92256286Y-59809532D01*
X92183289Y-59935966D01*
X92183288Y-59935971D01*
X92145500Y-60076999D01*
X90300500Y-60076999D01*
X90300500Y-45332389D01*
X100240500Y-45332389D01*
X100240500Y-45332392D01*
X100240500Y-45507608D01*
X100274683Y-45679458D01*
X100341735Y-45841336D01*
X100439080Y-45987023D01*
X100562977Y-46110920D01*
X100708664Y-46208265D01*
X100870542Y-46275317D01*
X101042392Y-46309500D01*
X101042393Y-46309500D01*
X101217607Y-46309500D01*
X101217608Y-46309500D01*
X101389458Y-46275317D01*
X101551336Y-46208265D01*
X101697023Y-46110920D01*
X101820920Y-45987023D01*
X101873587Y-45908202D01*
X106143000Y-45908202D01*
X106143000Y-46121798D01*
X106176414Y-46332765D01*
X106242419Y-46535907D01*
X106339390Y-46726223D01*
X106464938Y-46899026D01*
X106464940Y-46899028D01*
X106464942Y-46899031D01*
X106615968Y-47050057D01*
X106615971Y-47050059D01*
X106615974Y-47050062D01*
X106788777Y-47175610D01*
X106979093Y-47272581D01*
X107182235Y-47338586D01*
X107393202Y-47372000D01*
X107393205Y-47372000D01*
X107606795Y-47372000D01*
X107606798Y-47372000D01*
X107817765Y-47338586D01*
X108020907Y-47272581D01*
X108211223Y-47175610D01*
X108384026Y-47050062D01*
X108535062Y-46899026D01*
X108660610Y-46726223D01*
X108757581Y-46535907D01*
X108774588Y-46483563D01*
X108814661Y-46424958D01*
X108880058Y-46397321D01*
X108894421Y-46396500D01*
X109789787Y-46396500D01*
X109857908Y-46416502D01*
X109878882Y-46433405D01*
X111431595Y-47986118D01*
X111465621Y-48048430D01*
X111468500Y-48075213D01*
X111468500Y-72950223D01*
X111468499Y-72950223D01*
X111494500Y-73047258D01*
X111544721Y-73134243D01*
X111544723Y-73134245D01*
X111544724Y-73134247D01*
X112308596Y-73898119D01*
X112342620Y-73960430D01*
X112345500Y-73987213D01*
X112345500Y-74023001D01*
X112378824Y-74147372D01*
X112383289Y-74164033D01*
X112456286Y-74290467D01*
X112456294Y-74290477D01*
X112559522Y-74393705D01*
X112559527Y-74393709D01*
X112559529Y-74393711D01*
X112559530Y-74393712D01*
X112559532Y-74393713D01*
X112685966Y-74466710D01*
X112685968Y-74466710D01*
X112685971Y-74466712D01*
X112826999Y-74504500D01*
X112827001Y-74504500D01*
X112972999Y-74504500D01*
X112973001Y-74504500D01*
X113114029Y-74466712D01*
X113114032Y-74466710D01*
X113114033Y-74466710D01*
X113177250Y-74430211D01*
X113240471Y-74393711D01*
X113343711Y-74290471D01*
X113416712Y-74164029D01*
X113454500Y-74023001D01*
X113454500Y-73876999D01*
X113416712Y-73735971D01*
X113416710Y-73735968D01*
X113416710Y-73735966D01*
X113343713Y-73609532D01*
X113343705Y-73609522D01*
X113240477Y-73506294D01*
X113240467Y-73506286D01*
X113114033Y-73433289D01*
X113097372Y-73428824D01*
X112973001Y-73395500D01*
X112972999Y-73395500D01*
X112937213Y-73395500D01*
X112869092Y-73375498D01*
X112848118Y-73358595D01*
X112268405Y-72778882D01*
X112234379Y-72716570D01*
X112231500Y-72689787D01*
X112231500Y-71692999D01*
X117055488Y-71692999D01*
X117055489Y-71693000D01*
X117396913Y-71693000D01*
X117390444Y-71704204D01*
X117370000Y-71780504D01*
X117370000Y-71859496D01*
X117390444Y-71935796D01*
X117396913Y-71947000D01*
X117055488Y-71947000D01*
X117068054Y-72010176D01*
X117068055Y-72010179D01*
X117117205Y-72128838D01*
X117188557Y-72235624D01*
X117188562Y-72235630D01*
X117279369Y-72326437D01*
X117279375Y-72326442D01*
X117386161Y-72397794D01*
X117504813Y-72446941D01*
X117504818Y-72446943D01*
X117630781Y-72471999D01*
X117630785Y-72472000D01*
X118093000Y-72472000D01*
X118093000Y-72120000D01*
X118347000Y-72120000D01*
X118347000Y-72472000D01*
X118809215Y-72472000D01*
X118809218Y-72471999D01*
X118935181Y-72446943D01*
X118935186Y-72446941D01*
X119053838Y-72397794D01*
X119160624Y-72326442D01*
X119160630Y-72326437D01*
X119251437Y-72235630D01*
X119251442Y-72235624D01*
X119322794Y-72128838D01*
X119371944Y-72010179D01*
X119371945Y-72010176D01*
X119384511Y-71947000D01*
X119043087Y-71947000D01*
X119049556Y-71935796D01*
X119070000Y-71859496D01*
X119070000Y-71780504D01*
X119049556Y-71704204D01*
X119043087Y-71693000D01*
X119384511Y-71693000D01*
X121285978Y-71693000D01*
X121726913Y-71693000D01*
X121720444Y-71704204D01*
X121700000Y-71780504D01*
X121700000Y-71859496D01*
X121720444Y-71935796D01*
X121726913Y-71947000D01*
X121285978Y-71947000D01*
X121297096Y-72002892D01*
X121344361Y-72116997D01*
X121412976Y-72219687D01*
X121412981Y-72219693D01*
X121500306Y-72307018D01*
X121500312Y-72307023D01*
X121603002Y-72375638D01*
X121717109Y-72422903D01*
X121717110Y-72422904D01*
X121838243Y-72446999D01*
X121838247Y-72447000D01*
X122273000Y-72447000D01*
X122273000Y-72120000D01*
X122527000Y-72120000D01*
X122527000Y-72447000D01*
X122961753Y-72447000D01*
X122961756Y-72446999D01*
X123082889Y-72422904D01*
X123082890Y-72422903D01*
X123196997Y-72375638D01*
X123299687Y-72307023D01*
X123299693Y-72307018D01*
X123387018Y-72219693D01*
X123387023Y-72219687D01*
X123455638Y-72116997D01*
X123502903Y-72002892D01*
X123514022Y-71947000D01*
X123073087Y-71947000D01*
X123079556Y-71935796D01*
X123100000Y-71859496D01*
X123100000Y-71780504D01*
X123079556Y-71704204D01*
X123073087Y-71693000D01*
X123514021Y-71693000D01*
X123502903Y-71637107D01*
X123455638Y-71523002D01*
X123387023Y-71420312D01*
X123387018Y-71420306D01*
X123299693Y-71332981D01*
X123299687Y-71332976D01*
X123196997Y-71264361D01*
X123082890Y-71217096D01*
X123082889Y-71217095D01*
X122961756Y-71193000D01*
X122527000Y-71193000D01*
X122527000Y-71520000D01*
X122273000Y-71520000D01*
X122273000Y-71193000D01*
X121838243Y-71193000D01*
X121717110Y-71217095D01*
X121717109Y-71217096D01*
X121603002Y-71264361D01*
X121500312Y-71332976D01*
X121500306Y-71332981D01*
X121412981Y-71420306D01*
X121412976Y-71420312D01*
X121344361Y-71523002D01*
X121297096Y-71637107D01*
X121285978Y-71693000D01*
X119384511Y-71693000D01*
X119384511Y-71692999D01*
X119371945Y-71629823D01*
X119371944Y-71629820D01*
X119322794Y-71511161D01*
X119251442Y-71404375D01*
X119251437Y-71404369D01*
X119160630Y-71313562D01*
X119160624Y-71313557D01*
X119053838Y-71242205D01*
X118935186Y-71193058D01*
X118935176Y-71193055D01*
X118906615Y-71187373D01*
X118843706Y-71154464D01*
X118808576Y-71092768D01*
X118812378Y-71021873D01*
X118853906Y-70964288D01*
X118898586Y-70942090D01*
X118943678Y-70930008D01*
X119075821Y-70853715D01*
X119183715Y-70745821D01*
X119260008Y-70613678D01*
X119299500Y-70466293D01*
X119299500Y-70313707D01*
X119260008Y-70166322D01*
X119183715Y-70034179D01*
X119183713Y-70034177D01*
X119183709Y-70034172D01*
X119075827Y-69926290D01*
X119075817Y-69926282D01*
X118943682Y-69849994D01*
X118943680Y-69849993D01*
X118943678Y-69849992D01*
X118796293Y-69810500D01*
X118643707Y-69810500D01*
X118496322Y-69849992D01*
X118496317Y-69849994D01*
X118364182Y-69926282D01*
X118364172Y-69926290D01*
X118256290Y-70034172D01*
X118256282Y-70034182D01*
X118179994Y-70166317D01*
X118179992Y-70166322D01*
X118140500Y-70313707D01*
X118140500Y-70466293D01*
X118179992Y-70613677D01*
X118179994Y-70613682D01*
X118256282Y-70745817D01*
X118256290Y-70745827D01*
X118364172Y-70853709D01*
X118364177Y-70853713D01*
X118364179Y-70853715D01*
X118496322Y-70930008D01*
X118496323Y-70930008D01*
X118501299Y-70932881D01*
X118550292Y-70984263D01*
X118563728Y-71053977D01*
X118537342Y-71119888D01*
X118479510Y-71161070D01*
X118438299Y-71168000D01*
X118347000Y-71168000D01*
X118347000Y-71520000D01*
X118093000Y-71520000D01*
X118093000Y-71168000D01*
X117630781Y-71168000D01*
X117504818Y-71193056D01*
X117504813Y-71193058D01*
X117386161Y-71242205D01*
X117279375Y-71313557D01*
X117279369Y-71313562D01*
X117188562Y-71404369D01*
X117188557Y-71404375D01*
X117117205Y-71511161D01*
X117068055Y-71629820D01*
X117068054Y-71629823D01*
X117055488Y-71692999D01*
X112231500Y-71692999D01*
X112231500Y-63052999D01*
X117055488Y-63052999D01*
X117055489Y-63053000D01*
X117396913Y-63053000D01*
X117390444Y-63064204D01*
X117370000Y-63140504D01*
X117370000Y-63219496D01*
X117390444Y-63295796D01*
X117396913Y-63307000D01*
X117055488Y-63307000D01*
X117068054Y-63370176D01*
X117068055Y-63370179D01*
X117117205Y-63488838D01*
X117188557Y-63595624D01*
X117188562Y-63595630D01*
X117279369Y-63686437D01*
X117279375Y-63686442D01*
X117386161Y-63757794D01*
X117504813Y-63806941D01*
X117504818Y-63806943D01*
X117630781Y-63831999D01*
X117630785Y-63832000D01*
X118093000Y-63832000D01*
X118093000Y-63480000D01*
X118347000Y-63480000D01*
X118347000Y-63832000D01*
X118438299Y-63832000D01*
X118506420Y-63852002D01*
X118552913Y-63905658D01*
X118563017Y-63975932D01*
X118533523Y-64040512D01*
X118501299Y-64067119D01*
X118496323Y-64069991D01*
X118496322Y-64069992D01*
X118496319Y-64069994D01*
X118364182Y-64146282D01*
X118364172Y-64146290D01*
X118256290Y-64254172D01*
X118256282Y-64254182D01*
X118179994Y-64386317D01*
X118179992Y-64386322D01*
X118140500Y-64533707D01*
X118140500Y-64686293D01*
X118179992Y-64833677D01*
X118179994Y-64833682D01*
X118256282Y-64965817D01*
X118256290Y-64965827D01*
X118364172Y-65073709D01*
X118364177Y-65073713D01*
X118364179Y-65073715D01*
X118496322Y-65150008D01*
X118643707Y-65189500D01*
X118643710Y-65189500D01*
X118796290Y-65189500D01*
X118796293Y-65189500D01*
X118943678Y-65150008D01*
X119075821Y-65073715D01*
X119183715Y-64965821D01*
X119260008Y-64833678D01*
X119299500Y-64686293D01*
X119299500Y-64533707D01*
X119260008Y-64386322D01*
X119183715Y-64254179D01*
X119183713Y-64254177D01*
X119183709Y-64254172D01*
X119075827Y-64146290D01*
X119075817Y-64146282D01*
X118943682Y-64069994D01*
X118943679Y-64069993D01*
X118943678Y-64069992D01*
X118943676Y-64069991D01*
X118943675Y-64069991D01*
X118932956Y-64067119D01*
X118898587Y-64057909D01*
X118837966Y-64020959D01*
X118806945Y-63957099D01*
X118815373Y-63886604D01*
X118860576Y-63831857D01*
X118906618Y-63812625D01*
X118935181Y-63806943D01*
X118935186Y-63806941D01*
X119053838Y-63757794D01*
X119160624Y-63686442D01*
X119160630Y-63686437D01*
X119251437Y-63595630D01*
X119251442Y-63595624D01*
X119322794Y-63488838D01*
X119371944Y-63370179D01*
X119371945Y-63370176D01*
X119384511Y-63307000D01*
X119043087Y-63307000D01*
X119049556Y-63295796D01*
X119070000Y-63219496D01*
X119070000Y-63140504D01*
X119049556Y-63064204D01*
X119043087Y-63053000D01*
X119384511Y-63053000D01*
X121285978Y-63053000D01*
X121726913Y-63053000D01*
X121720444Y-63064204D01*
X121700000Y-63140504D01*
X121700000Y-63219496D01*
X121720444Y-63295796D01*
X121726913Y-63307000D01*
X121285978Y-63307000D01*
X121297096Y-63362892D01*
X121344361Y-63476997D01*
X121412976Y-63579687D01*
X121412981Y-63579693D01*
X121500306Y-63667018D01*
X121500312Y-63667023D01*
X121603002Y-63735638D01*
X121717109Y-63782903D01*
X121717110Y-63782904D01*
X121838243Y-63806999D01*
X121838247Y-63807000D01*
X122273000Y-63807000D01*
X122273000Y-63480000D01*
X122527000Y-63480000D01*
X122527000Y-63807000D01*
X122961753Y-63807000D01*
X122961756Y-63806999D01*
X123082889Y-63782904D01*
X123082890Y-63782903D01*
X123196997Y-63735638D01*
X123299687Y-63667023D01*
X123299693Y-63667018D01*
X123387018Y-63579693D01*
X123387023Y-63579687D01*
X123455638Y-63476997D01*
X123502903Y-63362892D01*
X123514022Y-63307000D01*
X123073087Y-63307000D01*
X123079556Y-63295796D01*
X123100000Y-63219496D01*
X123100000Y-63140504D01*
X123079556Y-63064204D01*
X123073087Y-63053000D01*
X123514021Y-63053000D01*
X123502903Y-62997107D01*
X123455638Y-62883002D01*
X123387023Y-62780312D01*
X123387018Y-62780306D01*
X123299693Y-62692981D01*
X123299687Y-62692976D01*
X123196997Y-62624361D01*
X123082890Y-62577096D01*
X123082889Y-62577095D01*
X122961756Y-62553000D01*
X122527000Y-62553000D01*
X122527000Y-62880000D01*
X122273000Y-62880000D01*
X122273000Y-62553000D01*
X121838243Y-62553000D01*
X121717110Y-62577095D01*
X121717109Y-62577096D01*
X121603002Y-62624361D01*
X121500312Y-62692976D01*
X121500306Y-62692981D01*
X121412981Y-62780306D01*
X121412976Y-62780312D01*
X121344361Y-62883002D01*
X121297096Y-62997107D01*
X121285978Y-63053000D01*
X119384511Y-63053000D01*
X119384511Y-63052999D01*
X119371945Y-62989823D01*
X119371944Y-62989820D01*
X119322794Y-62871161D01*
X119251442Y-62764375D01*
X119251437Y-62764369D01*
X119160630Y-62673562D01*
X119160624Y-62673557D01*
X119053838Y-62602205D01*
X118935186Y-62553058D01*
X118935181Y-62553056D01*
X118809218Y-62528000D01*
X118347000Y-62528000D01*
X118347000Y-62880000D01*
X118093000Y-62880000D01*
X118093000Y-62528000D01*
X117630781Y-62528000D01*
X117504818Y-62553056D01*
X117504813Y-62553058D01*
X117386161Y-62602205D01*
X117279375Y-62673557D01*
X117279369Y-62673562D01*
X117188562Y-62764369D01*
X117188557Y-62764375D01*
X117117205Y-62871161D01*
X117068055Y-62989820D01*
X117068054Y-62989823D01*
X117055488Y-63052999D01*
X112231500Y-63052999D01*
X112231500Y-47814776D01*
X112231500Y-47814775D01*
X112205501Y-47717746D01*
X112205499Y-47717743D01*
X112205499Y-47717741D01*
X112155278Y-47630756D01*
X112155274Y-47630751D01*
X112084247Y-47559724D01*
X111250746Y-46726223D01*
X110234253Y-45709729D01*
X110234243Y-45709721D01*
X110181823Y-45679457D01*
X110181822Y-45679457D01*
X110147258Y-45659501D01*
X110147255Y-45659500D01*
X110147254Y-45659499D01*
X110147252Y-45659498D01*
X110147251Y-45659498D01*
X110121253Y-45652532D01*
X110050225Y-45633500D01*
X110050223Y-45633500D01*
X108894421Y-45633500D01*
X108826300Y-45613498D01*
X108779807Y-45559842D01*
X108774588Y-45546436D01*
X108761972Y-45507608D01*
X108757581Y-45494093D01*
X108660610Y-45303777D01*
X108535062Y-45130974D01*
X108535059Y-45130971D01*
X108535057Y-45130968D01*
X108384031Y-44979942D01*
X108384028Y-44979940D01*
X108384026Y-44979938D01*
X108211223Y-44854390D01*
X108020907Y-44757419D01*
X107817765Y-44691414D01*
X107606798Y-44658000D01*
X107393202Y-44658000D01*
X107182235Y-44691414D01*
X107182232Y-44691414D01*
X107182231Y-44691415D01*
X106979093Y-44757419D01*
X106979091Y-44757420D01*
X106788773Y-44854392D01*
X106615971Y-44979940D01*
X106615968Y-44979942D01*
X106464942Y-45130968D01*
X106464940Y-45130971D01*
X106339392Y-45303773D01*
X106242420Y-45494091D01*
X106242419Y-45494093D01*
X106188675Y-45659501D01*
X106176414Y-45697235D01*
X106143000Y-45908202D01*
X101873587Y-45908202D01*
X101918265Y-45841336D01*
X101985317Y-45679458D01*
X102019500Y-45507608D01*
X102019500Y-45332392D01*
X101985317Y-45160542D01*
X101918265Y-44998664D01*
X101820920Y-44852977D01*
X101697023Y-44729080D01*
X101551336Y-44631735D01*
X101389458Y-44564683D01*
X101217610Y-44530500D01*
X101217608Y-44530500D01*
X101042392Y-44530500D01*
X101042389Y-44530500D01*
X100870541Y-44564683D01*
X100870536Y-44564685D01*
X100708664Y-44631735D01*
X100562981Y-44729077D01*
X100562974Y-44729082D01*
X100439082Y-44852974D01*
X100439077Y-44852981D01*
X100341735Y-44998664D01*
X100274685Y-45160536D01*
X100274683Y-45160541D01*
X100240500Y-45332389D01*
X90300500Y-45332389D01*
X90300500Y-43453362D01*
X90320502Y-43385241D01*
X90374158Y-43338748D01*
X90444432Y-43328644D01*
X90509012Y-43358138D01*
X90542909Y-43405145D01*
X90562880Y-43453362D01*
X90563541Y-43454956D01*
X90563544Y-43454961D01*
X90704752Y-43699540D01*
X90876685Y-43923609D01*
X90876694Y-43923619D01*
X91076380Y-44123305D01*
X91076390Y-44123314D01*
X91076391Y-44123315D01*
X91300456Y-44295245D01*
X91545044Y-44436459D01*
X91805973Y-44544539D01*
X92078776Y-44617636D01*
X92078780Y-44617636D01*
X92078782Y-44617637D01*
X92150948Y-44627137D01*
X92358787Y-44654500D01*
X92358794Y-44654500D01*
X92641206Y-44654500D01*
X92641213Y-44654500D01*
X92894273Y-44621184D01*
X92921217Y-44617637D01*
X92921217Y-44617636D01*
X92921224Y-44617636D01*
X93194027Y-44544539D01*
X93454956Y-44436459D01*
X93699544Y-44295245D01*
X93923609Y-44123315D01*
X94123315Y-43923609D01*
X94295245Y-43699544D01*
X94436459Y-43454956D01*
X94544539Y-43194027D01*
X94617636Y-42921224D01*
X94654500Y-42641213D01*
X94654500Y-42358787D01*
X94617636Y-42078776D01*
X94544539Y-41805973D01*
X94436459Y-41545044D01*
X94295245Y-41300456D01*
X94123315Y-41076391D01*
X94123314Y-41076390D01*
X94123305Y-41076380D01*
X93923619Y-40876694D01*
X93923609Y-40876685D01*
X93699540Y-40704752D01*
X93454961Y-40563544D01*
X93454952Y-40563539D01*
X93429510Y-40553001D01*
X93405144Y-40542908D01*
X93349864Y-40498361D01*
X93327443Y-40430997D01*
X93345001Y-40362206D01*
X93396963Y-40313828D01*
X93453363Y-40300500D01*
X121546637Y-40300500D01*
X121614758Y-40320502D01*
G37*
G04 #@! TD.AperFunction*
M02*
